<svg width="1018.413" height="1307.937" xmlns="http://www.w3.org/2000/svg"><path style="fill:#d8e5f0;stroke-width:2.53968" d="M431.27 1296.043c1.833-.734 4.024-.643 4.868.2.843.844-.657 1.444-3.334 1.334-2.958-.122-3.56-.724-1.534-1.534zm66.508-29.536c0-.437 3.714-4.152 8.254-8.254l8.254-7.46-7.46 8.255c-6.953 7.693-9.048 9.42-9.048 7.459zm-93.968-43.65c3.28-3.492 6.536-6.35 7.234-6.35.699 0-1.414 2.858-4.695 6.35-3.28 3.492-6.536 6.35-7.234 6.35-.699 0 1.414-2.858 4.695-6.35zm78.253-51.259c1.834-.733 4.024-.643 4.868.2.844.845-.656 1.445-3.333 1.335-2.959-.122-3.56-.724-1.535-1.535zm255.128-2.564c2.471-.644 5.9-.602 7.62.094 1.719.695-.303 1.222-4.494 1.17-4.19-.051-5.597-.62-3.126-1.264zm-47.827-11.574-7.46-8.254 8.255 7.46c7.694 6.953 9.421 9.048 7.459 9.048-.437 0-4.151-3.714-8.254-8.254zm-57.177-48.254c-1.372-4.48-1.61-9.634-.389-8.413 1.854 1.854 3.148 9.048 1.628 9.048-.575 0-1.132-.285-1.24-.635zm142.092-6.349c-3.159-4.028-3.069-4.118.96-.959 4.23 3.318 5.575 5.404 3.485 5.404-.528 0-2.528-2-4.445-4.445zm-514.268-16.837c.32-2.182 1.292-4.678 2.159-5.544.867-.867 1.314.21.993 2.392-.32 2.183-1.291 4.678-2.158 5.545s-1.314-.21-.994-2.393zm493.95-3.48c-3.158-4.028-3.068-4.118.96-.96 4.23 3.319 5.575 5.404 3.485 5.404-.527 0-2.527-2-4.444-4.444zm-163.35-8.037a2.836 2.836 0 0 1 .918-3.893 2.836 2.836 0 0 1 3.892.92 2.836 2.836 0 0 1-.918 3.891 2.836 2.836 0 0 1-3.893-.918zm-266.008-19.73c1.834-.734 4.024-.643 4.868.2.844.844-.656 1.445-3.333 1.334-2.959-.122-3.56-.723-1.535-1.534zm230.076-11.357-4.838-5.472 6.984 4.495c7.202 4.634 8.564 6.45 4.838 6.45-1.18 0-4.323-2.463-6.984-5.473zm138.46-10.4c-1.371-4.48-1.609-9.634-.388-8.413 1.853 1.853 3.147 9.048 1.627 9.048-.574 0-1.132-.286-1.239-.635zm138.366-12.699-4.838-5.714 5.714 4.838c3.143 2.661 5.714 5.233 5.714 5.714 0 2.033-2.044.532-6.59-4.838zm-151.064 2.54c-1.372-4.48-1.61-9.634-.389-8.413 1.854 1.853 3.148 9.048 1.628 9.048-.575 0-1.133-.286-1.24-.635zm-397.508-15.238-4.838-5.714 5.715 4.838c5.37 4.546 6.87 6.59 4.838 6.59-.482 0-3.054-2.571-5.715-5.714zm381.328.852a2.836 2.836 0 0 1 .919-3.893 2.836 2.836 0 0 1 3.892.92 2.836 2.836 0 0 1-.919 3.892 2.836 2.836 0 0 1-3.892-.92zm-419.768-24.834c2.47-.644 5.9-.602 7.619.094 1.72.696-.302 1.223-4.493 1.17-4.19-.051-5.597-.62-3.126-1.264zm389.158-.78c-.863-1.397-.36-2.54 1.12-2.54 1.479 0 2.69 1.143 2.69 2.54s-.505 2.54-1.12 2.54c-.617 0-1.827-1.143-2.69-2.54zm-301.588-19.46c1.747-.704 4.604-.704 6.35 0 1.746.705.317 1.281-3.175 1.281s-4.92-.576-3.175-1.28zm40-23.714c2.529-2.794 5.169-5.08 5.867-5.08.699 0-.799 2.286-3.327 5.08-2.528 2.793-5.168 5.079-5.866 5.079-.699 0 .798-2.286 3.326-5.08zM48.254 827.142c0-.437 3.714-4.152 8.254-8.254l8.254-7.46-7.46 8.255c-6.952 7.693-9.048 9.42-9.048 7.459zm309.841-89.053c0-.528 2-2.528 4.445-4.445 4.028-3.159 4.118-3.069.959.96-3.318 4.23-5.404 5.575-5.404 3.485zm296.82-3.486c-3.16-4.028-3.07-4.118.958-.959 4.23 3.318 5.576 5.404 3.486 5.404-.528 0-2.528-2-4.445-4.445zm-243.963-2.37c1.834-.733 4.024-.643 4.868.2.844.845-.656 1.445-3.333 1.335-2.959-.122-3.56-.724-1.535-1.535zm70.953-2.486c1.746-.705 4.603-.705 6.349 0 1.746.704.317 1.28-3.175 1.28s-4.92-.576-3.174-1.28zm-105.443-28.795c0-4.889.523-6.889 1.162-4.444.638 2.444.638 6.444 0 8.889-.64 2.444-1.162.444-1.162-4.445zm277.506-35.555c2.528-2.794 5.168-5.08 5.867-5.08.698 0-.799 2.286-3.327 5.08-2.528 2.793-5.168 5.08-5.867 5.08-.698 0 .799-2.287 3.327-5.08zm255.238-16.508c3.281-3.492 6.537-6.35 7.235-6.35.698 0-1.414 2.858-4.695 6.35-3.28 3.492-6.536 6.35-7.235 6.35-.698 0 1.415-2.858 4.695-6.35zm-513.492-15.703c1.834-.734 4.024-.644 4.868.2.844.844-.656 1.444-3.333 1.334-2.959-.122-3.56-.724-1.535-1.534zm-45.562-12.869c-3.159-4.028-3.069-4.117.96-.958 2.444 1.917 4.444 3.917 4.444 4.444 0 2.09-2.086.745-5.404-3.486zm55.721-17.607c1.833-.734 4.024-.644 4.868.2.844.844-.656 1.444-3.334 1.334-2.958-.122-3.56-.724-1.534-1.535zm137.295-61.123c-3.159-4.028-3.07-4.118.959-.959 2.444 1.917 4.444 3.917 4.444 4.445 0 2.09-2.085.745-5.403-3.486zm-29.517-124.29c2.444-.639 6.444-.639 8.889 0 2.444.639.444 1.161-4.445 1.161s-6.889-.522-4.444-1.161zm-100.159-5.064c1.833-.733 4.024-.643 4.868.2.844.845-.656 1.445-3.334 1.335-2.958-.122-3.56-.724-1.534-1.535zm-337.101-9.905c.122-2.959.724-3.56 1.534-1.534.734 1.833.644 4.023-.2 4.867-.844.844-1.444-.656-1.334-3.333zm334.561-15.491c1.834-.734 4.024-.644 4.868.2.844.844-.656 1.444-3.333 1.334-2.959-.122-3.56-.724-1.535-1.535zm250.049-33.041c2.47-.644 5.9-.602 7.619.094 1.72.695-.303 1.222-4.493 1.17-4.19-.051-5.597-.62-3.126-1.264zm-295.61-63.637c-3.16-4.028-3.07-4.118.958-.96 2.445 1.918 4.445 3.918 4.445 4.445 0 2.09-2.086.745-5.404-3.485zm109.53-1.905c3.28-3.492 6.536-6.35 7.234-6.35.699 0-1.414 2.858-4.695 6.35-3.28 3.492-6.536 6.35-7.234 6.35-.699 0 1.414-2.858 4.695-6.35zm-35.355-20.53c.121-2.958.723-3.56 1.534-1.534.734 1.834.643 4.024-.2 4.868-.844.844-1.445-.656-1.334-3.333zm-9.68-2.117c.325-2.678 2.304-5.336 4.4-5.907 2.45-.668 2.812-.29 1.015 1.059-1.536 1.154-3.516 3.812-4.4 5.908-1.128 2.676-1.43 2.361-1.015-1.06zm60.768-12.909c.052-4.19.62-5.597 1.265-3.126.644 2.471.601 5.9-.094 7.62-.696 1.719-1.223-.303-1.171-4.494zm113.314-5.544c1.834-.734 4.024-.643 4.868.2.844.844-.656 1.445-3.333 1.334-2.959-.121-3.56-.723-1.535-1.534zm-201.533-11.132c-.92-1.49-1.13-3.254-.463-3.92.665-.665 1.887.554 2.714 2.71 1.717 4.474.254 5.261-2.25 1.21zm299.546-13.165-4.838-5.714 5.714 4.838c5.37 4.547 6.87 6.59 4.838 6.59-.482 0-3.053-2.571-5.714-5.714zm-313.41-.324c0-.527 2-2.527 4.445-4.444 4.028-3.16 4.118-3.07.959.959-3.318 4.23-5.404 5.575-5.404 3.485zm-25.396-2.54c0-.527 2-2.527 4.444-4.444 4.028-3.159 4.118-3.07.959.959-3.318 4.23-5.403 5.576-5.403 3.486zm478.61-27.612-10.039-10.794 10.794 10.04c5.936 5.521 10.793 10.378 10.793 10.793 0 1.922-2.211 0-11.548-10.039zm-325.546-44.3c2.47-.644 5.9-.601 7.619.094 1.72.696-.302 1.223-4.493 1.171-4.19-.052-5.597-.62-3.126-1.265zm22.844-30.538c3.86-.584 9.574-.569 12.698.034 3.124.603-.035 1.08-7.02 1.062-6.983-.02-9.539-.513-5.678-1.096zm-51.94-50.706c1.833-.734 4.024-.644 4.868.2.843.844-.657 1.444-3.334 1.334-2.958-.122-3.56-.724-1.534-1.534zm43.174 0c1.834-.734 4.024-.644 4.868.2.844.844-.656 1.444-3.333 1.334-2.959-.122-3.56-.724-1.535-1.534z" transform="matrix(.93902 0 0 .8221 .94 -9.237)"/><path style="fill:#b0cbe0;stroke-width:2.53968" d="M395.867 1280.635c-3.16-4.028-3.07-4.118.958-.959 4.23 3.318 5.576 5.403 3.486 5.403-.527 0-2.527-2-4.444-4.444zm-47.247-48.11c2.47-.643 5.9-.6 7.619.095 1.72.695-.302 1.222-4.493 1.17-4.19-.052-5.597-.62-3.126-1.264zm190.288-12.208c.052-4.19.62-5.597 1.265-3.126.644 2.471.601 5.9-.095 7.62-.695 1.719-1.222-.303-1.17-4.494zm-76.285-59.682c0-3.492.577-4.92 1.281-3.175.705 1.746.705 4.603 0 6.35-.704 1.745-1.28.317-1.28-3.175zm-129.043-7.19c2.315-2.558 3.35-5.599 2.299-6.757-1.051-1.158-.408-1.237 1.43-.177 2.66 1.537 2.45 2.912-1.03 6.757-2.402 2.655-4.94 4.827-5.638 4.827-.698 0 .624-2.093 2.94-4.65zm63.294-45.364c2.47-.644 5.9-.601 7.619.094 1.72.696-.303 1.223-4.493 1.171-4.19-.052-5.597-.62-3.126-1.265zm367.378-15.383-6.157-6.984 6.984 6.157c6.528 5.755 8.15 7.811 6.157 7.811-.455 0-3.597-3.142-6.984-6.984zm-495.046-19.682c3.281-3.492 6.537-6.35 7.235-6.35.698 0-1.414 2.858-4.695 6.35-3.28 3.492-6.536 6.35-7.235 6.35-.698 0 1.415-2.858 4.695-6.35zm293.595-21.164c-.72-1.164.306-2.117 2.278-2.117 1.973 0 2.998.953 2.278 2.117-.719 1.164-1.744 2.116-2.278 2.116-.533 0-1.558-.952-2.278-2.116zm281.484-18.836-7.46-8.254 8.254 7.46c7.694 6.952 9.422 9.048 7.46 9.048-.437 0-4.152-3.714-8.254-8.254zm-669.047-.324c0-.528 2-2.528 4.445-4.445 4.028-3.159 4.117-3.069.958.96-3.317 4.23-5.403 5.575-5.403 3.485zm463.754-44.332c-.72-1.164.306-2.117 2.278-2.117s2.997.953 2.278 2.117c-.72 1.164-1.745 2.116-2.278 2.116-.534 0-1.559-.952-2.278-2.116zm-382.96-4.698c1.833-.734 4.024-.643 4.867.2.844.844-.656 1.444-3.333 1.334-2.958-.122-3.56-.723-1.534-1.534zm86.349-20.318c1.833-.733 4.024-.643 4.868.2.844.845-.656 1.445-3.334 1.335-2.958-.122-3.56-.724-1.534-1.535zm-62.615-46.519c0-3.492.577-4.92 1.281-3.174.705 1.746.705 4.603 0 6.349-.704 1.746-1.28.317-1.28-3.175zm-167.337-6.839c2.471-.644 5.9-.602 7.62.094 1.719.696-.303 1.223-4.493 1.171-4.19-.052-5.598-.62-3.127-1.265zm-68.76-60.462c.052-4.19.622-5.597 1.266-3.126.643 2.47.601 5.9-.095 7.619-.695 1.719-1.222-.303-1.17-4.493zm382.998-4.769c0-.527 2-2.527 4.444-4.444 4.028-3.16 4.118-3.07.959.959-3.318 4.23-5.403 5.576-5.403 3.485zM308.57 810.16c-.863-1.397-.359-2.54 1.12-2.54 1.48 0 2.69 1.143 2.69 2.54s-.504 2.54-1.12 2.54c-.616 0-1.826-1.143-2.69-2.54zm110-77.926c1.834-.733 4.024-.643 4.868.2.844.845-.656 1.445-3.333 1.335-2.959-.122-3.56-.724-1.535-1.535zm74.762-2.555c2.445-.639 6.445-.639 8.89 0 2.444.639.444 1.161-4.445 1.161-4.89 0-6.89-.522-4.445-1.161zm-135.562-68.726c-3.159-4.028-3.069-4.118.96-.959 2.444 1.918 4.444 3.918 4.444 4.445 0 2.09-2.086.745-5.404-3.486zm23.816-27.782c2.445-.639 6.445-.639 8.89 0 2.444.639.444 1.161-4.445 1.161-4.89 0-6.89-.522-4.445-1.161zm8.89-17.71c1.745-.704 4.602-.704 6.348 0 1.746.705.318 1.282-3.174 1.282s-4.92-.577-3.175-1.281zm-2.54-12.808c3.142-.605 8.285-.605 11.428 0 3.143.605.572 1.1-5.714 1.1-6.286 0-8.857-.495-5.714-1.1zm127.142-15.18c1.834-.734 4.024-.644 4.868.2.844.844-.656 1.444-3.333 1.334-2.959-.122-3.56-.724-1.535-1.535zm25.397-2.54c1.834-.734 4.024-.644 4.868.2.844.844-.656 1.444-3.333 1.334-2.959-.122-3.56-.724-1.535-1.534zm.152-81.44c-3.159-4.028-3.069-4.118.96-.959 2.444 1.917 4.444 3.917 4.444 4.445 0 2.09-2.086.745-5.404-3.486zm-27.412-2.116c.122-2.959.724-3.56 1.535-1.535.733 1.834.643 4.024-.2 4.868-.845.844-1.445-.656-1.335-3.333zm123.768 2.286c1.833-.734 4.024-.643 4.868.2.844.844-.656 1.444-3.334 1.334-2.958-.122-3.56-.723-1.534-1.534zm10.159 0c1.833-.734 4.024-.643 4.867.2.844.844-.656 1.444-3.333 1.334-2.958-.122-3.56-.723-1.534-1.534zm58.889-29.7c0-.528 2-2.528 4.444-4.445 4.028-3.159 4.118-3.069.96.96-3.319 4.23-5.404 5.575-5.404 3.485zM591.27 463.027c1.833-.734 4.024-.643 4.868.2.843.844-.657 1.445-3.334 1.334-2.958-.122-3.56-.723-1.534-1.534zm-170.159-7.619c1.833-.734 4.024-.643 4.868.2.844.844-.656 1.445-3.333 1.334-2.96-.122-3.56-.723-1.535-1.534zm-344.72-20.064c.122-2.959.724-3.56 1.534-1.534.734 1.833.644 4.023-.2 4.867-.844.844-1.444-.656-1.334-3.333zm927.185-6.138c0-3.492.576-4.92 1.28-3.174.705 1.746.705 4.603 0 6.349-.704 1.746-1.28.317-1.28-3.175zm-63.106-13.968c.015-8.38.488-11.503 1.053-6.939.565 4.565.554 11.422-.026 15.239-.58 3.816-1.042.081-1.027-8.3zm63.106-13.968c0-3.492.576-4.92 1.28-3.175.705 1.746.705 4.603 0 6.35-.704 1.745-1.28.317-1.28-3.175zM76.39 394.709c.122-2.959.724-3.56 1.534-1.534.734 1.833.644 4.023-.2 4.867-.844.844-1.444-.656-1.334-3.333zm575.831-40.888c1.834-.734 4.024-.644 4.868.2.844.844-.656 1.444-3.333 1.334-2.959-.122-3.56-.724-1.535-1.534zm-5.08-43.175c1.834-.734 4.025-.643 4.869.2.844.844-.657 1.445-3.334 1.334-2.958-.122-3.56-.723-1.534-1.534zm41.795-73.676c2.471-.644 5.9-.601 7.62.094 1.719.696-.303 1.223-4.494 1.171-4.19-.052-5.597-.62-3.126-1.265zm-214.34-20.462c-3.16-4.028-3.07-4.118.959-.959 2.444 1.917 4.444 3.917 4.444 4.445 0 2.09-2.086.744-5.403-3.486zm380.952-10.159c-3.159-4.028-3.07-4.118.959-.959 2.444 1.917 4.444 3.917 4.444 4.445 0 2.09-2.085.745-5.403-3.486zm-685.39-9.524c4.738-4.888 9.187-8.888 9.885-8.888.698 0-2.607 4-7.346 8.888-4.738 4.89-9.186 8.89-9.885 8.89-.698 0 2.607-4 7.346-8.89zm719.88-34.92L880 151.11l10.794 10.04c5.936 5.52 10.793 10.378 10.793 10.793 0 1.921-2.211-.001-11.548-10.04zm-763.055-.635c3.28-3.492 6.536-6.35 7.235-6.35.698 0-1.415 2.858-4.695 6.35-3.28 3.492-6.536 6.35-7.235 6.35-.698 0 1.414-2.858 4.695-6.35zm349.841-94.38c1.746-.705 4.604-.705 6.35 0 1.746.704.317 1.28-3.175 1.28s-4.92-.576-3.175-1.28zm60.953 0c1.746-.705 4.603-.705 6.349 0 1.746.704.317 1.28-3.175 1.28s-4.92-.576-3.174-1.28z" transform="matrix(.93902 0 0 .8221 .94 -9.237)"/><path style="fill:#90b4d3;stroke-width:2.53968" d="M386.433 1259.682c0-3.492.576-4.92 1.28-3.174.705 1.746.705 4.603 0 6.35-.704 1.745-1.28.317-1.28-3.176zm273.25-29.618c1.746-.705 4.603-.705 6.349 0 1.746.705.317 1.281-3.175 1.281s-4.92-.576-3.174-1.281zm-133.768-12.498c.122-2.959.723-3.56 1.534-1.534.734 1.833.644 4.024-.2 4.867-.844.844-1.444-.656-1.334-3.333zm185.397-22.857c.122-2.959.723-3.56 1.534-1.534.734 1.833.643 4.023-.2 4.867-.844.844-1.445-.656-1.334-3.333zm-230.629-12.977c2.471-.644 5.9-.602 7.62.094 1.719.696-.303 1.223-4.493 1.17-4.19-.051-5.598-.62-3.127-1.264zm-205.714-12.698c2.471-.644 5.9-.602 7.619.094 1.72.695-.302 1.222-4.493 1.17-4.19-.052-5.597-.62-3.126-1.264zm542.174-63.414c1.746-.705 4.603-.705 6.35 0 1.745.704.317 1.28-3.176 1.28-3.492 0-4.92-.576-3.174-1.28zm-570.794-4.357c0-.527 2-2.527 4.445-4.444 4.028-3.16 4.118-3.07.959.959-3.318 4.23-5.404 5.576-5.404 3.485zm619.883-33.538c.122-2.959.724-3.56 1.535-1.534.733 1.833.643 4.023-.2 4.867-.845.844-1.445-.656-1.335-3.333zm-545.549-23.136c2.471-.644 5.9-.601 7.62.094 1.719.696-.303 1.223-4.493 1.171-4.19-.052-5.598-.62-3.127-1.265zm-28.419-14.96c.122-2.958.724-3.56 1.534-1.534.734 1.834.644 4.024-.2 4.868-.844.844-1.444-.656-1.334-3.333zm571.723-83.597c.052-4.19.621-5.598 1.265-3.127.644 2.472.602 5.9-.094 7.62-.696 1.719-1.223-.303-1.17-4.493zm34.584-36.02c1.834-.734 4.024-.644 4.868.2.844.843-.656 1.444-3.333 1.333-2.959-.121-3.56-.723-1.535-1.534zM60.628 886.983c-3.159-4.028-3.069-4.118.96-.959 2.444 1.917 4.444 3.917 4.444 4.445 0 2.09-2.086.745-5.404-3.486zm912.471-38.73c0-3.492.577-4.92 1.281-3.175.705 1.746.705 4.604 0 6.35-.704 1.746-1.28.317-1.28-3.175zm-478.337-16.973c1.833-.734 4.024-.643 4.868.2.844.844-.656 1.445-3.334 1.334-2.958-.122-3.56-.723-1.534-1.534zm16.35-101.671c3.84-.582 10.126-.582 13.967 0 3.842.581.699 1.058-6.984 1.058-7.682 0-10.825-.477-6.984-1.058zM640.4 703.492c0-3.492.576-4.92 1.281-3.175.705 1.746.705 4.604 0 6.35-.705 1.746-1.281.317-1.281-3.175zm-493.734-29.618c1.746-.705 4.603-.705 6.349 0 1.746.704.317 1.28-3.175 1.28s-4.92-.576-3.174-1.28zm236.349-58.466c1.833-.734 4.024-.643 4.868.2.844.844-.656 1.445-3.334 1.334-2.958-.122-3.56-.723-1.534-1.534zm17.778 0c1.833-.734 4.023-.643 4.867.2.844.844-.656 1.445-3.333 1.334-2.959-.122-3.56-.723-1.534-1.534zm397.067-71.916c0-3.492.577-4.92 1.281-3.175.705 1.746.705 4.604 0 6.35-.704 1.746-1.28.317-1.28-3.175zm-35.555-5.08c0-3.491.576-4.92 1.28-3.174.705 1.746.705 4.603 0 6.35-.704 1.745-1.28.317-1.28-3.175zm-195.957-61.91c0-.528 2-2.528 4.445-4.445 4.028-3.159 4.118-3.07.959.959-3.318 4.23-5.404 5.576-5.404 3.485zM15.44 437.883c.121-2.959.723-3.56 1.534-1.535.734 1.834.643 4.024-.2 4.868-.844.844-1.445-.656-1.334-3.333zm924.444-5.08c.122-2.958.724-3.56 1.534-1.534.734 1.833.644 4.024-.2 4.868-.844.843-1.444-.657-1.334-3.334zm63.932-17.566c.028-5.587.548-7.574 1.156-4.415.607 3.16.584 7.73-.051 10.159-.636 2.428-1.133-.157-1.105-5.744zm-608.26-.412c1.747-.705 4.604-.705 6.35 0 1.746.704.317 1.28-3.175 1.28s-4.92-.576-3.174-1.28zM15.828 403.81c0-4.89.523-6.89 1.162-4.445.639 2.445.639 6.445 0 8.889-.639 2.444-1.162.444-1.162-4.444zm924.056-6.561c.122-2.959.724-3.56 1.534-1.535.734 1.834.644 4.024-.2 4.868-.844.844-1.444-.656-1.334-3.333zm-523.98-86.664c3.159-.608 7.73-.585 10.158.051 2.429.636-.156 1.133-5.744 1.105-5.587-.029-7.574-.549-4.414-1.156zm41.44-42.86c.122-2.959.724-3.56 1.535-1.535.733 1.834.643 4.024-.2 4.868-.845.844-1.445-.656-1.335-3.333zm-53.533-58.201c3.28-3.492 6.536-6.35 7.234-6.35.699 0-1.414 2.858-4.695 6.35-3.28 3.492-6.536 6.349-7.234 6.349-.699 0 1.414-2.857 4.695-6.35zm-114.086-15.45c.122-2.959.724-3.56 1.535-1.534.733 1.833.643 4.023-.2 4.867-.845.844-1.445-.656-1.335-3.333zm-109.407-7.096c0-.528 2-2.528 4.445-4.445 4.028-3.159 4.118-3.069.959.96-3.318 4.23-5.404 5.575-5.404 3.485zm353.651-51.586c2.445-.639 6.445-.639 8.89 0 2.444.639.444 1.162-4.445 1.162-4.89 0-6.89-.523-4.445-1.162zm-64.603-119.35c1.833-.733 4.024-.643 4.868.201.844.844-.656 1.445-3.334 1.334-2.958-.122-3.56-.723-1.534-1.534z" transform="matrix(.93902 0 0 .8221 .94 -9.237)"/><path style="fill:#70a4cf;stroke-width:2.53968" d="m611.927 1222.222-8.752-9.524 9.523 8.753c8.865 8.146 10.692 10.295 8.753 10.295-.425 0-4.71-4.286-9.524-9.524zm-86.537-33.016c-3.159-4.028-3.069-4.118.96-.959 2.444 1.917 4.444 3.917 4.444 4.445 0 2.09-2.086.745-5.404-3.486zm152.381-40.635c-3.159-4.028-3.069-4.118.96-.959 2.444 1.918 4.444 3.918 4.444 4.445 0 2.09-2.086.745-5.404-3.486zm-204.362-41.904-4.838-5.715 5.715 4.838c5.37 4.547 6.87 6.59 4.838 6.59-.482 0-3.054-2.57-5.715-5.713zm-102.94-41.905c-3.158-4.028-3.069-4.118.96-.959 2.444 1.917 4.444 3.917 4.444 4.444 0 2.09-2.086.745-5.403-3.485zm179.634-23.069c-.72-1.164.306-2.116 2.278-2.116s2.997.952 2.278 2.116c-.72 1.164-1.745 2.116-2.278 2.116-.534 0-1.559-.952-2.278-2.116zm-255.824-37.884c-3.159-4.028-3.069-4.117.96-.958 2.444 1.917 4.444 3.917 4.444 4.444 0 2.09-2.086.745-5.404-3.486zm332.699-25.396c-3.16-4.028-3.07-4.118.959-.96 2.444 1.918 4.444 3.918 4.444 4.445 0 2.09-2.086.745-5.403-3.485zm-246.026-29.53c0-.528 2-2.528 4.445-4.445 4.028-3.16 4.118-3.07.959.959-3.318 4.23-5.404 5.576-5.404 3.485zm-101.91-6.026c-3.16-4.028-3.07-4.118.958-.959 2.444 1.917 4.444 3.917 4.444 4.445 0 2.09-2.085.745-5.403-3.486zm157.783-83.174c3.281-3.493 6.537-6.35 7.235-6.35.698 0-1.414 2.857-4.695 6.35-3.28 3.492-6.536 6.349-7.235 6.349-.698 0 1.415-2.857 4.695-6.35zm-46.038-406.985c-3.159-4.028-3.07-4.118.959-.958 2.444 1.917 4.444 3.917 4.444 4.444 0 2.09-2.085.745-5.403-3.486z" transform="matrix(.93902 0 0 .8221 .94 -9.237)"/><path style="fill:#8a99a5;stroke-width:2.53968" d="M496.508 1264.762c2.528-2.794 5.168-5.08 5.867-5.08.698 0-.8 2.286-3.327 5.08-2.529 2.794-5.169 5.08-5.867 5.08-.698 0 .799-2.287 3.327-5.08zm-100.318-31.435c0-.527 2-2.527 4.445-4.445 4.028-3.159 4.118-3.069.959.96-3.318 4.23-5.404 5.575-5.404 3.485zm35.556-43.175c0-.527 2-2.527 4.444-4.444 4.029-3.16 4.118-3.07.96.959-3.318 4.23-5.404 5.576-5.404 3.485zm18.179-34.597c0-3.492.576-4.92 1.28-3.174.705 1.746.705 4.603 0 6.35-.704 1.745-1.28.317-1.28-3.176zm-210.166-3.174-4.838-5.714 5.714 4.838c3.143 2.66 5.714 5.232 5.714 5.714 0 2.032-2.044.532-6.59-4.838zm100.558-10.319c0-.437 3.715-4.15 8.254-8.254l8.254-7.459-7.459 8.254c-6.953 7.694-9.049 9.421-9.049 7.46zm62.858-21.315c3.142-.605 8.285-.605 11.428 0 3.143.606.572 1.101-5.714 1.101-6.286 0-8.857-.495-5.714-1.1zm-34.426-27.414c.052-4.19.621-5.597 1.265-3.126.644 2.471.602 5.9-.094 7.62-.696 1.718-1.223-.303-1.171-4.494zm-107.162-4.768c0-.527 2-2.527 4.445-4.445 4.028-3.159 4.118-3.069.959.96-3.318 4.23-5.404 5.575-5.404 3.485zm98.724-16.184c-3.16-4.028-3.07-4.118.959-.959 2.444 1.917 4.444 3.917 4.444 4.444 0 2.09-2.085.745-5.403-3.485zm-174.914-47.308c0-.528 2-2.528 4.444-4.445 4.028-3.159 4.118-3.069.96.96-3.319 4.23-5.404 5.575-5.404 3.485zM830 996.36c1.833-.733 4.024-.643 4.868.2.844.845-.656 1.445-3.334 1.335-2.958-.122-3.56-.724-1.534-1.535zm-585.556-2.555c2.445-.639 6.445-.639 8.89 0 2.444.639.444 1.161-4.445 1.161s-6.889-.522-4.445-1.161zm85.239-40.62c1.833-.733 4.023-.643 4.867.201.844.844-.656 1.444-3.333 1.334-2.959-.122-3.56-.724-1.534-1.534zM756.5 942.858c-3.159-4.028-3.069-4.118.96-.959 2.444 1.917 4.444 3.917 4.444 4.445 0 2.09-2.086.745-5.404-3.486zm-12.698-10.159c-3.159-4.028-3.07-4.118.959-.958 4.23 3.317 5.576 5.403 3.485 5.403-.527 0-2.527-2-4.444-4.445zm109.338-10.158-6.157-6.984 6.984 6.157c6.528 5.754 8.15 7.81 6.157 7.81-.455 0-3.598-3.142-6.984-6.983zm-22.989-20.318c-3.159-4.028-3.069-4.118.96-.959 4.23 3.318 5.575 5.404 3.485 5.404-.528 0-2.528-2-4.445-4.445zm122.229-11.752c0-.528 2-2.528 4.444-4.445 4.028-3.159 4.118-3.069.96.96-3.318 4.23-5.404 5.575-5.404 3.485zm-152.705-13.645c-3.159-4.028-3.07-4.118.959-.958 2.444 1.917 4.444 3.917 4.444 4.444 0 2.09-2.085.745-5.403-3.486zm-12.698-10.158c-3.16-4.028-3.07-4.118.959-.96 4.23 3.319 5.575 5.404 3.485 5.404-.527 0-2.527-2-4.444-4.444zm-297.32-38.087c14.393-.453 37.25-.451 50.795.005 13.544.456 1.77.827-26.167.825-27.937-.002-39.019-.375-24.627-.829zm471.37-8.897-4.838-5.715 5.715 4.838c3.143 2.661 5.714 5.233 5.714 5.715 0 2.032-2.044.532-6.59-4.838zm-19.13-16.508c-3.159-4.028-3.069-4.118.96-.96 4.23 3.318 5.575 5.404 3.485 5.404-.528 0-2.528-2-4.445-4.444zm-215.873-10.16c-3.159-4.027-3.069-4.117.96-.958 4.23 3.318 5.575 5.403 3.485 5.403-.528 0-2.528-2-4.445-4.444zm200.635-2.539c-3.159-4.028-3.069-4.118.96-.959 4.23 3.318 5.575 5.404 3.485 5.404-.528 0-2.528-2-4.445-4.445zm-215.873-10.159c-3.159-4.028-3.07-4.117.959-.958 4.23 3.317 5.576 5.403 3.486 5.403-.528 0-2.528-2-4.445-4.445zM698.09 770.16c-3.16-4.028-3.07-4.118.959-.96 4.23 3.319 5.575 5.404 3.485 5.404-.527 0-2.527-2-4.444-4.444zM682.85 757.46c-3.16-4.028-3.07-4.118.959-.959 4.23 3.318 5.575 5.404 3.485 5.404-.527 0-2.527-2-4.444-4.445zm203.174 0c-3.159-4.028-3.069-4.118.96-.959 4.23 3.318 5.575 5.404 3.485 5.404-.528 0-2.528-2-4.445-4.445zm-524.12-10.793c2.528-2.794 5.168-5.08 5.866-5.08.699 0-.798 2.286-3.327 5.08-2.528 2.793-5.168 5.079-5.866 5.079-.699 0 .799-2.286 3.327-5.08zm511.422.635c-3.16-4.029-3.07-4.118.959-.96 4.23 3.318 5.576 5.404 3.485 5.404-.527 0-2.527-2-4.444-4.444zm-208.254-5.08c-3.16-4.028-3.07-4.118.959-.959 4.23 3.318 5.576 5.404 3.485 5.404-.527 0-2.527-2-4.444-4.445zm-273.279-7.474c2.471-.644 5.9-.602 7.62.094 1.719.696-.303 1.223-4.493 1.17-4.19-.05-5.598-.62-3.127-1.264zm44.396-2.617c4.54-.563 11.969-.563 16.508 0 4.54.563.826 1.024-8.254 1.024-9.079 0-12.793-.46-8.254-1.024zm113.016-2.59c10.826-.476 28.54-.476 39.365 0 10.826.476 1.969.865-19.682.865-21.65 0-30.508-.39-19.683-.865zm286.026-12.716c-3.16-4.028-3.07-4.118.958-.958 4.23 3.317 5.576 5.403 3.486 5.403-.527 0-2.527-2-4.444-4.445zm-12.699-10.158c-3.159-4.028-3.069-4.118.96-.96 4.23 3.319 5.575 5.404 3.485 5.404-.528 0-2.528-2-4.445-4.444zm-12.698-10.16c-3.16-4.027-3.07-4.117.959-.958 4.23 3.318 5.575 5.403 3.485 5.403-.527 0-2.527-2-4.444-4.444zm33.54-45.29c.122-2.959.724-3.56 1.534-1.534.734 1.833.644 4.023-.2 4.867-.844.844-1.444-.656-1.334-3.333zm-132.899-10.47c3.143-.605 8.286-.605 11.429 0 3.143.606.571 1.101-5.715 1.101-6.285 0-8.857-.495-5.714-1.1zm203.81.834c0-.528 2-2.528 4.444-4.445 4.028-3.159 4.118-3.069.959.96-3.318 4.23-5.403 5.575-5.403 3.485zm-55.873-20.318c0-.527 2-2.527 4.444-4.444 4.028-3.16 4.118-3.07.959.959-3.318 4.23-5.403 5.576-5.403 3.485zm-706.356-6.025c-3.159-4.028-3.07-4.118.959-.959 2.444 1.917 4.444 3.917 4.444 4.445 0 2.09-2.085.745-5.403-3.486zm848.778-167.196c.122-2.958.724-3.56 1.535-1.534.733 1.833.643 4.024-.2 4.868-.844.844-1.445-.656-1.334-3.334zm-924.444-2.54c.122-2.958.724-3.56 1.534-1.534.734 1.834.644 4.024-.2 4.868-.844.844-1.444-.656-1.334-3.333zm863.492-5.079c.122-2.958.724-3.56 1.534-1.534.734 1.833.644 4.024-.2 4.868-.844.844-1.444-.656-1.334-3.334zM15.964 422.857c.02-6.984.513-9.54 1.097-5.68.583 3.861.568 9.576-.035 12.7-.603 3.123-1.08-.036-1.062-7.02zm923.92-33.227c.121-2.959.723-3.56 1.533-1.535.734 1.834.644 4.024-.2 4.868-.844.844-1.444-.656-1.334-3.333zM76.39 384.55c.122-2.958.724-3.56 1.534-1.534.734 1.833.644 4.024-.2 4.868-.844.844-1.444-.657-1.334-3.334zm924.444-2.54c.122-2.958.724-3.56 1.535-1.534.733 1.834.643 4.024-.2 4.868-.844.844-1.445-.656-1.334-3.333zm-982.857-2.54c.122-2.958.724-3.56 1.535-1.533.733 1.833.643 4.023-.2 4.867-.845.844-1.445-.656-1.335-3.333zm135.673-166.137c2.528-2.793 5.168-5.079 5.866-5.079.699 0-.798 2.286-3.327 5.08-2.528 2.793-5.168 5.079-5.866 5.079-.699 0 .799-2.286 3.327-5.08zm714.596-70.476c-3.159-4.028-3.069-4.118.96-.959 2.444 1.917 4.444 3.917 4.444 4.445 0 2.09-2.086.745-5.404-3.486zm-710.787-6.673c0-.527 2-2.527 4.445-4.444 4.028-3.16 4.118-3.07.959.958-3.318 4.23-5.404 5.576-5.404 3.486zm304.127-69.295c1.746-.704 4.603-.704 6.35 0 1.746.705.317 1.281-3.175 1.281s-4.92-.576-3.175-1.28zm91.588-.052c1.833-.734 4.023-.644 4.867.2.844.844-.656 1.444-3.333 1.334-2.959-.122-3.56-.724-1.534-1.534zm20.317-48.254c1.833-.734 4.024-.644 4.868.2.844.844-.656 1.444-3.334 1.334-2.958-.122-3.56-.724-1.534-1.534zm-95.397-2.556c2.445-.639 6.445-.639 8.89 0 2.444.639.444 1.162-4.445 1.162-4.89 0-6.89-.523-4.445-1.162zm59.683-.042c3.143-.605 8.285-.605 11.428 0 3.143.606.572 1.101-5.714 1.101-6.286 0-8.857-.495-5.714-1.1z" transform="matrix(.93902 0 0 .8221 .94 -9.237)"/><path style="fill:#5694c7;stroke-width:2.53968" d="M566.02 1288.822c-6.468-2.045-17.325-7.438-24.127-11.984-15.309-10.231-16.91-17.709-7.494-35.009 7.91-14.534 8.275-25.24 1.346-39.553-8.678-17.928-31.634-31.482-53.317-31.482-14.166 0-17.666-2.083-17.666-10.512 0-17.363-15.046-37.112-34.998-45.938-6.01-2.658-18.023-5.616-26.695-6.573l-15.767-1.74-1.319-11.45c-1.745-15.157-10.278-28.404-24.262-37.667-13.088-8.669-33.598-14.348-44.177-12.232-8.33 1.666-10.233-1.243-10.26-15.683-.02-10.871-5.897-20.74-18.58-31.195-19.427-16.013-40.755-19.01-68.058-9.56-13.132 4.544-17.05 4.941-25.063 2.54-25.758-7.717-40.454-37.237-30.502-61.265 2.015-4.864 19.653-21.075 49.189-45.21 55.745-45.55 93.371-74.657 94.74-73.288.557.557-8.291 19.847-19.664 42.867-23.885 48.347-26.323 58.887-17.724 76.65 17.743 36.652 81.195 46.51 110.94 17.237 5.769-5.677 17.058-23.524 27.37-43.268 26.293-50.342 47.882-67.937 89.116-72.624 42.098-4.787 105.709 18.127 171.785 61.878 48.789 32.305 166.962 130.02 185.304 153.225 15.858 20.062 13.562 29.978-11.252 48.585-10.131 7.596-14.383 9.19-24.504 9.19-21.549 0-39.15-11.212-128.605-81.926-54.796-43.317-67.014-52.126-67.014-48.315 0 1.276 24.271 22.245 53.937 46.598 29.665 24.354 62.778 52.03 73.585 61.504 31.947 28.007 41.449 46.232 31.789 60.975-5.061 7.724-26.509 21.589-36.483 23.583-18.76 3.752-46.31-12.164-112.67-65.09-59.243-47.25-84.388-66.167-85.92-64.636-1.667 1.668 1.957 4.83 68.143 59.469 77.22 63.748 93.936 81.008 93.959 97.02.023 15.205-27.563 35.197-48.622 35.24-21.484.043-33.974-8.08-129.48-84.204-33.01-26.31-60.724-47.836-61.588-47.836-7.796 0 6.914 14.074 56.207 53.777 68.304 55.013 98.86 83.38 101.83 94.533 3.996 15.007-4.173 31.59-19.387 39.352-13.584 6.93-30.073 8.434-44.043 4.017zM89.966 904.139c-33.432-13.269-51.048-43.254-41.501-70.64 3.148-9.029 41.83-43.09 119.153-104.919 105.284-84.186 116.898-91.158 145.744-87.491 47.016 5.977 77.025 52.271 54.45 83.999-9.469 13.31-141.227 122.496-185.659 153.854-40.891 28.86-65.805 35.67-92.187 25.197zM363.74 627c-21.54-10.661-20.87-8.353-67.961-234.62-13.373-64.253-27.67-132.824-31.772-152.38-4.103-19.556-7.466-40.127-7.475-45.714-.038-22.546 14.741-36.474 44.228-41.684 56.319-9.95 240.571-33.616 252.36-32.413 11.544 1.177 23.192 7.006 82.54 41.305 38.006 21.964 74.985 43.667 82.177 48.23l13.075 8.296 5.207 22.419c2.864 12.33 6.517 30.418 8.119 40.196 1.601 9.778 5.092 26.554 7.757 37.281 11.689 47.043 43.289 200.533 44.638 216.814 1.647 19.888-2.075 30.95-12.773 37.96-11.495 7.532-47.745 14.061-175.607 31.628C376.976 636.093 381.3 635.692 363.741 627zm72.415-14.816c19.225-2.727 53.24-7.302 75.59-10.165 81.732-10.472 250.43-35.637 254.885-38.02 13.697-7.33 14.311-21.534 3.14-72.57-18.081-82.608-31.101-143.21-42.559-198.096-15.92-76.257-8.75-68.201-111.437-125.229-29.338-16.293-56.227-29.466-63.492-31.103-10.999-2.478-22.769-1.374-92.6 8.69-44 6.341-98.079 13.927-120.174 16.858-57.678 7.65-62.684 10.19-62.684 31.808 0 7.29 7.3 47.398 16.22 89.13 8.921 41.733 21.61 101.592 28.197 133.02 6.587 31.43 16.313 77.144 21.614 101.588 5.301 24.445 11.056 53.303 12.788 64.13 5.732 35.829 14.951 39.26 80.512 29.96zm-58.242-13.454c-4.355-3.448-5.13-6.786-40.278-173.333-32.382-153.44-45.781-222.271-44.987-231.094.481-5.347 2.682-8.554 7.424-10.815 3.707-1.767 37.992-7.168 76.19-12.002 38.198-4.833 80.88-11.269 94.848-14.301 13.968-3.033 34.216-5.64 44.995-5.794 26.72-.382 28.424 1.538 37.616 42.348 10.974 48.72 15.804 55.105 41.764 55.214 8.42.035 33.664-2.455 56.099-5.535 22.435-3.08 42.615-4.899 44.845-4.043 4.361 1.674 14.15 40.058 20.885 81.895 5.228 32.481 14.828 77.83 37.095 175.238 4.15 18.159 7.535 36.704 7.52 41.211-.043 13.68-8.428 16.677-66.057 23.61-13.27 1.597-51.556 7.285-85.08 12.642-33.523 5.356-73.523 11.042-88.888 12.636-15.365 1.594-46.794 5.677-69.842 9.074-46.757 6.892-68.183 7.773-74.149 3.05zm188.871-55.957c4.717-4.371 7.013-10.374 9.326-24.381 3.417-20.691 8.836-33.313 14.303-33.313 1.99 0 8.532 3.305 14.538 7.344 19.141 12.872 40.576 16.174 60.153 9.267 19.777-6.977 48.546-29.143 48.546-37.403 0-9.587-12.453-5.58-34.648 11.147-23.391 17.63-32.689 17.307-60.9-2.114-25.966-17.875-43.798-12.866-58.44 16.416-4.375 8.75-8.612 16.568-9.416 17.372-.804.803-5.026-1.54-9.383-5.205-9.777-8.228-19.069-10.79-24.072-6.638-6.58 5.462-4.229 10.87 14.067 32.354 19.576 22.987 25.003 25.277 35.926 15.154zm-97.487-91.94c49.713-7.068 62.12-9.916 67.754-15.55 4.036-4.036 3.476-6.524-3.229-14.33-5.405-6.295-20.56-5.71-79.699 3.074-61.509 9.136-72.943 13.905-64.443 26.878 3.62 5.526 5.891 6.234 19.901 6.204 8.698-.018 35.57-2.843 59.716-6.276zm-22.314-40.802c13.27-1.91 59.358-8.099 102.419-13.754 125.367-16.465 136.954-19.793 129.08-37.074-2.443-5.363-4.52-6.187-15.595-6.187-7.027 0-42.194 4.074-78.15 9.054a68402.995 68402.995 0 0 1-127.595 17.527c-74.713 10.173-83.406 13.27-76.015 27.08 5.595 10.454 13.656 10.865 65.856 3.354zm70.529-53.223c66.67-9.09 126.885-17.7 133.812-19.135 13.078-2.71 21.69-8.37 21.69-14.257 0-6.382-9.9-13.575-18.685-13.575-14.526 0-261.349 34.945-272.108 38.525-8.042 2.676-10.321 4.784-10.938 10.119-.936 8.085 7.22 14.848 17.905 14.848 3.909 0 61.654-7.436 128.324-16.525zm-62.987-52.304c31.24-13.798 45.794-45.263 33.358-72.123-19.167-41.397-87.798-50.38-121.47-15.897-12.578 12.88-15.938 20.838-15.938 37.75 0 26.221 19.524 47.867 50.076 55.518 13.495 3.38 40.351.769 53.974-5.248zm-30.399-8.753c-3.492-1.907-9.59-4.135-13.552-4.95-8.349-1.72-20.318-12.68-18.806-17.222 1.742-5.234 9.098-5.006 16.862.523 9.533 6.788 12.956 6.65 12.956-.521 0-9.092-6.914-16.688-17.877-19.64-12.054-3.245-18.966-12.275-16.603-21.69.9-3.585 6.85-11.375 13.224-17.31l11.588-10.794 15.42 7.876c17.377 8.876 23.152 15.299 17.13 19.053-2.52 1.571-5.672 1.123-9.434-1.343-8.389-5.496-13.448-4.648-13.448 2.254 0 7.183 7.302 14.362 14.609 14.362 2.925 0 8.835 2.959 13.133 6.575 10.494 8.83 10.838 21.422.83 30.391-3.842 3.443-9.39 8.534-12.331 11.313-6.095 5.762-5.322 5.699-13.701 1.123zm16.508-27.85c0-5.93-1.245-7.76-5.714-8.395-4.8-.682-5.715.368-5.715 6.56 0 8.543 1.986 11.239 7.496 10.177 2.504-.482 3.933-3.513 3.933-8.341zm-27.133-33.594c-.904-7.83-8.781-11.065-11.254-4.621-1.818 4.737 3.142 11.584 8.39 11.584 2.5 0 3.412-2.216 2.864-6.963z" transform="matrix(.93902 0 0 .8221 .94 -9.237)"/><path style="fill:#8e8f8f;stroke-width:2.53968" d="M412.11 1289.135c-34.097-16.214-30.271-47.058 9.703-78.232 24.19-18.865 41.149-26.141 60.924-26.141 14.387 0 18.001.988 26.035 7.115 10.64 8.116 16.942 18.756 16.942 28.606 0 26.35-51.245 69.346-87.619 73.514-10.27 1.177-15.24.247-25.985-4.862zm-79.45-63.416c-32.354-17.12-29.036-44.537 9.217-76.179 8.222-6.8 22.066-15.658 30.766-19.682 46.752-21.63 91.463 5.014 72.06 42.942-13.799 26.973-63.26 58.946-91.187 58.946-5.207 0-14.593-2.712-20.857-6.027zm-76.152-62.264c-24.286-13.397-30.18-30.87-17.087-50.654 13.99-21.142 56.393-50.892 78.427-55.025 13.66-2.563 29.828 2.953 40.79 13.915 8.523 8.523 9.616 11.037 9.616 22.116 0 42.125-75.893 89.426-111.746 69.648zm-69.17-58.54c-12.214-3.927-24.8-13.109-28.938-21.109-8.326-16.1 2.595-37.876 30.268-60.357 34.351-27.906 61.848-34.864 84.746-21.445 19.432 11.388 23.19 26.616 12.074 48.925-16.746 33.605-70.16 62.984-98.15 53.985zm623.735-120.316c-8.185-6.026-44.025-34.371-79.644-62.99-86.51-69.507-104.379-81.3-134.604-88.844-19.39-4.84-139.401-5.008-152.932-.215-13.066 4.629-19.65 13.393-40.105 53.394-21.437 41.92-31.829 56.466-44.775 62.672-12.706 6.091-31.227 5.666-49.388-1.134-26.421-9.893-32.497-24.236-22.67-53.514 9.165-27.301 63.03-131.035 74.706-143.87 9.736-10.703 11.542-11.587 28.18-13.79 22.015-2.916 208.581-6.304 217.93-3.958 13.837 3.473 202.844 149.887 239.848 185.798 14.552 14.122 15.873 16.3 15.873 26.17 0 13.6-5.255 26.243-16.732 40.248-11.469 13.997-16.713 14.002-35.687.033zm61.308-81.243c-15.352-7.395-42.806-27.57-95.238-69.985-77.623-62.794-123.27-101.832-128.889-110.227-12.48-18.645-4.73-48.169 16.697-63.61 17.196-12.391 30.986-17.003 50.656-16.939 27.52.09 24.408-1.94 145.345 94.802C968.256 823.232 972.672 827.59 972.69 847.7c.028 32.663-29.4 58.754-68.562 60.785-16.182.84-20.958.068-31.746-5.13zM130.263 668.191C94.686 651.575 48.069 570.33 23.739 482.54c-5.745-20.73-6.59-101.571-1.314-125.715 11.198-51.243 28.417-92.491 55.426-132.777C137.618 134.904 241.965 66.032 365.378 34.27c47.122-12.126 88.605-17.075 143.828-17.159 74.452-.112 120.33 7.049 185.397 28.938C839.475 94.786 944.76 192.935 986.716 318.364c14.928 44.626 20.207 96.395 13.835 135.661-4.805 29.613-20.134 81.943-30.15 102.928-19.14 40.102-57.726 92.516-78.857 107.116-12.233 8.452-25.657 9.906-36.733 3.979-14.903-7.976-11.773-25.506 9.09-50.905 75.2-91.555 96.713-193.388 62.508-295.873-9.615-28.81-17.774-44.981-37.888-75.1-49.227-73.713-130.58-131.059-226.287-159.51-52.816-15.702-82.086-19.344-154.297-19.196-59.625.122-67.516.673-99.477 6.945-94.359 18.52-169.244 56.16-232.464 116.85-50.028 48.025-85.19 111.623-96.006 173.65-7.418 42.54-3.83 98.028 8.924 137.948 8.825 27.627 32.291 71.67 50.914 95.562 29.518 37.869 31.6 41.386 31.6 53.368 0 6.724-1.6 12.488-4.182 15.071-6.517 6.518-24.496 7.166-36.983 1.333z" transform="matrix(.93902 0 0 .8221 .94 -9.237)"/></svg>