<svg width="1160.635" height="1429.841" xmlns="http://www.w3.org/2000/svg"><path style="fill:#a6eaf7;stroke-width:2.53968" d="M160.635 1417.78c30.38-.405 80.095-.405 110.476 0 30.381.406 5.524.737-55.238.737s-85.619-.331-55.238-.737zm-77.46-4.859c1.746-.704 4.603-.704 6.349 0 1.746.705.317 1.281-3.175 1.281s-4.92-.576-3.174-1.28zm1006.326-35.115c1.726-2.08 4.17-3.144 5.431-2.364 3.242 2.003.142 6.145-4.6 6.145-3.228 0-3.383-.706-.831-3.781zm-272.358-.44c1.746-.705 4.603-.705 6.35 0 1.745.704.317 1.28-3.176 1.28-3.492 0-4.92-.576-3.174-1.28zm90.357-58c.01-9.779.47-13.468 1.02-8.198.55 5.269.54 13.269-.02 17.778-.561 4.508-1.011.197-1-9.58zm116.204-73.1c.582-.396 3.344-2.396 6.137-4.445 4.699-3.446 4.818-3.392 1.594.719-1.917 2.444-4.679 4.444-6.137 4.444-1.46 0-2.176-.323-1.594-.719zm-51.64-34.157c5.936-.535 15.65-.535 21.587 0 5.936.534 1.08.972-10.794.972-11.873 0-16.73-.438-10.794-.972zm38.124.063c3.16-.608 7.73-.585 10.16.05 2.427.636-.158 1.133-5.745 1.105-5.587-.028-7.574-.548-4.415-1.156zm-99.827-123.918c0-54.476.337-76.4.747-48.72.41 27.68.41 72.25 0 99.047-.412 26.796-.747 4.15-.747-50.327zm-599.836 57.923c2.47-.644 5.9-.602 7.619.094 1.719.695-.303 1.222-4.493 1.17-4.19-.052-5.598-.62-3.126-1.265zm289.51-.062c3.86-.584 9.575-.569 12.698.034 3.124.602-.034 1.08-7.019 1.061-6.984-.02-9.54-.512-5.68-1.096zm-314.899-10.876c0-6.286.495-8.857 1.1-5.715.606 3.143.606 8.286 0 11.429-.605 3.143-1.1.571-1.1-5.714zm303.224 3.386c-.931-.931-1.521-12.074-1.31-24.762l.382-23.069 1.831 24.127c1.912 25.183 1.863 26.47-.903 23.704zm-263.28-39.143v-38.295l-19.054.835c-10.48.46-19.051-.02-19.048-1.07.003-1.047 9.149-1.904 20.324-1.904h20.317v39.365c0 21.651-.571 39.365-1.27 39.365-.698 0-1.27-17.233-1.27-38.296zm-39.944-2.339c0-6.285.495-8.857 1.1-5.714.606 3.143.606 8.286 0 11.429-.605 3.143-1.1.571-1.1-5.715zm344.705-26.49c0-7.015-1.113-8.926-5.714-9.812-4.9-.944-4.718-1.15 1.27-1.447 6.512-.322 6.984.34 6.984 9.813 0 5.587-.571 10.159-1.27 10.159-.698 0-1.27-3.92-1.27-8.713zm478.69-317.637c0-166.222.304-233.848.675-150.28.372 83.568.371 219.568 0 302.222-.372 82.654-.676 14.28-.675-151.942zm-151.07 296.296c0-1.164 1.663-2.116 3.697-2.116s3.11.952 2.39 2.116c-.72 1.164-2.384 2.117-3.698 2.117s-2.39-.953-2.39-2.117zm50.317-2.158c1.833-.734 4.024-.643 4.867.2.844.844-.656 1.445-3.333 1.334-2.958-.122-3.56-.723-1.534-1.534zm16.984-.805c-.863-1.397-.36-2.54 1.12-2.54s2.69 1.143 2.69 2.54-.505 2.54-1.12 2.54c-.617 0-1.827-1.143-2.69-2.54zm-48.812-32.346c6.677-.525 16.962-.518 22.857.015 5.894.533.431.962-12.14.954-12.572-.01-17.394-.443-10.717-.968zm-68.45-151.78c.01-9.779.47-13.467 1.02-8.198.55 5.27.54 13.27-.02 17.778-.561 4.508-1.011.197-1-9.58zm58.214-13.306c8.032-.504 21.175-.504 29.207 0 8.031.504 1.46.916-14.604.916-16.063 0-22.634-.412-14.603-.916zm60.318-2.78c0-1.163 1.664-2.116 3.698-2.116 2.033 0 3.109.953 2.39 2.117-.72 1.164-2.384 2.116-3.699 2.116-1.314 0-2.39-.952-2.39-2.116zm-88.89-19.923c0-1.413 2.572-4.747 5.715-7.408l5.714-4.838-5.052 6.35c-2.779 3.492-5.35 6.825-5.714 7.407-.364.582-.662-.098-.662-1.511zm17.144-12.658c1.746-.704 4.603-.704 6.349 0 1.746.705.317 1.281-3.175 1.281s-4.92-.576-3.174-1.28zm57.143-.068c2.444-.64 6.444-.64 8.888 0 2.445.638.445 1.161-4.444 1.161s-6.889-.523-4.444-1.161zm-125.08-13.638c0-1.48 1.143-1.983 2.54-1.12s2.54 2.074 2.54 2.69c0 .616-1.143 1.12-2.54 1.12s-2.54-1.21-2.54-2.69zM876 787.937l-6.158-6.985 6.984 6.157c6.528 5.755 8.15 7.812 6.157 7.812-.455 0-3.597-3.143-6.984-6.984zm-115.364-20.953-20.318-1.608 26.667-.287c14.667-.158 28.952.695 31.746 1.895 5.924 2.546-5.938 2.546-38.095 0zm-568.187-1.863c5.974-.536 15.116-.529 20.318.018 5.2.546.313.985-10.861.976-11.175-.01-15.43-.456-9.457-.993zm161.606-1.634c-.738-1.924-.908-9.067-.378-15.873l.964-12.376.458 14.559.458 14.559 62.857.725 62.857.726-62.937.589c-51.505.481-63.18-.047-64.279-2.91zm261.26 1.627c6.678-.525 16.964-.518 22.858.015 5.894.533.431.963-12.14.955-12.572-.008-17.394-.444-10.717-.969zm-15.162-19.717c.015-8.381.488-11.504 1.054-6.939.565 4.565.553 11.422-.026 15.238-.58 3.817-1.042.082-1.028-8.3zm-365.912 3.81c0-4.89.523-6.89 1.161-4.445.64 2.444.64 6.444 0 8.889-.638 2.444-1.161.444-1.161-4.445zm330.296-16.509c.02-6.984.512-9.54 1.096-5.679.584 3.86.568 9.575-.035 12.698-.602 3.124-1.08-.035-1.06-7.019zm119.068-5.079c-.267-4.19-1.074-12.19-1.793-17.778-1.138-8.847-.956-9.351 1.415-3.906 1.498 3.439 2.304 11.439 1.793 17.778-.578 7.176-1.112 8.65-1.415 3.906zm-449.753-.211c.122-2.96.724-3.56 1.535-1.535.733 1.833.643 4.024-.2 4.868-.845.844-1.445-.656-1.335-3.333zm.227-22.97c-.3-7.337.906-11.528 4.017-13.968 3.878-3.041 4.064-2.996 1.46.356-1.643 2.113-3.45 8.399-4.018 13.968l-1.032 10.127-.427-10.483zm445.287-8.565c-.863-1.397-.36-2.54 1.12-2.54s2.69 1.143 2.69 2.54-.504 2.54-1.12 2.54c-.616 0-1.827-1.143-2.69-2.54zm-113.016-6.038c0-.528 2-2.528 4.445-4.445 4.028-3.159 4.118-3.069.959.96-3.318 4.23-5.404 5.575-5.404 3.485zM253.492 676.36c1.833-.733 4.024-.643 4.868.2.844.845-.656 1.445-3.334 1.335-2.958-.122-3.56-.724-1.534-1.535zm330.159 0c1.833-.733 4.024-.643 4.868.2.843.845-.657 1.445-3.334 1.335-2.958-.122-3.56-.724-1.534-1.535zm-261.588-2.54c1.834-.733 4.024-.643 4.868.201.844.844-.656 1.444-3.333 1.334-2.959-.122-3.56-.724-1.535-1.534zm285.882-26.2c0-16.064.412-22.636.916-14.604s.504 21.174 0 29.206-.916 1.46-.916-14.603zm44.277 26.2c1.834-.733 4.024-.643 4.868.201.844.844-.656 1.444-3.333 1.334-2.959-.122-3.56-.724-1.535-1.534zm-339.64-4.825c.121-2.959.723-3.56 1.534-1.535.733 1.834.643 4.024-.2 4.868-.844.844-1.445-.656-1.334-3.333zm330.65-6.138c0-6.286.495-8.857 1.1-5.714.605 3.143.605 8.286 0 11.428-.605 3.143-1.1.572-1.1-5.714zm57.085-14.49c3.143-.606 8.286-.606 11.429 0 3.143.605.571 1.1-5.714 1.1-6.286 0-8.857-.495-5.715-1.1zm121.905-.103c14.318-.452 37.746-.452 52.064 0 14.317.453 2.603.823-26.032.823s-40.35-.37-26.032-.823zm-136.832-5.09c-3.159-4.027-3.069-4.117.96-.958 4.23 3.317 5.575 5.403 3.485 5.403-.528 0-2.528-2-4.445-4.444zm-410.317-14.603c.015-8.38.488-11.503 1.053-6.938.566 4.565.554 11.422-.026 15.238-.58 3.816-1.042.081-1.027-8.3zm35.409 0c.028-5.587.548-7.574 1.155-4.414.608 3.159.585 7.73-.05 10.158-.636 2.429-1.134-.156-1.105-5.744zm723.169 2.39c0-2.177 1.143-3.253 2.54-2.39 1.396.864 2.54 2.645 2.54 3.96 0 1.314-1.144 2.39-2.54 2.39-1.397 0-2.54-1.782-2.54-3.96zm-5.404-10.644c-3.159-4.028-3.069-4.117.96-.958 2.444 1.917 4.444 3.917 4.444 4.444 0 2.09-2.086.745-5.404-3.486zm-338.041-3.602c1.475-1.476 4.182-2.184 6.014-1.573 1.902.634.751 1.785-2.683 2.684-4.224 1.104-5.216.774-3.331-1.11zm99-4.015c39.46-.394 104.032-.394 143.492 0 39.46.394 7.175.716-71.746.716-78.92 0-111.206-.322-71.746-.716zm-512.38-16.995c0-2.012 1.036-4.3 2.302-5.082 1.267-.783 1.705.864.974 3.66-1.55 5.93-3.277 6.679-3.277 1.422zm347.8-23.642-8.753-9.523 9.524 8.752c8.864 8.146 10.691 10.295 8.752 10.295-.424 0-4.71-4.285-9.524-9.524zm-333.832-.634c2.528-2.794 5.168-5.08 5.866-5.08.699 0-.798 2.286-3.327 5.08-2.528 2.793-5.168 5.079-5.866 5.079-.699 0 .798-2.286 3.327-5.08zm16.508-10.16c0-1.396 1.21-2.539 2.69-2.539 1.478 0 1.982 1.143 1.12 2.54-.864 1.397-2.074 2.54-2.69 2.54-.616 0-1.12-1.143-1.12-2.54zm101.087-4.435c14.392-.453 37.249-.451 50.794.005 13.544.456 1.77.827-26.167.825-27.937-.002-39.019-.375-24.627-.829zm106.532.003c12.92-.46 34.063-.46 46.984 0 12.92.461 2.349.838-23.492.838-25.842 0-36.413-.377-23.492-.838zm81.428.158c1.834-.734 4.024-.644 4.868.2.844.844-.656 1.444-3.333 1.334-2.959-.122-3.56-.724-1.535-1.534zM166.2 410.159c.001-40.508.352-56.724.78-36.035.427 20.688.426 53.831-.002 73.65-.429 19.82-.779 2.893-.777-37.615zm559.514 67.937c47.842-.386 126.127-.386 173.969 0 47.84.387 8.698.703-86.985.703-95.682 0-134.825-.316-86.984-.703zm289.524-2.318c1.746-.704 4.603-.704 6.35 0 1.745.705.317 1.281-3.175 1.281s-4.921-.576-3.175-1.28zm-641.221-7.697c2.47-.644 5.9-.601 7.619.095 1.72.695-.303 1.222-4.493 1.17-4.19-.052-5.597-.62-3.126-1.265zm57.094.078c1.746-.704 4.603-.704 6.35 0 1.745.705.317 1.281-3.175 1.281s-4.92-.576-3.175-1.28zm12.857-2.592c1.834-.734 4.024-.644 4.868.2.844.844-.656 1.444-3.333 1.334-2.959-.122-3.56-.724-1.535-1.534zm589.883-4.826c.122-2.959.724-3.56 1.535-1.535.733 1.834.643 4.024-.2 4.868-.845.844-1.445-.656-1.335-3.333zm-702.422-3.598c.863-1.397 2.073-2.54 2.69-2.54.615 0 1.12 1.143 1.12 2.54s-1.211 2.54-2.69 2.54c-1.48 0-1.984-1.143-1.12-2.54zm146.031-2.69c0-1.479 1.143-1.983 2.54-1.12 1.397.864 2.54 2.074 2.54 2.69 0 .616-1.143 1.12-2.54 1.12s-2.54-1.21-2.54-2.69zm-153.632-2.36c-.89-1.44.13-1.866 2.39-.999 4.4 1.689 5.204 3.51 1.55 3.51-1.313 0-3.087-1.13-3.94-2.511zm708.324.341c1.098-1.776-.517-3.892-4.052-5.31-3.87-1.552-4.465-2.413-1.744-2.519 5.843-.227 11.073 6.393 7.026 8.895-1.945 1.202-2.392.815-1.23-1.066zm-534.374-6.457c0-.653 3.714-3.791 8.254-6.975 5.856-4.106 7.208-4.485 4.653-1.304-3.634 4.526-12.907 10.474-12.907 8.279zm128.918-3.329c3.16-.607 7.73-.584 10.159.052 2.428.635-.157 1.132-5.744 1.104-5.587-.028-7.574-.548-4.415-1.156zm365.73-.044c4.565-.565 11.422-.554 15.238.026 3.817.58.082 1.042-8.299 1.027-8.38-.015-11.503-.488-6.939-1.053zM289.2 432.38c-3.16-4.028-3.07-4.118.959-.959 4.23 3.318 5.576 5.403 3.485 5.403-.527 0-2.527-2-4.444-4.444zm108.26-.635c-22.636-1.258-22.71-1.283-7.619-2.639 17.658-1.586 50.514.749 38.095 2.707-4.19.661-17.904.63-30.476-.068zm120.635.272c0-1.248 1.876-2.988 4.169-3.868 3.486-1.337 3.643-.966.959 2.268-3.658 4.407-5.128 4.866-5.128 1.6zM265.301 411.14c-6.931-7.142-10.317-11.534-7.523-9.76 4.961 3.15 23.183 22.746 21.151 22.746-.563 0-6.696-5.844-13.628-12.986zm79.62 11.251c1.833-.734 4.023-.643 4.867.2.844.844-.656 1.445-3.333 1.334-2.959-.122-3.56-.723-1.534-1.534zm41.987-9.803c-.827-2.156-.936-4.487-.243-5.18.694-.694 1.871 1.07 2.616 3.919 1.583 6.052-.176 6.986-2.373 1.26zm154.044-2.43c3.281-3.492 6.39-6.35 6.91-6.35 2.11 0-8.355 12.545-10.527 12.62-1.291.043.337-2.778 3.617-6.27zm-55.873 2.85c0-.527 2-2.527 4.445-4.444 4.028-3.16 4.118-3.07.959.959-3.318 4.23-5.404 5.576-5.404 3.485zm-104.127-11.74c-2.289-1.478-2.602-2.477-.784-2.5 1.663-.02 3.73 1.104 4.594 2.5 1.949 3.154 1.07 3.154-3.81 0zm173.288-5.079c1.745-2.793 4.217-5.079 5.495-5.079 1.277 0 .254 2.286-2.275 5.08-2.528 2.793-5 5.079-5.494 5.079-.494 0 .53-2.286 2.274-5.08zm-113.605 0c.863-1.396 2.074-2.54 2.69-2.54.615 0 1.12 1.144 1.12 2.54 0 1.397-1.21 2.54-2.69 2.54s-1.983-1.143-1.12-2.54zm-145.003-5.714-4.838-5.714 5.714 4.838c5.37 4.547 6.87 6.59 4.838 6.59-.482 0-3.053-2.57-5.714-5.714zm-49.283-1.905c-1.495-2.793-1.81-5.079-.7-5.079s3.446 2.286 5.19 5.08c1.757 2.813 2.07 5.079.7 5.079-1.36 0-3.695-2.286-5.19-5.08zm101.264-1.904c-3.16-4.028-3.07-4.118.958-.96 2.445 1.918 4.445 3.918 4.445 4.445 0 2.09-2.086.745-5.403-3.485zm114.842-3.947c3.364-3.219 6.586-5.512 7.16-5.095 1.65 1.199-7.902 10.946-10.728 10.946-1.402 0 .204-2.633 3.568-5.851zm100.085.772c.863-1.397 2.712-2.54 4.109-2.54 1.397 0 1.833 1.143.97 2.54s-2.712 2.54-4.11 2.54c-1.396 0-1.833-1.143-.97-2.54zm283.915-4.425c9.486-.49 24.344-.487 33.016.008 8.672.494.91.895-17.249.89-18.159-.004-25.254-.408-15.767-.898zm299.531-8.273c0-4.89.523-6.89 1.161-4.445.64 2.445.64 6.445 0 8.89-.638 2.444-1.161.444-1.161-4.445zm-872.024-6.984c-3.16-4.029-3.07-4.118.959-.96 2.444 1.918 4.444 3.918 4.444 4.445 0 2.09-2.085.745-5.403-3.485zm256.832 3.485c0-.527 2-2.527 4.444-4.444 4.028-3.16 4.118-3.07.959.959-3.318 4.23-5.403 5.575-5.403 3.485zm-299.482-5.602c.121-2.958.723-3.56 1.534-1.534.734 1.833.643 4.024-.2 4.867-.844.844-1.445-.656-1.334-3.333zm560.877-2.963-6.157-6.984 6.984 6.157c6.528 5.755 8.149 7.811 6.157 7.811-.455 0-3.598-3.143-6.984-6.984zm-399.173 2.585c5.936-.535 15.65-.535 21.587 0 5.937.535 1.08.972-10.793.972s-16.73-.437-10.794-.972zm-22.546-5.125c-3.224-4.11-3.105-4.165 1.593-.718 2.794 2.049 5.556 4.049 6.138 4.444.582.396-.135.719-1.594.719-1.458 0-4.22-2-6.137-4.445zm-4.26-12.063c.051-4.19.62-5.597 1.264-3.126.644 2.47.602 5.9-.094 7.619-.696 1.72-1.222-.303-1.17-4.493zm114.278-13.968c-.307-11.873-1.145-24.445-1.864-27.937l-1.307-6.349 2.703 6.184c1.487 3.402 2.326 15.973 1.864 27.937l-.84 21.752zM442.4 341.587c.052-4.19.62-5.597 1.265-3.126.644 2.471.601 5.9-.094 7.62-.696 1.719-1.223-.303-1.171-4.494zm140.457 3.81c.863-1.397 2.074-2.54 2.69-2.54.616 0 1.12 1.143 1.12 2.54s-1.21 2.54-2.69 2.54-1.983-1.143-1.12-2.54zm-361.704-6.561c.122-2.959.724-3.56 1.534-1.534.734 1.833.644 4.023-.2 4.867-.844.844-1.444-.656-1.334-3.333zm109.407-6.138c0-3.492.576-4.92 1.28-3.174.705 1.746.705 4.603 0 6.349-.704 1.746-1.28.317-1.28-3.175zm29.984-2.957c-2.908-5.67-2.84-5.739 1.548-1.547 2.524 2.41 3.893 5.08 3.042 5.931-.851.852-2.917-1.121-4.59-4.384zm416.599 2.957a2.547 2.547 0 0 1 2.54-2.54 2.547 2.547 0 0 1 2.54 2.54 2.547 2.547 0 0 1-2.54 2.54 2.547 2.547 0 0 1-2.54-2.54zm-559.746-6.603c-.904-2.355-1.072-4.854-.374-5.552.699-.699 2.01.657 2.914 3.013.903 2.355 1.071 4.854.373 5.552-.698.698-2.01-.657-2.913-3.013zm893.595-6.73-10.04-10.794 10.794 10.04c10.038 9.336 11.96 11.548 10.04 11.548-.416 0-5.273-4.857-10.794-10.794zM590.476 320c-.863-1.397-.36-2.54 1.12-2.54s2.69 1.143 2.69 2.54-.504 2.54-1.12 2.54c-.616 0-1.827-1.143-2.69-2.54zm-245.555-1.735c1.833-.734 4.023-.643 4.867.2.844.844-.656 1.445-3.333 1.334-2.959-.122-3.56-.723-1.534-1.534zm97.385-3.344c0-3.492.576-4.921 1.28-3.175.705 1.746.705 4.603 0 6.35-.704 1.745-1.28.317-1.28-3.175zm332.59-15.873c.262-16.582.5-17.403 2.393-8.254 2.935 14.19 2.866 26.666-.146 26.666-1.487 0-2.419-7.636-2.248-18.412zm-523.066 5.714c0-3.492.576-4.92 1.28-3.175.705 1.746.705 4.603 0 6.35-.704 1.746-1.28.317-1.28-3.175zm304.539-6.56c.098-6.869 1.117-14.773 2.264-17.567 1.224-2.983 1.533 1.735.747 11.429-1.618 19.968-3.256 23.308-3.011 6.137zm37.793.78c1.236-10.464 1.289-10.517 2.15-2.151.486 4.717-.084 9.545-1.267 10.727-1.183 1.183-1.58-2.676-.883-8.577zm-209.987-3.6c2.471-.643 5.9-.6 7.62.095 1.719.696-.303 1.222-4.493 1.17-4.19-.051-5.598-.62-3.127-1.264zm22.857 0c2.471-.643 5.9-.6 7.62.095 1.719.696-.303 1.222-4.493 1.17-4.19-.051-5.598-.62-3.127-1.264zm-39.254-2.514c1.833-.733 4.024-.643 4.868.2.843.845-.657 1.445-3.334 1.335-2.958-.122-3.56-.724-1.534-1.535zm-118.488-5.884c0-3.492.576-4.92 1.28-3.174.705 1.746.705 4.603 0 6.349-.704 1.746-1.28.317-1.28-3.175zm307.592-27.936c0-6.286.495-8.858 1.1-5.715.606 3.143.606 8.286 0 11.429-.605 3.143-1.1.571-1.1-5.714zm-149.85 3.319c2.471-.644 5.9-.602 7.62.094 1.719.696-.303 1.223-4.493 1.17-4.19-.051-5.598-.62-3.127-1.264zm-158.065-2.05c0-1.396 1.108-4.253 2.462-6.349 1.354-2.095 2.461-2.666 2.461-1.27 0 1.397-1.107 4.254-2.461 6.35-1.354 2.095-2.462 2.666-2.462 1.27zm345.814-5.079c.052-4.19.62-5.597 1.265-3.126.644 2.47.601 5.9-.095 7.619-.695 1.72-1.222-.302-1.17-4.493zM366.209 242.54c.052-4.19.621-5.598 1.265-3.127.644 2.471.602 5.9-.094 7.62-.696 1.719-1.222-.303-1.17-4.493zm224.43-5.605c-1.378-3.62-1.086-3.911 1.422-1.422 1.736 1.723 2.516 3.772 1.734 4.554-.782.782-2.202-.627-3.156-3.132zm-137.369-.846c-1.07-1.733.844-2.047 5.565-.913 9.73 2.338 10.651 3.554 2.69 3.554-3.642 0-7.357-1.188-8.255-2.641zm-237.358-1.653c.021-1.13 1.147-3.77 2.5-5.865 2.122-3.283 2.468-3.216 2.501.485.022 2.362-1.103 5.001-2.5 5.865-1.397.863-2.522.645-2.501-.485zm111.338-10.944c-1.567-8.878-.917-12.292 1.818-9.556.797.797 1.067 5.273.6 9.947l-.849 8.498zm-106.298-5.08c0-1.396 1.21-2.539 2.69-2.539s1.983 1.143 1.12 2.54-2.074 2.54-2.69 2.54c-.616 0-1.12-1.143-1.12-2.54zm259.774-8.888c.02-6.984.513-9.54 1.096-5.68.584 3.86.569 9.575-.034 12.699-.603 3.124-1.08-.035-1.062-7.02zm103.601 4.868c.122-2.96.724-3.56 1.535-1.535.733 1.833.643 4.024-.2 4.868-.844.844-1.445-.656-1.334-3.333zm-218.412-2.54c.122-2.959.723-3.56 1.534-1.535.734 1.834.644 4.024-.2 4.868-.844.844-1.444-.656-1.334-3.333zm73.45-8.827c0-1.48 1.143-1.984 2.54-1.12 1.397.863 2.54 2.073 2.54 2.69 0 .615-1.143 1.12-2.54 1.12s-2.54-1.211-2.54-2.69zm-55.19-6.69c2.471-.644 5.9-.601 7.62.094 1.719.696-.303 1.223-4.493 1.171-4.19-.052-5.598-.62-3.127-1.265zm-52.583-4.064c.954-2.504 2.374-3.914 3.156-3.132s.002 2.831-1.734 4.554c-2.509 2.49-2.8 2.198-1.422-1.422zm-96.671-4.334c.863-1.397 2.073-2.54 2.69-2.54.615 0 1.12 1.143 1.12 2.54 0 1.396-1.211 2.54-2.69 2.54-1.48 0-1.984-1.144-1.12-2.54zm102.857-7.418c0-2.598 9.892-11.473 11.261-10.104.59.59-1.703 3.544-5.094 6.565-3.392 3.021-6.167 4.614-6.167 3.539zm171.349-13.535-15.159-15.873 15.873 15.159c14.745 14.08 17.035 16.587 15.159 16.587-.393 0-7.536-7.143-15.873-15.873zm-266.87 9.956c.352-2.556 2.274-5.658 4.27-6.892 1.998-1.234 3.632-3.143 3.632-4.241 0-1.099 7.413-9.41 16.473-18.471 9.06-9.06 13.826-12.755 10.589-8.209-3.237 4.546-10.33 11.837-15.763 16.203s-9.41 8.698-8.835 9.627c.573.928-1.668 5.05-4.982 9.16-4.426 5.489-5.854 6.238-5.384 2.823zm54.78-9.956c10.524-11.213 12.804-13.23 12.804-11.322 0 .407-5.428 5.836-12.063 12.063l-12.064 11.323zm167.4 6.35c-3.158-4.029-3.068-4.119.96-.96 4.23 3.318 5.576 5.404 3.485 5.404-.527 0-2.527-2-4.444-4.445zm-30.627-15.069c1.833-.734 4.023-.643 4.867.2.844.845-.656 1.445-3.333 1.335-2.959-.122-3.56-.724-1.534-1.535zm109.49-10.328-6.157-6.985 6.984 6.157c3.841 3.387 6.984 6.53 6.984 6.985 0 1.991-2.057.37-7.811-6.157zm-377.655-37.598-.566-40.771 9.524-8.752 9.524-8.753-8.187 8.94-8.186 8.94-.772 40.585-.771 40.583zm220.387 37.112c0-1.314 1.13-3.088 2.51-3.941 1.44-.89 1.866.13.998 2.39-1.688 4.4-3.508 5.205-3.508 1.551zm135.873-17.927c-2.528-2.794-3.317-5.08-1.753-5.08 1.564 0 4.067 2.286 5.562 5.08 1.495 2.793 2.284 5.08 1.753 5.08-.531 0-3.034-2.287-5.562-5.08zm-131.429-4.412c7.334-.513 19.334-.513 26.667 0 7.333.513 1.333.933-13.333.933-14.667 0-20.667-.42-13.334-.933zm514.801-11.461-10.039-10.794 10.794 10.04c5.936 5.521 10.793 10.378 10.793 10.793 0 1.921-2.211-.001-11.548-10.04zm-603.055 4.676c0-.484 1.715-2.302 3.81-4.041 2.196-1.823 3.81-2.07 3.81-.583 0 1.418-1.715 3.237-3.81 4.04-2.095.805-3.81 1.067-3.81.584zm198.095-4.041c-2.289-1.48-2.602-2.478-.784-2.501 1.663-.021 3.73 1.104 4.594 2.5 1.949 3.154 1.07 3.154-3.81 0zm-180.793-6.815c1.833-.733 4.024-.643 4.868.201.843.844-.657 1.444-3.334 1.334-2.958-.122-3.56-.724-1.534-1.535zm11.905-5.884c.863-1.397 2.073-2.54 2.69-2.54.615 0 1.12 1.143 1.12 2.54s-1.211 2.54-2.69 2.54c-1.48 0-1.984-1.143-1.12-2.54zm12.698-5.08c-.863-1.396-.427-2.539.97-2.539s3.246 1.143 4.11 2.54c.863 1.397.426 2.54-.97 2.54-1.398 0-3.247-1.143-4.11-2.54zm21-5.506c1.475-1.476 4.182-2.184 6.014-1.573 1.902.634.75 1.785-2.683 2.683-4.225 1.105-5.216.774-3.332-1.11zm407.267-12.27c-.139-9.08.855-18.223 2.21-20.318 3.113-4.818 3.204 11.876.145 26.666-1.97 9.527-2.117 9.133-2.355-6.349zM380.476 89.693c1.834-.734 4.024-.644 4.868.2.844.844-.656 1.444-3.333 1.334-2.959-.122-3.56-.724-1.535-1.534zm50.635-.058c3.143-.605 8.286-.605 11.429 0 3.143.606.571 1.1-5.715 1.1-6.285 0-8.857-.494-5.714-1.1zm-33.016-2.54c3.143-.605 8.286-.605 11.429 0 3.143.606.571 1.101-5.714 1.101-6.286 0-8.858-.495-5.715-1.1zm-223.492-73.54c1.746-.704 4.603-.704 6.35 0 1.745.705.317 1.281-3.175 1.281s-4.92-.576-3.175-1.28z" transform="matrix(.9642 0 0 .83655 .273 -6.132)"/><path style="fill:#75e2f5;stroke-width:2.53968" d="M84.393 1376.647c-12.945-2.106-22.233-8.538-31.716-21.966l-7.006-9.92.657-246.348.656-246.35L59.2 868.572c6.718 9.08 37.196 53.651 67.729 99.048 63.048 93.743 78.472 113.324 101.319 128.622 8.901 5.96 16.897 11.55 17.77 12.422.87.871 2.264 12.065 3.095 24.874 2.773 42.72 9.935 48.284 60.477 46.975 28.64-.742 32.863-1.447 40.245-6.712 8.96-6.39 9.763-8.634 12.111-33.83l1.571-16.857 74.115-1.764c40.763-.97 83.257-1.385 94.431-.921l20.318.842 1.606 17.96c3.198 35.776 11.294 41.722 56.807 41.722 47.731 0 54.124-5.466 56.484-48.296l1.36-24.683 11.319-5.5c27.09-13.16 45.914-36.948 131.263-165.874 30.251-45.696 56.028-83.718 57.283-84.493 1.255-.776 2.99 3.469 3.855 9.432.866 5.964 1.225 115.986.798 244.494l-.775 233.65-5.482 10.16c-10.08 18.68-18.484 24.404-39.384 26.825-22.107 2.56-727.377 2.542-743.122-.02zm823.487-285.853c0-117.334.31-164.962.69-105.842.38 59.12.38 155.12 0 213.333-.38 58.213-.69 9.842-.69-107.491zm32.787 149.762c-2.317-3.536-3.486-7.155-2.598-8.043.887-.887 1.614-.28 1.614 1.35 0 1.63 2.285 5.248 5.079 8.042 2.794 2.793 3.963 5.08 2.598 5.08-1.365 0-4.376-2.894-6.693-6.43zm14.889-25.799c2.444-.639 6.444-.639 8.888 0 2.445.64.445 1.162-4.444 1.162s-6.889-.523-4.444-1.162zm57.172-.045c3.16-.607 7.73-.584 10.159.051 2.428.636-.157 1.133-5.744 1.105-5.588-.028-7.574-.549-4.415-1.156zm-641.921-132.537c-3.485-.97-6.557-3.427-6.828-5.46-.27-2.035-1.231-10.394-2.135-18.576-1.332-12.06-3.249-16.629-10.122-24.127l-8.479-9.25-36.383.018c-24.022.013-38.241 1.076-41.85 3.132-6.177 3.517-16.121 22.342-16.121 30.518 0 10.512-5.674 8.754-19.567-6.06-13.876-14.796-20.743-24.83-104.066-152.052-53.325-81.422-56.28-86.5-52.526-90.254 1.577-1.577 17.572-3.873 35.545-5.101 37.644-2.574 676.761-2.833 710.056-.289 36.212 2.768 36.228 1.423-.69 57.956-101.04 154.72-134.85 201.497-145.644 201.497-2.57 0-4.06-2.192-4.06-5.97 0-11.569-5.5-21.812-14.796-27.557-8.124-5.02-13.447-5.85-43.134-6.717l-33.866-.99-7.662 7.284c-11.58 11.007-14.828 19.252-14.828 37.633v16.635l-88.254-.254c-48.54-.139-91.105-1.046-94.59-2.016zm568.805-41.036c-1.533-2.866-2.3-7.723-1.705-10.794 1.019-5.25 1.104-5.216 1.43.566.19 3.382 2.237 8.24 4.549 10.794 2.37 2.618 2.962 4.644 1.359 4.644-1.564 0-4.099-2.344-5.633-5.21zm9.753-194.62c1.833-.734 4.024-.643 4.868.2.844.844-.656 1.445-3.334 1.334-2.958-.122-3.56-.723-1.534-1.534zm-11.821-13.503c0-3.492.576-4.92 1.28-3.175.705 1.746.705 4.603 0 6.35-.704 1.746-1.28.317-1.28-3.175zm5.707-12.064c2.66-3.142 6.66-5.624 8.889-5.513 3.438.17 3.474.412.24 1.6-2.094.771-6.094 3.252-8.888 5.515-5.036 4.078-5.038 4.064-.241-1.602zm82.78-2.116c-4.27-2.37-4.995-3.535-2.215-3.56 2.273-.02 5.556 1.676 7.295 3.772 3.709 4.468 3.327 4.452-5.08-.212zm-52.698-5.465c6.635-.523 17.492-.523 24.127 0 6.635.524 1.207.952-12.063.952-13.27 0-18.699-.428-12.064-.952zm-373.968-50.196c0-2.096.45-3.81.998-3.81.55 0 1.656 1.714 2.46 3.81.804 2.095.355 3.81-.998 3.81s-2.46-1.715-2.46-3.81zm48.894-5.08c.029-5.587.549-7.574 1.156-4.415.608 3.16.585 7.731-.051 10.16-.636 2.427-1.133-.158-1.105-5.745zm53.421 7.01c8.083-.506 20.654-.501 27.937.01 7.282.511.669.925-14.696.919-15.365-.005-21.324-.424-13.241-.93zm-17.693-15.899c0-9.079.461-12.793 1.025-8.254.563 4.54.563 11.969 0 16.508-.564 4.54-1.025.826-1.025-8.254zM345.073 686.35c-3.16-4.028-3.07-4.118.959-.959 2.444 1.917 4.444 3.917 4.444 4.445 0 2.09-2.085.745-5.403-3.486zm327.619-2.54c-3.16-4.028-3.07-4.117.959-.958 2.444 1.917 4.444 3.917 4.444 4.444 0 2.09-2.085.745-5.403-3.485zm-358.248-9.988c1.834-.734 4.024-.644 4.868.2.844.844-.656 1.444-3.333 1.334-2.959-.122-3.56-.724-1.535-1.534zm330.16 0c1.832-.734 4.023-.644 4.867.2.844.844-.656 1.444-3.333 1.334-2.959-.122-3.56-.724-1.535-1.534zm91.269-25.552c11.524-.47 30.38-.47 41.905 0 11.524.47 2.095.856-20.953.856-23.047 0-32.476-.385-20.952-.856zm-52.481-18.428c-.077-2.095.968-5.524 2.322-7.619 3-4.642 3-.632 0 6.35-1.439 3.349-2.23 3.781-2.322 1.27zm19.465-14.49c3.143-.606 8.286-.606 11.429 0 3.143.605.571 1.1-5.715 1.1-6.285 0-8.857-.495-5.714-1.1zm303.492.041c2.445-.639 6.445-.639 8.89 0 2.444.64.444 1.162-4.445 1.162-4.89 0-6.89-.523-4.445-1.162zm-728.934-8.408c0-4.889.522-6.889 1.161-4.444.639 2.444.639 6.444 0 8.889-.639 2.444-1.161.444-1.161-4.445zm358.939-17.033c-1.378-3.62-1.087-3.911 1.421-1.422 1.736 1.723 2.516 3.772 1.735 4.554-.782.782-2.203-.627-3.156-3.132zm-8.418-114.31c3.842-.582 10.127-.582 13.969 0 3.841.582.698 1.058-6.984 1.058-7.683 0-10.826-.476-6.985-1.058zm372.094.023c3.159-.607 7.73-.584 10.158.051 2.429.636-.156 1.133-5.744 1.105-5.587-.028-7.574-.548-4.414-1.156zm26.002-1.741c0-.55 1.773-1.68 3.941-2.511 2.26-.867 3.28-.442 2.39.998-1.492 2.413-6.331 3.57-6.331 1.513zm-417.882-6.79c-.921-1.49-1.13-3.254-.464-3.92.666-.665 1.887.554 2.714 2.71 1.717 4.474.254 5.262-2.25 1.21zm-269.102-7.45c-3.202-1.376-3.671-2.183-1.27-2.183 2.095 0 6.095.982 8.889 2.183 3.201 1.375 3.67 2.182 1.27 2.182-2.096 0-6.096-.982-8.89-2.182zm141.164-6.006c.582-.509 3.915-2.286 7.407-3.95 5.987-2.85 6.068-2.798 1.42.927-4.046 3.24-12.313 6.073-8.827 3.023zm-176.223-11.716c-6.559-4.16-11.926-8.113-11.926-8.784 0-.672 5.715 2.331 12.699 6.673 11.2 6.962 14.543 9.674 11.926 9.674-.425 0-6.14-3.404-12.699-7.563zm315.217 3.288c1.834-.733 4.024-.643 4.868.2.844.845-.656 1.445-3.333 1.335-2.959-.122-3.56-.724-1.535-1.535zm106.508-2.708c47.842-.387 126.127-.387 173.969 0 47.84.386 8.698.703-86.985.703-95.682 0-134.825-.317-86.984-.703zM392.96 432.453c4.509-.561 12.509-.57 17.778-.02 5.27.55 1.58 1.008-8.197 1.02-9.778.01-14.09-.439-9.58-1zm-118.673-14.675c-6.17-6.286-10.645-11.429-9.947-11.429.699 0 6.317 5.143 12.486 11.429 6.17 6.285 10.645 11.428 9.947 11.428-.699 0-6.317-5.143-12.486-11.428zM417.04 420.3c.992-1.538 2.92-5.591 4.284-9.008 1.568-3.928 2.54-4.681 2.642-2.05.089 2.29-1.839 6.344-4.283 9.01-2.445 2.664-3.634 3.586-2.643 2.048zm113.754 1.559c0-1.247 1.876-2.988 4.168-3.868 3.486-1.337 3.643-.966.96 2.268-3.658 4.407-5.128 4.866-5.128 1.6zm-275.797-23.764-4.838-5.714 5.714 4.838c5.37 4.547 6.87 6.59 4.838 6.59-.482 0-3.053-2.57-5.714-5.714zm677.701-19.043c22-.422 58-.422 80 0 22 .423 4 .77-40 .77s-62-.347-40-.77zm-598.834-8.427c-.92-1.49-1.13-3.254-.464-3.92.666-.665 1.887.554 2.714 2.71 1.718 4.474.254 5.262-2.25 1.21zm240.308-4.91c3.703-7.775 4.876-9.216 4.876-5.989 0 1.363-1.778 4.696-3.95 7.408-3.724 4.648-3.777 4.567-.926-1.42zm-243.813-6.562c.122-2.958.724-3.56 1.535-1.534.733 1.833.643 4.024-.2 4.868-.845.844-1.445-.656-1.335-3.334zm100.35 1.284c4.318-1.253 9.098-4.864 10.622-8.024 1.523-3.16 2.847-4.318 2.942-2.572.28 5.164-9.531 13.352-15.702 13.105-4.586-.184-4.164-.68 2.138-2.509zm-62.506-3.673c-1.767-2.129-2.72-4.363-2.12-4.964.602-.601 2.488 1.14 4.193 3.871 3.688 5.904 2.458 6.552-2.073 1.093zm109.458-5.23c.122-2.958.723-3.56 1.534-1.534.734 1.833.644 4.024-.2 4.868-.844.844-1.444-.656-1.334-3.334zm344.442-15.768-9.405-9.631V203.852c0-74.333.945-122.866 2.409-123.77 1.324-.82 61.61 57.627 133.968 129.881l131.56 131.37-13.968 1.78c-7.683.98-63.737 1.895-124.564 2.033l-110.596.25zm-377.018-6.877c.028-5.587.548-7.574 1.156-4.415.607 3.16.584 7.73-.052 10.159-.635 2.428-1.132-.157-1.104-5.744zm332.553-5.08c.052-4.19.62-5.597 1.265-3.126.644 2.471.601 5.9-.094 7.62-.696 1.719-1.223-.303-1.171-4.493zm-561.564-7.83c.121-2.959.723-3.56 1.534-1.535.734 1.834.643 4.024-.2 4.868-.845.844-1.445-.656-1.334-3.333zm261.881-4.868c.052-4.19.621-5.597 1.265-3.126.644 2.47.602 5.9-.094 7.619-.696 1.72-1.222-.302-1.17-4.493zm113.992 2.328c.121-2.958.723-3.56 1.534-1.534.734 1.833.643 4.024-.2 4.868-.844.843-1.445-.657-1.334-3.334zm-152.327-9.428c-3.212-5.349-3.158-5.403 1.215-1.214 2.517 2.41 4.03 4.93 3.362 5.598-.668.669-2.728-1.304-4.577-4.384zm116.61-27.82c.026-5.612.74-7.148 2.228-4.799 1.997 3.152 1.015 13.052-1.294 13.052-.535 0-.956-3.714-.935-8.254zm219.532-95.874c0-56.571.334-79.714.743-51.428s.409 74.571 0 102.857-.743 5.143-.743-51.429zm-318.103 92.879c-11.772-8.324-13.253-10.38-4.14-5.75 4.292 2.18 9.289 5.755 11.104 7.942 4.4 5.302 3.02 4.867-6.964-2.192zm-127.3-15.63c.122-2.958.724-3.56 1.535-1.534.733 1.833.643 4.024-.2 4.867-.845.844-1.445-.656-1.335-3.333zm261.588-12.698c.121-2.959.723-3.56 1.534-1.535.734 1.834.643 4.024-.2 4.868-.844.844-1.445-.656-1.334-3.333zm-376.074-3.448c0-2.711.978-5.534 2.173-6.273 1.195-.738 1.633 1.48.974 4.93-1.433 7.493-3.147 8.225-3.147 1.343zm10.339-31.896c0-1.397 1.633-5.397 3.63-8.89 1.996-3.491 3.629-5.205 3.629-3.809 0 1.397-1.633 5.397-3.63 8.89-1.996 3.491-3.63 5.206-3.63 3.809zm238.358-33.651-6.157-6.984 6.984 6.157c6.528 5.755 8.149 7.811 6.157 7.811-.455 0-3.598-3.143-6.984-6.984zM251.429 163.81c3.28-3.493 6.536-6.35 7.234-6.35.699 0-1.414 2.857-4.695 6.35-3.28 3.492-6.536 6.349-7.234 6.349-.699 0 1.414-2.857 4.695-6.35zm116.349-3.005c1.833-.734 4.024-.644 4.868.2.843.844-.657 1.444-3.334 1.334-2.958-.122-3.56-.723-1.534-1.534zm71.11 0c1.834-.734 4.025-.644 4.869.2.844.844-.656 1.444-3.334 1.334-2.958-.122-3.56-.723-1.534-1.534zm-60.475-2.567c2.095-.75 5.238-3.163 6.984-5.365 2.888-3.641 3.174-3.64 3.174.02 0 3.984-5.272 7.294-11 6.906-1.633-.11-1.254-.813.842-1.562zm45.663-2.109c-4.669-5.625-2.012-6.272 3.226-.785 2.444 2.56 3.441 4.656 2.215 4.656-1.225 0-3.674-1.742-5.441-3.87zm-165.028-2.003c0-.437 3.714-4.151 8.254-8.254l8.254-7.46-7.46 8.255c-6.953 7.694-9.048 9.421-9.048 7.459zM530.6 135.238l-6.157-6.984 6.985 6.157c3.84 3.386 6.984 6.53 6.984 6.984 0 1.992-2.057.37-7.812-6.157zm-115.2.11c-1.378-3.62-1.086-3.912 1.422-1.422 1.736 1.723 2.516 3.772 1.734 4.554-.782.782-2.202-.628-3.156-3.132zm-18.54-12.726c3.86-.584 9.574-.568 12.698.035 3.123.603-.035 1.08-7.02 1.061-6.983-.019-9.54-.512-5.679-1.096zM337.19 98.62c1.476-1.476 4.182-2.184 6.014-1.573 1.902.634.751 1.785-2.683 2.683-4.224 1.105-5.216.774-3.331-1.11zm109.318-6.387c1.833-.733 4.024-.643 4.868.2.844.845-.656 1.445-3.334 1.335-2.958-.122-3.56-.724-1.534-1.535zm326.05-37.63c.052-4.19.622-5.597 1.265-3.126.644 2.47.602 5.9-.094 7.619-.695 1.72-1.222-.302-1.17-4.493z" transform="matrix(.9642 0 0 .83655 .273 -6.132)"/><path style="fill:#71b0d1;stroke-width:2.53968" d="M367.81 1379.683c59.12-.38 155.12-.38 213.333 0 58.212.38 9.841.692-107.492.691-117.334 0-164.962-.31-105.842-.69zm-279.397-2.37c1.833-.734 4.024-.644 4.867.2.844.844-.656 1.444-3.333 1.334-2.958-.122-3.56-.724-1.534-1.534zm764.92-9.383c0-.527 2-2.527 4.445-4.444 4.028-3.16 4.118-3.07.959.958-3.318 4.23-5.404 5.576-5.404 3.486zM10.8 1321.905c.028-5.587.548-7.574 1.156-4.415.607 3.16.584 7.73-.051 10.159-.636 2.428-1.133-.157-1.105-5.744zm864.04-176.508c0-78.92.321-111.206.715-71.746.394 39.46.394 104.032 0 143.492-.394 39.46-.716 7.174-.716-71.746zm97.383 102.392c1.834-.734 4.024-.643 4.868.2.844.844-.656 1.444-3.333 1.334-2.959-.122-3.56-.723-1.535-1.534zm12.699 0c1.833-.734 4.023-.643 4.867.2.844.844-.656 1.444-3.333 1.334-2.959-.122-3.56-.723-1.534-1.534zm-7.778-33.14c5.936-.535 15.65-.535 21.587 0 5.937.534 1.08.972-10.794.972-11.873 0-16.73-.438-10.793-.973zm-718.42-43.22c-3.158-4.029-3.069-4.118.96-.96 2.444 1.918 4.444 3.918 4.444 4.445 0 2.09-2.086.745-5.403-3.485zm393.975 3.485c0-.527 2-2.527 4.445-4.444 4.028-3.16 4.118-3.07.959.959-3.318 4.23-5.404 5.575-5.404 3.485zM44.344 1036.19c0-63.555.33-89.555.733-57.777.403 31.777.403 83.777 0 115.555-.403 31.778-.733 5.778-.733-57.778zm542.523 105.186c.122-2.959.724-3.56 1.535-1.535.733 1.834.643 4.024-.2 4.868-.845.844-1.445-.656-1.335-3.333zm79.384-13.757c0-10.476.448-14.762.996-9.524.548 5.238.548 13.81 0 19.048-.548 5.238-.996.952-.996-9.524zm-381.166-11.428c.028-5.588.548-7.575 1.156-4.415.607 3.159.584 7.73-.052 10.158-.635 2.429-1.132-.156-1.104-5.744zm43.08-24.762-.546-32.381h-40.381l-.97 13.98-.971 13.982.208-14.616.21-14.616 20.992-.739c15.801-.555 21.317.11 22.307 2.688.723 1.884.95 17.074.506 33.754l-.809 30.328zm82.572 29.278c4.509-.561 12.509-.57 17.778-.02 5.269.55 1.58 1.009-8.198 1.02-9.777.01-14.089-.439-9.58-1zm176.519-36.263c0-4.888.523-6.888 1.161-4.444.64 2.445.64 6.444 0 8.889-.638 2.444-1.161.444-1.161-4.444zm-380.391-5.714-10.04-10.794 10.794 10.04c10.038 9.336 11.96 11.548 10.04 11.548-.416 0-5.273-4.857-10.794-10.794zm509.325-7.943c0-.527 2-2.527 4.445-4.444 4.028-3.16 4.118-3.07.959.959-3.318 4.23-5.404 5.575-5.404 3.485zm-355.154-9.2c0-3.492.576-4.92 1.28-3.174.705 1.746.705 4.603 0 6.349-.704 1.746-1.28.317-1.28-3.175zm304.762-7.619c0-3.492.576-4.92 1.28-3.174.705 1.746.705 4.603 0 6.349-.704 1.746-1.28.317-1.28-3.175zm-379.449-29.729c3.143-.605 8.286-.605 11.429 0 3.143.606.571 1.101-5.715 1.101-6.285 0-8.857-.495-5.714-1.1zm26.667-.027c3.841-.582 10.127-.582 13.968 0 3.841.582.699 1.058-6.984 1.058s-10.825-.476-6.984-1.058zm275.555-.062c8.73-.496 23.016-.496 31.746 0s1.588.902-15.873.902c-17.46 0-24.603-.406-15.873-.902zm282.941-168.277c0-3.492.577-4.92 1.281-3.175.705 1.746.705 4.604 0 6.35-.704 1.746-1.28.317-1.28-3.175zm85.472-9.354c1.833-.734 4.024-.643 4.868.2.844.844-.656 1.445-3.333 1.334-2.96-.122-3.56-.723-1.535-1.534zM116.22 803.283c3.16-.607 7.73-.584 10.159.051 2.428.636-.157 1.133-5.744 1.105-5.587-.028-7.574-.548-4.415-1.156zm690.794 0c3.159-.607 7.73-.584 10.158.051 2.429.636-.156 1.133-5.743 1.105-5.588-.028-7.574-.548-4.415-1.156zM36.825 792.381c2.529-2.794 5.169-5.08 5.867-5.08.698 0-.799 2.286-3.327 5.08s-5.168 5.08-5.867 5.08c-.698 0 .8-2.286 3.327-5.08zm833.962-6.984c-3.159-4.028-3.07-4.118.959-.959 2.444 1.917 4.444 3.917 4.444 4.444 0 2.09-2.085.745-5.403-3.485zM166.03 763.258c-.786-2.049-.94-5.192-.34-6.984.598-1.792 1.69-.115 2.426 3.726 1.437 7.5.252 9.351-2.086 3.258zm482.28-24.21c0-6.286.496-8.858 1.101-5.715.606 3.143.606 8.286 0 11.429-.605 3.143-1.1.571-1.1-5.714zm-330.26-5.08c0-4.889.522-6.889 1.161-4.444.639 2.444.639 6.444 0 8.889-.639 2.444-1.161.444-1.161-4.445zm-48.152-5.08c0-6.285.495-8.856 1.1-5.713.606 3.142.606 8.285 0 11.428-.605 3.143-1.1.572-1.1-5.714zm81.073-13.967c.052-4.19.621-5.598 1.265-3.127.644 2.471.602 5.9-.094 7.62-.696 1.719-1.223-.303-1.17-4.493zm329.864 2.328c.122-2.959.724-3.56 1.535-1.535.733 1.834.643 4.024-.2 4.868-.844.844-1.445-.656-1.334-3.333zm-404.615-7.934c3.16-.608 7.73-.585 10.159.051 2.428.636-.157 1.133-5.744 1.105-5.587-.028-7.574-.549-4.415-1.156zm65.126-24.236-4.838-5.714 5.714 4.838c5.37 4.547 6.87 6.59 4.838 6.59-.482 0-3.053-2.57-5.714-5.714zm-30.634-28.571c.01-11.175.456-15.43.992-9.457.537 5.974.53 15.117-.018 20.318-.545 5.2-.984.314-.975-10.861zm330.238-7.62c.005-15.364.424-21.322.93-13.24.505 8.083.5 20.654-.01 27.937-.512 7.282-.926.669-.92-14.696zm56.828-2.95c1.746-.705 4.603-.705 6.349 0 1.746.704.317 1.28-3.175 1.28s-4.92-.576-3.174-1.28zm-420.363-23.716c0-4.889.522-6.889 1.161-4.444.639 2.444.639 6.444 0 8.889-.639 2.444-1.161.444-1.161-4.445zm448.243-6.912c4.508-.561 12.508-.57 17.777-.02 5.27.55 1.58 1.008-8.197 1.02-9.778.01-14.089-.439-9.58-1zm254.025-.005c4.54-.563 11.968-.563 16.507 0 4.54.563.826 1.024-8.254 1.024-9.079 0-12.793-.46-8.253-1.024zm-688.89-41.337c2.529-2.793 5.169-5.08 5.867-5.08.699 0-.798 2.287-3.327 5.08-2.528 2.794-5.168 5.08-5.866 5.08-.699 0 .798-2.286 3.327-5.08zm193.651-16.92c1.746-.704 4.604-.704 6.35 0 1.746.705.317 1.281-3.175 1.281s-4.92-.576-3.175-1.28zm101.588 0c1.746-.704 4.603-.704 6.349 0 1.746.705.317 1.281-3.175 1.281s-4.92-.576-3.174-1.28zm71.11-81.447c5.937-.535 15.652-.535 21.588 0 5.937.534 1.08.972-10.793.972-11.874 0-16.73-.438-10.794-.972zm307.302 0c5.937-.535 15.651-.535 21.588 0 5.936.534 1.08.972-10.794.972-11.873 0-16.73-.438-10.794-.972zm143.873-60.363c0-20.952.397-29.186.874-18.297.478 10.89.475 28.033-.01 38.096-.48 10.063-.87 1.153-.867-19.799zM626.825 445.25c1.834-.733 4.024-.643 4.868.2.844.845-.656 1.445-3.333 1.335-2.959-.122-3.56-.724-1.535-1.535zm388.572 0c1.833-.733 4.024-.643 4.867.2.844.845-.656 1.445-3.333 1.335-2.958-.122-3.56-.724-1.534-1.535zm-603.968-22.08c0-.528 2-2.528 4.444-4.445 4.028-3.16 4.118-3.07.959.959-3.318 4.23-5.403 5.575-5.403 3.485zm101.587-33.328c4.738-4.889 9.187-8.889 9.885-8.889.699 0-2.607 4-7.345 8.89-4.739 4.888-9.187 8.888-9.886 8.888-.698 0 2.607-4 7.346-8.889zm551.839-10.768c8.082-.506 20.654-.501 27.936.01 7.283.511.67.925-14.696.92-15.365-.006-21.323-.425-13.24-.93zm-226.032-2.54c8.083-.505 20.654-.5 27.936.01 7.283.512.67.925-14.696.92-15.365-.006-21.323-.425-13.24-.93zm-439.458-12.638c3.841-.582 10.127-.582 13.968 0 3.842.582.699 1.058-6.984 1.058-7.682 0-10.825-.476-6.984-1.058zm78.908-31.197c0-9.079.461-12.793 1.025-8.254.563 4.54.563 11.969 0 16.508-.564 4.54-1.025.826-1.025-8.254zm-33.628 8.678c.122-2.959.724-3.56 1.534-1.535.734 1.834.644 4.024-.2 4.868-.844.844-1.444-.656-1.334-3.333zm375.536-5.503-8.752-9.524 9.523 8.752c5.238 4.814 9.524 9.1 9.524 9.524 0 1.94-2.149.113-10.295-8.752zm240.801 7.728c3.16-.608 7.73-.585 10.159.05 2.428.637-.157 1.134-5.744 1.105-5.587-.028-7.574-.548-4.415-1.155zm5.598-15.347-13.882-14.603 14.604 13.881c13.566 12.897 15.766 15.325 13.881 15.325-.397 0-6.968-6.571-14.603-14.603zm-621.935-12.275c.122-2.959.724-3.56 1.534-1.535.734 1.834.644 4.024-.2 4.868-.844.844-1.444-.656-1.334-3.333zm652.174-10.582c-3.16-4.028-3.07-4.118.959-.959 2.444 1.917 4.444 3.917 4.444 4.444 0 2.09-2.085.745-5.403-3.485zm-701.263-9.936c1.746-.705 4.603-.705 6.349 0 1.746.704.317 1.28-3.175 1.28s-4.92-.576-3.174-1.28zm163.67-4.667c.051-4.19.62-5.598 1.264-3.127s.602 5.9-.094 7.62c-.696 1.719-1.223-.303-1.17-4.493zm218.643-5.08c.02-6.984.513-9.54 1.096-5.68.584 3.861.568 9.576-.034 12.7-.603 3.123-1.08-.036-1.062-7.02zm-563.844-6.349c0-6.286.495-8.857 1.1-5.714.606 3.143.606 8.286 0 11.428-.605 3.143-1.1.572-1.1-5.714zm249.226-.635-4.838-5.714 5.714 4.838c5.37 4.547 6.87 6.59 4.838 6.59-.482 0-3.053-2.571-5.714-5.714zm95.974-10.793c.052-4.191.621-5.598 1.265-3.127.644 2.471.602 5.9-.094 7.62-.696 1.719-1.223-.303-1.17-4.493zm-195.65-29.207c0-3.492.577-4.92 1.282-3.174.704 1.746.704 4.603 0 6.349-.705 1.746-1.281.317-1.281-3.175zm0-15.238c0-3.492.577-4.92 1.282-3.175.704 1.747.704 4.604 0 6.35-.705 1.746-1.281.317-1.281-3.175zm114.086-19.26c.122-2.958.723-3.56 1.534-1.534.734 1.834.644 4.024-.2 4.868-.844.844-1.444-.656-1.334-3.333zm-82.06-10.517c4.565-.565 11.422-.554 15.238.026 3.816.58.082 1.042-8.3 1.028-8.38-.015-11.503-.489-6.938-1.054zm528.707-61.017-8.752-9.523 9.523 8.752c5.238 4.813 9.524 9.1 9.524 9.524 0 1.939-2.149.112-10.295-8.753zm-76.104-22.857L824.127 85.08l24.762 24.077c13.619 13.242 24.762 24.385 24.762 24.762 0 1.84-3.085-1.078-25.447-24.077zM170.159 62.222c3.28-3.492 6.536-6.349 7.234-6.349.699 0-1.414 2.857-4.695 6.35-3.28 3.491-6.536 6.348-7.234 6.348-.699 0 1.414-2.857 4.695-6.349zm637.268-43.81-6.157-6.983 6.984 6.157c6.528 5.754 8.149 7.81 6.157 7.81-.455 0-3.598-3.142-6.984-6.983zM213.968 13.34c17.81-.436 46.953-.436 64.762 0 17.81.437 3.238.794-32.38.794-35.62 0-50.191-.357-32.382-.794z" transform="matrix(.9642 0 0 .83655 .273 -6.132)"/><path style="fill:#6581af;stroke-width:2.53968" d="M93.333 1418c1.746-.704 4.604-.704 6.35 0 1.746.705.317 1.282-3.175 1.282s-4.92-.577-3.175-1.281zm5.11-5.193c3.158-.608 7.73-.584 10.158.051 2.428.636-.157 1.133-5.744 1.105-5.587-.029-7.574-.549-4.415-1.156zm1026.636-14.4c0-.528 2-2.528 4.445-4.445 4.028-3.16 4.118-3.07.959.959-3.318 4.23-5.404 5.575-5.404 3.485zM36.506 1392.18c.202-2.68-1.418-4.097-4.396-3.846-3.475.294-3.968-.349-1.876-2.44 2.091-2.092 4.223-1.455 8.101 2.423 4.295 4.296 4.581 5.524 1.557 6.685-2.39.917-3.592-.085-3.386-2.822zm926.506-9.953c23.307-.418 62.164-.42 86.35 0 24.184.418 5.114.76-42.378.762-47.492 0-67.28-.341-43.972-.76zm-789.679-2.536c16.413-.443 43.27-.443 59.683 0 16.413.442 2.984.804-29.841.804-32.826 0-46.254-.362-29.842-.804zm534.603.01c12.921-.461 34.064-.461 46.985 0 12.92.46 2.349.838-23.492.838-25.842 0-36.413-.377-23.493-.838zm403.014-84.458c0-37.016.355-52.159.79-33.65.433 18.507.433 48.793 0 67.3-.435 18.509-.79 3.366-.79-33.65zM11.852 1341.799c-.931-.931-1.693-2.874-1.693-4.317 0-1.592 1.183-1.442 3.005.38 1.653 1.653 2.415 3.596 1.693 4.318-.722.722-2.074.55-3.005-.381zm32.466-103.704c0-48.889.342-68.53.758-43.646s.416 64.884-.001 88.89c-.417 24.005-.758 3.645-.757-45.244zm-33.244 52.064c0-13.27.428-18.699.951-12.064.524 6.635.524 17.492 0 24.127-.523 6.635-.95 1.207-.95-12.063zm863.338 10.158c0-7.682.476-10.825 1.058-6.984.582 3.842.582 10.127 0 13.969-.582 3.84-1.058.698-1.058-6.984zm-595.523-121.1c1.833-.733 4.024-.643 4.868.2.844.845-.656 1.445-3.334 1.335-2.958-.122-3.56-.724-1.534-1.535zm304.762 0c1.833-.733 4.024-.643 4.868.2.843.845-.657 1.445-3.334 1.335-2.958-.122-3.56-.724-1.534-1.535zm-334.562-35.302c.122-2.958.724-3.56 1.535-1.534.733 1.833.643 4.024-.2 4.868-.845.844-1.445-.656-1.335-3.334zm47.419 2.34c1.746-.705 4.603-.705 6.35 0 1.745.704.317 1.28-3.175 1.28-3.493 0-4.921-.576-3.175-1.28zm327.778-.053c1.833-.734 4.024-.644 4.867.2.844.844-.656 1.444-3.333 1.334-2.958-.122-3.56-.724-1.534-1.535zm-70.046-8.424c0-4.89.523-6.89 1.161-4.445.64 2.445.64 6.445 0 8.89-.638 2.444-1.161.444-1.161-4.445zm-304.66-10.159c0-6.286.496-8.857 1.101-5.714.606 3.143.606 8.285 0 11.428-.605 3.143-1.1.572-1.1-5.714zm383.729-13.968c.008-13.968.433-19.359.947-11.979.515 7.38.51 18.81-.012 25.397-.522 6.588-.943.55-.936-13.418zm-305.195 15.238c.052-4.19.621-5.597 1.265-3.126.644 2.47.602 5.9-.094 7.619-.696 1.72-1.223-.303-1.17-4.493zm58.588-8.172c3.86-.584 9.574-.568 12.698.034 3.124.603-.035 1.08-7.019 1.062-6.984-.02-9.54-.513-5.68-1.096zm84.924-35.618 81.784-.725.937-14.568.936-14.568-.181 15.238-.181 15.238-82.54.054-82.54.054 81.785-.724zm115.442-13.353c0-3.492.576-4.92 1.28-3.175.705 1.747.705 4.604 0 6.35-.704 1.746-1.28.317-1.28-3.175zm15.507-14.52c3.86-.585 9.574-.569 12.698.034 3.124.603-.035 1.08-7.019 1.062-6.984-.02-9.54-.513-5.68-1.096zm372.095-10.2c5.974-.536 15.117-.529 20.318.018 5.2.546.314.985-10.861.976-11.175-.01-15.43-.456-9.457-.993zM874.66 967.62c0-20.254.394-28.54.877-18.413.482 10.127.482 26.699 0 36.826-.483 10.127-.877 1.841-.877-18.413zM8.714 895.24c.002-33.525.363-46.888.803-29.697.44 17.192.439 44.62-.003 60.953-.441 16.332-.801 2.267-.8-31.257zm35.4 1.269c0-14.667.42-20.667.933-13.333.513 7.333.513 19.333 0 26.666-.513 7.334-.933 1.334-.933-13.333zm921.649-50.014c2.47-.644 5.9-.602 7.619.094 1.72.696-.303 1.223-4.493 1.171-4.19-.052-5.597-.621-3.126-1.265zm41.856.078c1.746-.705 4.603-.705 6.35 0 1.745.705.317 1.281-3.175 1.281s-4.921-.576-3.175-1.281zm-994.425-9.747c.051-4.19.62-5.597 1.264-3.126.644 2.471.602 5.9-.094 7.62-.695 1.719-1.222-.303-1.17-4.494zm946.171-20.73c1.746-.704 4.603-.704 6.35 0 1.745.705.317 1.282-3.175 1.282s-4.921-.577-3.175-1.281zm53.492-.052c1.833-.734 4.024-.643 4.868.2.844.844-.656 1.445-3.333 1.334-2.96-.122-3.56-.723-1.535-1.534zm-944.286-3.195c0-1.314 1.13-3.088 2.511-3.941 1.44-.89 1.865.13.998 2.39-1.688 4.4-3.509 5.204-3.509 1.551zm34.921-9.45c1.746-.705 4.603-.705 6.35 0 1.745.704.317 1.28-3.175 1.28s-4.921-.576-3.175-1.28zm718.889-.053c1.833-.734 4.024-.644 4.868.2.844.844-.656 1.444-3.334 1.334-2.958-.122-3.56-.724-1.534-1.535zm-479.97-2.71c54.929-.382 144.072-.381 198.095.001 54.023.382 9.081.695-99.871.695s-153.153-.313-98.224-.695zm485.05-30.306c1.833-.734 4.023-.644 4.867.2.844.844-.656 1.444-3.333 1.334-2.959-.122-3.56-.724-1.535-1.534zm-637.62-2.665c5.937-.534 15.651-.534 21.588 0 5.936.535 1.079.972-10.794.972-11.873 0-16.73-.437-10.794-.972zm82.54.11c2.444-.64 6.444-.64 8.889 0 2.444.638.444 1.16-4.445 1.16s-6.889-.522-4.444-1.16zm79.176-1.637c-.715-1.863-.912-13.006-.437-24.762l.862-21.375.517 23.464.517 23.464 106.032.692 106.031.691-106.111.607c-86.517.494-106.352-.02-107.411-2.781zm259.872 1.514c7.333-.513 19.333-.513 26.666 0 7.334.513 1.334.933-13.333.933s-20.667-.42-13.333-.933zm142.222.035c4.54-.563 11.968-.563 16.508 0 4.54.564.825 1.025-8.254 1.025-9.08 0-12.794-.461-8.254-1.025zm-189.201-12.13c.028-5.588.548-7.574 1.156-4.415.607 3.159.584 7.73-.052 10.158-.635 2.429-1.132-.156-1.104-5.743zm-246.35-5.08c.029-5.587.55-7.574 1.157-4.415.607 3.16.584 7.73-.052 10.16-.635 2.427-1.132-.158-1.104-5.745zm363.03-22.857c.052-4.19.621-5.597 1.265-3.126.644 2.47.601 5.9-.094 7.619-.696 1.72-1.223-.302-1.171-4.493zm-80.722-8.889.227-8.889h48.254l.266 9.546.266 9.546-1.054-8.911-1.055-8.91h-45.1l-1.016 8.253c-1.012 8.224-1.014 8.222-.788-.635zm-282.747 3.598c.122-2.959.723-3.56 1.534-1.534.734 1.833.644 4.023-.2 4.867-.844.844-1.444-.656-1.334-3.333zm-48.254-7.619c.122-2.959.724-3.56 1.534-1.534.734 1.833.644 4.023-.2 4.867-.844.844-1.444-.656-1.334-3.333zm8.059-75.979c.028-5.587.548-7.574 1.156-4.415.607 3.16.584 7.73-.052 10.16-.635 2.427-1.132-.158-1.104-5.745zm434.315 7.067c3.86-.584 9.575-.569 12.698.034 3.124.603-.035 1.08-7.019 1.062-6.984-.02-9.54-.513-5.68-1.097zm218.228-.075c17.727-.436 47.441-.437 66.032-.003 18.59.435 4.086.792-32.231.793-36.318.001-51.528-.354-33.801-.79zm-322.624-33.659c0-3.492.577-4.92 1.281-3.174.705 1.746.705 4.603 0 6.35-.704 1.745-1.28.317-1.28-3.176zm199.772 3.177c31.174-.404 81.46-.404 111.746.001s4.78.736-56.68.735c-61.461 0-86.24-.332-55.066-.736zM402.07 589.844c26.282-.413 68.567-.412 93.968.001 25.4.414 3.898.752-47.785.751-51.683 0-72.465-.34-46.183-.752zm-67.468-30.256c1.746-.705 4.603-.705 6.35 0 1.745.704.317 1.28-3.175 1.28s-4.92-.576-3.175-1.28zM755.1 475.557c37.464-.396 98.035-.396 134.603 0 36.569.397 5.917.721-68.115.72-74.031 0-103.951-.324-66.488-.72zm-358.274-7.535c3.842-.582 10.127-.582 13.969 0 3.84.582.698 1.058-6.984 1.058-7.683 0-10.826-.476-6.985-1.058zm238.73-22.789c2.445-.638 6.445-.638 8.89 0 2.444.64.444 1.162-4.445 1.162s-6.889-.523-4.444-1.162zm368.303-.01c2.47-.644 5.9-.601 7.619.094 1.72.696-.302 1.223-4.493 1.171-4.19-.052-5.597-.62-3.126-1.265zm-603.064-20.291c1.833-.734 4.023-.644 4.867.2.844.844-.656 1.444-3.333 1.334-2.959-.122-3.56-.724-1.534-1.534zm491.27-48.396c8.031-.504 21.174-.504 29.206 0s1.46.916-14.603.916c-16.064 0-22.635-.412-14.604-.916zm-503.969-12.557c1.834-.733 4.024-.643 4.868.2.844.845-.656 1.445-3.333 1.335-2.959-.122-3.56-.724-1.535-1.535zm33.016 0c1.833-.733 4.024-.643 4.868.2.844.845-.656 1.445-3.333 1.335-2.96-.122-3.56-.724-1.535-1.535zm-57.736-17.524c.122-2.959.724-3.56 1.534-1.534.734 1.833.644 4.023-.2 4.867-.844.844-1.444-.656-1.334-3.333zm-33.016-2.54c.122-2.958.724-3.56 1.535-1.534.733 1.833.643 4.024-.2 4.868-.845.844-1.445-.656-1.335-3.334zm745.99-.253c1.834-.734 4.024-.644 4.868.2.844.844-.656 1.444-3.333 1.334-2.959-.122-3.56-.723-1.535-1.534zm11.664-47.154-4.838-5.714 5.714 4.838c5.37 4.546 6.87 6.59 4.838 6.59-.482 0-3.053-2.571-5.714-5.714zM778.145 240c.005-19.556.403-27.22.886-17.032.483 10.188.48 26.188-.008 35.556-.487 9.367-.882 1.032-.878-18.524zm-382.59 22.445c1.747-.705 4.604-.705 6.35 0 1.746.705.317 1.281-3.175 1.281s-4.92-.576-3.174-1.281zm196.392-4.879c.121-2.958.723-3.56 1.534-1.534.734 1.833.643 4.024-.2 4.867-.844.844-1.445-.656-1.334-3.333zm-130.201-23.11c1.833-.734 4.024-.644 4.868.2.844.844-.656 1.444-3.334 1.334-2.958-.122-3.56-.724-1.534-1.534zm-98.37-20.064c.121-2.96.723-3.56 1.533-1.535.734 1.833.644 4.024-.2 4.868-.844.844-1.444-.656-1.334-3.333zm114.285-2.54c.122-2.959.723-3.56 1.534-1.535.734 1.834.644 4.024-.2 4.868-.844.844-1.444-.656-1.334-3.333zm-94.645-18.031c1.833-.734 4.024-.644 4.868.2.844.844-.657 1.444-3.334 1.334-2.958-.122-3.56-.724-1.534-1.534zm35.555 0c1.834-.734 4.024-.644 4.868.2.844.844-.656 1.444-3.333 1.334-2.959-.122-3.56-.724-1.535-1.534zm95.473-24.297-4.838-5.714 5.715 4.838c5.37 4.546 6.87 6.59 4.838 6.59-.482 0-3.054-2.571-5.715-5.714zm-257.536-7.943c0-.528 2-2.528 4.444-4.445 4.028-3.159 4.118-3.069.96.96-3.319 4.23-5.404 5.575-5.404 3.485zm685.577-11.105-8.752-9.524 9.524 8.753c5.238 4.813 9.524 9.099 9.524 9.523 0 1.94-2.15.113-10.296-8.752zm-554.149-60.73c1.747-.704 4.604-.704 6.35 0 1.746.705.317 1.282-3.175 1.282s-4.92-.577-3.174-1.281zM323.365 46.35c57.025-.381 149.596-.381 205.714 0 56.118.381 9.462.693-103.681.693s-159.058-.312-102.033-.693zm500.643-11.43-10.039-10.793 10.794 10.04c10.038 9.336 11.96 11.547 10.04 11.547-.416 0-5.273-4.857-10.795-10.793zM365.252 13.336c31.174-.404 81.46-.403 111.746.002 30.286.404 4.78.735-56.68.735-61.46-.001-86.24-.332-55.066-.737z" transform="matrix(.9642 0 0 .83655 .273 -6.132)"/><path style="fill:#485591;stroke-width:2.53968" d="M78.73 1417.143c4.992-3.226 12.699-3.226 12.699 0 0 1.397-3.715 2.522-8.254 2.5-6.264-.03-7.336-.632-4.445-2.5zm39.944-4.373c4.508-.56 12.508-.57 17.777-.02 5.27.55 1.58 1.009-8.197 1.02-9.778.01-14.089-.438-9.58-1zm1003.866-16.903c0-.528 2-2.528 4.444-4.445 4.028-3.159 4.118-3.07.959.959-3.318 4.23-5.403 5.576-5.403 3.486zm11.746-11.226c-.689-1.115-.328-3.522.802-5.35 1.443-2.335 2.572-2.488 3.792-.514.956 1.546.46 2.81-1.102 2.81s-2.133 1.143-1.27 2.54.998 2.54.3 2.54c-.699 0-1.834-.912-2.522-2.026zm-225.685-2.31c3.16-.608 7.73-.585 10.159.05 2.428.637-.157 1.134-5.744 1.105-5.587-.028-7.574-.548-4.415-1.156zm-789.927-2.577c4.508-.56 12.508-.57 17.777-.02 5.27.55 1.58 1.01-8.197 1.02-9.778.01-14.089-.438-9.58-1zm665.453 0c4.54-.563 11.968-.563 16.508 0 4.54.564.825 1.025-8.254 1.025-9.08 0-12.794-.461-8.254-1.025zM58.22 1364.45l-6.157-6.984 6.985 6.157c3.84 3.386 6.984 6.529 6.984 6.984 0 1.992-2.057.37-7.812-6.157zm847.13-272.381c0-143.175.306-201.746.681-130.159.375 71.587.375 188.73 0 260.318-.375 71.587-.681 13.015-.681-130.16zM7.619 1342.072c0-2.177 1.143-3.253 2.54-2.39 1.397.864 2.54 2.646 2.54 3.96s-1.143 2.39-2.54 2.39-2.54-1.782-2.54-3.96zm36.247-6.199c0-6.286.496-8.857 1.1-5.714.606 3.143.606 8.286 0 11.428-.604 3.143-1.1.572-1.1-5.714zm-30.967-1.481c.122-2.959.724-3.56 1.534-1.535.734 1.834.644 4.024-.2 4.868-.844.844-1.444-.656-1.334-3.333zm861.153-16.297c0-3.492.576-4.92 1.28-3.174.705 1.746.705 4.603 0 6.349-.704 1.746-1.28.317-1.28-3.175zM9.21 1122.54c-1.141-80.318-1.664-151.175-1.163-157.46.502-6.286 1.87 55.428 3.04 137.142s1.693 152.572 1.162 157.46c-.53 4.89-1.898-56.825-3.04-137.142zm1101.84-87.62c0-107.555.313-151.184.695-96.954.383 54.23.383 142.23 0 195.556-.383 53.325-.696 8.954-.696-98.601zm-824.542 144.297c1.833-.733 4.024-.643 4.868.2.844.845-.656 1.445-3.334 1.335-2.958-.122-3.56-.724-1.534-1.535zm40.635 0c1.833-.733 4.024-.643 4.868.2.843.845-.657 1.445-3.334 1.335-2.958-.122-3.56-.724-1.534-1.535zm263.968.053c1.746-.704 4.603-.704 6.35 0 1.745.705.317 1.282-3.175 1.282s-4.92-.577-3.175-1.281zm35.556 0c1.746-.704 4.603-.704 6.349 0 1.746.705.317 1.282-3.175 1.282s-4.92-.577-3.174-1.281zm-268.17-26.254c0-3.492.576-4.92 1.28-3.175.705 1.747.705 4.604 0 6.35-.704 1.746-1.28.317-1.28-3.175zm-72.148-6.761c1.746-.705 4.603-.705 6.35 0 1.745.704.317 1.28-3.175 1.28s-4.92-.576-3.175-1.28zm85.128-25.475c2.47-.644 5.9-.602 7.619.094 1.72.696-.302 1.222-4.493 1.17-4.19-.051-5.597-.62-3.126-1.264zm261.374-45.69c-.45-15.042-.765-15.75-7.454-16.763l-6.984-1.058 7.064-.38c8.643-.466 10.002 2.665 8.788 20.24l-.944 13.665zm73.18 5.545c4.74-4.889 9.188-8.889 9.886-8.889.698 0-2.607 4-7.346 8.89-4.738 4.888-9.186 8.888-9.885 8.888-.698 0 2.607-4 7.346-8.889zm-323.174 4.667c1.746-.704 4.603-.704 6.35 0 1.745.705.317 1.281-3.175 1.281s-4.92-.576-3.175-1.28zm-151.938-28.159-6.157-6.984 6.984 6.157c6.528 5.755 8.149 7.811 6.157 7.811-.455 0-3.598-3.143-6.984-6.984zm449.716 3.486c0-.528 2-2.528 4.444-4.445 4.028-3.159 4.118-3.069.96.96-3.319 4.23-5.404 5.575-5.404 3.485zm-114.286-28.248c3.28-3.492 6.536-6.35 7.235-6.35.698 0-1.414 2.858-4.695 6.35-3.28 3.492-6.536 6.35-7.235 6.35-.698 0 1.415-2.858 4.695-6.35zm-218.736-.635c-3.16-4.028-3.07-4.118.958-.959 2.445 1.917 4.445 3.917 4.445 4.445 0 2.09-2.086.745-5.403-3.486zm610.53-15.093c2.472-.644 5.9-.602 7.62.094 1.719.695-.303 1.222-4.493 1.17-4.19-.052-5.597-.62-3.126-1.264zm52.016.078c1.746-.705 4.603-.705 6.349 0 1.746.704.317 1.28-3.175 1.28s-4.92-.576-3.174-1.28zM874.566 909.206c0-13.27.428-18.698.952-12.063.523 6.635.523 17.492 0 24.127-.524 6.635-.952 1.206-.952-12.064zm-830.75-46.984c.027-5.587.547-7.574 1.155-4.415.607 3.16.584 7.731-.051 10.16-.636 2.427-1.133-.157-1.105-5.745zm-30.528-11.428c0-4.89.522-6.89 1.161-4.445.639 2.445.639 6.445 0 8.89-.639 2.444-1.161.444-1.161-4.445zm968.934-4.377c4.54-.564 11.968-.564 16.508 0 4.54.563.826 1.024-8.254 1.024s-12.793-.46-8.254-1.024zM10.16 829.478c0-.549 1.773-1.679 3.941-2.51 2.26-.868 3.28-.442 2.39.998-1.491 2.413-6.331 3.569-6.331 1.512zm968.33-13.57c6.677-.525 16.963-.519 22.857.015 5.895.533.432.962-12.14.954-12.571-.008-17.394-.443-10.717-.968zm-958.648-4.944c1.834-.734 4.024-.644 4.868.2.844.844-.656 1.444-3.333 1.334-2.959-.122-3.56-.724-1.535-1.535zm73.492-7.567c1.746-.704 4.604-.704 6.35 0 1.746.705.317 1.281-3.175 1.281s-4.92-.576-3.175-1.28zm88.89-2.747c11.523-.47 30.38-.47 41.904 0 11.524.47 2.095.856-20.952.856-23.048 0-32.477-.385-20.953-.856zm486.198-.008c17.728-.436 47.442-.437 66.032-.003 18.59.435 4.087.791-32.23.793-36.318 0-51.529-.354-33.802-.79zM54.18 778.412c0-1.829 1.376-2.796 3.059-2.15 1.682.645 4.847-.616 7.034-2.802 2.186-2.186 4.57-3.012 5.298-1.834.727 1.177-2.438 3.933-7.034 6.125-6.55 3.124-8.357 3.267-8.357.66zm765.661-8.083c1.834-.734 4.024-.644 4.868.2.844.844-.656 1.444-3.333 1.334-2.959-.122-3.56-.724-1.535-1.534zm-645.08-2.54c1.834-.734 4.025-.643 4.869.2.844.844-.656 1.444-3.334 1.334-2.958-.122-3.56-.723-1.534-1.534zm112.858-.015c2.444-.64 6.444-.64 8.889 0 2.444.639.444 1.161-4.445 1.161-4.888 0-6.888-.522-4.444-1.161zm435.556-.087c4.54-.563 11.968-.563 16.508 0 4.54.564.825 1.024-8.254 1.024-9.08 0-12.794-.46-8.254-1.024zm-456.308-4.723c.122-2.96.724-3.56 1.535-1.535.733 1.833.643 4.024-.2 4.868-.845.844-1.445-.656-1.335-3.333zm50.794 0c.122-2.96.723-3.56 1.534-1.535.734 1.833.644 4.024-.2 4.868-.844.844-1.444-.656-1.334-3.333zm-80.52-32.805c.005-15.365.424-21.324.929-13.24.506 8.082.5 20.653-.01 27.936-.512 7.282-.925.669-.92-14.696zm444.083 11.428c0-4.889.523-6.889 1.162-4.444.638 2.444.638 6.444 0 8.889-.64 2.444-1.162.444-1.162-4.445zm-11.072-57.777c-3.159-4.029-3.069-4.118.96-.96 2.444 1.918 4.444 3.918 4.444 4.445 0 2.09-2.086.745-5.404-3.485zm-392.686-27.302c.028-5.587.548-7.574 1.156-4.415.607 3.16.584 7.73-.052 10.159-.635 2.428-1.132-.157-1.104-5.744zM163.71 542.222c0-64.254.33-90.175.733-57.603.402 32.572.401 85.143-.001 116.825-.403 31.682-.732 5.032-.732-59.222zM769.996 645.72c23.308-.418 62.165-.42 86.35-.002 24.184.418 5.114.76-42.378.762-47.492 0-67.28-.341-43.972-.76zm-69.52-27.771c1.834-.734 4.024-.644 4.868.2.844.844-.656 1.444-3.333 1.334-2.959-.122-3.56-.724-1.535-1.534zm-353.174-27.884c1.746-.704 4.603-.704 6.349 0 1.746.705.317 1.281-3.175 1.281s-4.92-.576-3.174-1.28zm200.578-.15c4.508-.562 12.508-.571 17.778-.021 5.269.55 1.58 1.009-8.198 1.02-9.777.01-14.089-.439-9.58-1zM348.57 559.45c3.842-.582 10.127-.582 13.969 0 3.84.582.698 1.058-6.984 1.058-7.683 0-10.826-.476-6.985-1.058zm278.254-86.265c1.834-.734 4.024-.644 4.868.2.844.844-.656 1.444-3.333 1.334-2.959-.122-3.56-.724-1.535-1.534zm385.873.053c1.746-.705 4.604-.705 6.35 0 1.746.704.317 1.28-3.175 1.28s-4.92-.576-3.175-1.28zM657.21 445.12c5.973-.536 15.116-.529 20.317.018 5.202.546.314.985-10.86.976-11.175-.01-15.43-.456-9.457-.993zm316.123.013c5.238-.548 13.81-.548 19.048 0 5.238.548.952.996-9.524.996-10.476 0-14.762-.448-9.524-.996zM399.4 435.003c3.86-.584 9.575-.568 12.698.034 3.124.603-.034 1.08-7.019 1.062-6.984-.02-9.54-.513-5.679-1.096zm123.775-9.295c0-.528 2-2.528 4.444-4.445 4.028-3.159 4.118-3.069.959.96-3.318 4.23-5.403 5.575-5.403 3.485zm-250.279-12.375-10.039-10.793 10.794 10.039c10.038 9.336 11.96 11.548 10.039 11.548-.415 0-5.272-4.857-10.794-10.794zm273.136-10.482c0-.528 2-2.528 4.444-4.445 4.028-3.159 4.118-3.069.96.96-3.319 4.23-5.404 5.575-5.404 3.485zm-203.499-23.803c-3.159-4.028-3.069-4.118.96-.96 2.443 1.918 4.443 3.918 4.443 4.445 0 2.09-2.085.745-5.403-3.485zm606.773-2.518c8.785-.498 22.499-.493 30.476.01 7.977.502.79.91-15.972.904-16.762-.005-23.29-.416-14.504-.913zm188.472-22.244c-1.74-2.096-2.251-3.81-1.138-3.81s-.748-3.143-4.134-6.984l-6.157-6.984 6.974 6.148c3.836 3.38 6.417 6.704 5.737 7.385-.681.68.035 2.771 1.59 4.646 1.556 1.875 2.258 3.408 1.56 3.408-.7 0-2.693-1.714-4.432-3.81zm-260.953-8.25c26.19-.414 69.048-.414 95.238 0 26.19.412 4.762.75-47.619.75-52.38 0-73.81-.338-47.619-.75zm-65.493-137.782c0-66.35.328-93.492.73-60.317.4 33.174.4 87.46 0 120.634-.402 33.175-.73 6.032-.73-60.317zm-466.411 112.55c1.833-.733 4.023-.643 4.867.201.844.844-.656 1.444-3.333 1.334-2.959-.122-3.56-.724-1.534-1.534zm434.962-4.825c.122-2.959.724-3.56 1.534-1.535.734 1.834.644 4.024-.2 4.868-.844.844-1.444-.656-1.334-3.333zm182.643-94.392-90.145-90.793 90.794 90.145c49.936 49.58 90.793 90.437 90.793 90.794 0 1.79-7.66-5.762-91.442-90.146zm-370.285 66.667c.052-4.19.621-5.597 1.265-3.126.644 2.47.602 5.9-.094 7.619-.696 1.72-1.223-.303-1.171-4.493zm446.462-41.27-44.417-45.08 45.08 44.418c24.793 24.43 45.078 44.715 45.078 45.08 0 1.81-4.474-2.536-45.741-44.418zM247.04 279.365c0-6.286.495-8.857 1.1-5.714.606 3.143.606 8.286 0 11.428-.605 3.143-1.1.572-1.1-5.714zm345.2-11.428c.052-4.191.621-5.598 1.265-3.127.644 2.471.602 5.9-.094 7.62-.696 1.719-1.223-.303-1.171-4.493zm-163.51-3.005c1.832-.734 4.023-.644 4.867.2.844.844-.656 1.444-3.333 1.334-2.959-.122-3.56-.724-1.535-1.534zm-40.636-2.54c1.834-.734 4.024-.643 4.868.2.844.844-.656 1.445-3.333 1.334-2.959-.122-3.56-.723-1.535-1.534zM778.21 156.19c-.002-27.936.369-39.711.825-26.166.455 13.544.457 36.402.005 50.793-.455 14.392-.828 3.31-.83-24.627zm-412.496 46.026c0-.528 2-2.528 4.445-4.445 4.028-3.159 4.118-3.069.959.96-3.318 4.23-5.404 5.575-5.404 3.485zm599.279-28.883L951.11 158.73l14.603 13.882c13.567 12.896 15.767 15.325 13.882 15.325-.397 0-6.969-6.572-14.603-14.604zm-440.79 6.35-4.838-5.715 5.714 4.838c5.37 4.547 6.87 6.59 4.838 6.59-.481 0-3.053-2.57-5.714-5.713zm-230.87-12.064c5.456-5.587 10.491-10.159 11.19-10.159.698 0-3.194 4.572-8.65 10.159-5.456 5.587-10.491 10.159-11.19 10.159-.698 0 3.194-4.572 8.65-10.159zm210.553-8.254-4.838-5.714 5.714 4.838c5.37 4.546 6.87 6.59 4.838 6.59-.482 0-3.053-2.571-5.714-5.714zm-229.6-15.562c0-.527 2-2.527 4.444-4.444 4.028-3.16 4.118-3.07.959.958-3.318 4.23-5.403 5.576-5.403 3.486zM401.94 89.606c3.86-.584 9.574-.568 12.698.035 3.124.603-.035 1.08-7.019 1.061-6.984-.019-9.54-.512-5.68-1.096zm415.514-10.24c-3.16-4.029-3.07-4.119.959-.96 2.444 1.917 4.444 3.917 4.444 4.445 0 2.09-2.085.745-5.403-3.486zm28.26-22.223c-6.169-6.286-10.645-11.429-9.946-11.429.698 0 6.317 5.143 12.486 11.429 6.169 6.286 10.645 11.428 9.946 11.428-.698 0-6.317-5.142-12.486-11.428zm-714.92 3.81c-.864-1.397-.36-2.54 1.12-2.54 1.479 0 2.69 1.143 2.69 2.54 0 1.396-.505 2.54-1.12 2.54-.617 0-1.827-1.144-2.69-2.54zm70.476-14.518c3.841-.582 10.127-.582 13.968 0 3.841.582.699 1.058-6.984 1.058s-10.825-.476-6.984-1.058zm464.762-.08c20.603-.427 54.317-.427 74.92 0 20.604.427 3.746.776-37.46.776s-58.063-.35-37.46-.776zM144.762 37.3c0-.438 3.714-4.152 8.254-8.254l8.254-7.46-7.46 8.254c-6.953 7.694-9.048 9.422-9.048 7.46zm449.066-23.966c35.367-.399 92.51-.398 126.984 0 34.474.4 5.537.726-64.304.725-69.841 0-98.047-.327-62.68-.725z" transform="matrix(.9642 0 0 .83655 .273 -6.132)"/><path style="fill:#0a0f62;stroke-width:2.53968" d="M107.937 1412.244c-35.383-1.347-38.92-1.935-49.67-8.255-15.013-8.826-31.919-27.295-38.695-42.273-5.203-11.501-5.426-16.547-7.098-160.446-.949-81.714-.875-198.452.164-259.417 1.869-109.603 1.957-110.984 7.911-123.175 3.312-6.78 5.663-13.472 5.223-14.868-.439-1.397-.024-1.766.922-.82.947.947 5.033-2.051 9.082-6.662 4.048-4.611 13.569-11.634 21.156-15.607 7.588-3.972 13.243-8.117 12.568-9.21-.676-1.093 2.553-1.907 7.176-1.809 7.225.154 7.691.516 3.324 2.585-3.492 1.655.477 2.001 12.698 1.11 9.778-.714 22.635-1.306 28.572-1.315l10.793-.019V65.938l6.62-12.659c3.64-6.962 12.335-17.799 19.322-24.08l12.703-11.421H803.3l27.312 26.914c15.022 14.803 28.28 27.09 29.462 27.302 1.182.213 1.9 1.137 1.594 2.053-.99 2.969 117.86 116.367 119.966 114.463 1.121-1.014 1.319-.58.44.962-.88 1.543 1.5 5.543 5.289 8.889l6.887 6.083-5.06-6.349-5.062-6.349 5.654 4.784c3.11 2.631 5.172 5.564 4.583 6.518-.59.954 16.693 19.372 38.406 40.93 21.712 21.558 55.365 56.149 74.782 76.868l35.305 37.672-.079 504.55-.079 504.551-5.635 9.036c-11.56 18.538-21.184 27.272-38.307 34.764-5.759 2.52-105.857 3.09-480 2.73-259.999-.25-489.868-1.107-510.82-1.905zm994.108-39.365 11.039-11.248-1.875-490.974c-1.031-270.036-2.075-491.193-2.319-491.46-.244-.268-65.558-1.305-145.143-2.305l-144.7-1.819-13.321-9.83c-7.327-5.407-15.049-12.466-17.16-15.688-6.608-10.085-8.724-40.743-8.805-127.56-.043-46.221-.83-104.793-1.75-130.16l-1.67-46.12H488.148c-208.415 0-290.87.8-297.86 2.895-5.315 1.593-13.145 6.486-17.398 10.875l-7.733 7.978-.674 347.425c-.669 344.869-.636 347.452 4.406 351.196 6.62 4.916 60.16 3.992 65.277-1.126 2.242-2.244 3.7-14.495 4.564-38.353.888-24.509 2.325-36.324 4.777-39.269 1.929-2.317 9.929-6.055 17.778-8.307 7.849-2.253 14.783-4.563 15.41-5.135.625-.571 1.893-19.827 2.817-42.791 1.617-40.185 1.936-42.089 8.517-50.716 3.76-4.93 10.492-10.87 14.96-13.198 11.743-6.12 57.544-8.138 188.44-8.297l111.746-.136 12.698 9.544c19.698 14.806 22.45 22.767 23.693 68.555l1.053 38.76 6.675 1.367c29.258 5.997 30.514 7.99 33.522 53.182 1.285 19.308 2.774 35.542 3.309 36.077.535.535 35.683 2.001 78.106 3.258 74.084 2.196 86.098 3.428 98.592 10.114 10.817 5.79 25.56 21.048 34.405 35.61l8.899 14.648v261.745c0 252.378-.172 262.045-4.819 270.144-8.814 15.364-9.01 19.332-1.01 20.537 3.905.588 48.86 1.24 99.903 1.45l92.805.38zm-149.61-129.06c-11.284-4.067-16.006-14.987-9.357-21.637 3.796-3.796 9.777-4.404 43.289-4.404 41.879 0 47.284 1.48 47.284 12.95 0 11-10.087 14.647-42.87 15.503-19.136.5-32.617-.348-38.346-2.413zm-6.283-203.468c-7.361-7.361-7.985-11.275-2.906-18.222 3.244-4.437 7.084-4.879 42.784-4.93 42.947-.061 47.62 1.304 47.62 13.912 0 12.21-5.06 13.889-44.709 14.839-36.059.864-36.366.824-42.79-5.599zm-1.431-199.239c-4.159-3.367-5.212-6.089-3.925-10.143 3.898-12.281 7.074-13.191 46.052-13.191 33.258 0 37.113.47 41.723 5.08 6.661 6.66 6.442 13.995-.565 18.903-4.464 3.126-13.17 3.953-41.623 3.953-30.951 0-36.773-.643-41.662-4.602zM688.78 642.05c-4.12-4.12-3.873-12.674.539-18.707 3.504-4.793 8.206-4.93 168.818-4.93h165.213l5.45 5.45c4.511 4.51 5.034 6.699 3.034 12.698l-2.416 7.249-168.786.652c-129.17.5-169.506-.067-171.852-2.412zm-65.238-169.343c-8.166-1.29-10.597-2.99-12.647-8.846-2.16-6.167-1.704-7.926 3.048-11.773 4.9-3.968 13.94-4.757 73.6-6.426 37.407-1.046 127.673-1.343 200.591-.66 118.202 1.107 133.28 1.7 139.048 5.48 7.474 4.897 8.575 14.449 2.27 19.683-3.47 2.882-38.13 3.542-200 3.812-107.69.179-200.35-.393-205.91-1.27zm-252.557-8.167c-38.873-7.626-66.285-22.623-96.966-53.048-26.93-26.706-39.36-46.172-50.04-78.37-5.638-16.997-6.459-23.828-6.459-53.757s.821-36.76 6.459-53.756c16.794-50.632 52.24-91.564 99.83-115.282 27.55-13.73 50.023-18.796 83.648-18.854 71.6-.125 134.127 39.496 167.644 106.23 23.794 47.376 22.77 116.632-2.466 166.852-24.058 47.875-71.293 84.505-125.83 97.579-22.554 5.407-55.24 6.444-75.82 2.406zm77.902-34.335c23.285-6.065 43.539-18.504 65.706-40.353 16.761-16.52 22.547-24.372 30.883-41.915 12.241-25.764 15.807-41.452 15.756-69.332-.045-25.316-5.085-47.868-15.672-70.127-10.391-21.85-47.281-59.117-68.858-69.562-31.338-15.172-75.884-21.17-105.419-14.197-19.028 4.493-56.482 23.777-70.84 36.474-7.265 6.424-18.942 20.253-25.95 30.73-33.325 49.825-35.677 112.366-6.202 164.882 11.414 20.336 41.7 50.205 61.306 60.461 36.086 18.878 78.73 23.503 119.29 12.939zm-55.514-13.062c-6.637-17.112-8.602-19.196-22.273-23.635-25.525-8.287-35.607-19.675-37.683-42.562-1.656-18.268 3.028-28.406 13.124-28.406 7.81 0 16.634 11.047 16.634 20.827 0 17.177 9.694 22.347 41.904 22.347 36.778 0 41.905-4.641 41.905-37.933 0-29.998-1.512-31.225-41.089-33.326-36.424-1.933-48.456-5.09-59.602-15.636-10.504-9.939-14.872-25.86-14.832-54.057.027-18.577 1.114-25.063 5.804-34.637 6.476-13.22 20.24-24.108 33.592-26.574 13.02-2.405 20.254-7.776 20.254-15.038 0-7.55 8.213-16.45 15.18-16.45 5.58 0 11.506 7.74 14.147 18.48 1.962 7.978 6.064 10.783 19.446 13.293 11.427 2.144 29.4 17.065 34.097 28.31 4.801 11.49 4.515 32.487-.512 37.514-4.9 4.9-17.224 5.22-21.103.546-1.573-1.895-3.893-8.976-5.156-15.736-3.59-19.214-11.747-22.599-50.798-21.077-29.726 1.159-31.617 2.896-32.857 30.196-1.103 24.296.488 31.846 7.503 35.6 2.906 1.555 20.892 3.9 39.97 5.21 31.656 2.173 35.563 2.99 44.723 9.344 15.851 10.995 19.53 19.662 21.019 49.506.794 15.935.157 30.132-1.65 36.77-3.973 14.586-16.75 26.67-35.956 34.003-13.56 5.179-16.301 7.308-18.743 14.56-5.43 16.126-22.071 21.394-27.048 8.56zM844.444 1376.1c10.66-5.9 20.518-16.863 25.897-28.798 4.268-9.469 4.636-24.136 5.403-215.873.863-215.506-.48-284.042-5.54-282.575-1.597.462-22.602 30.516-46.679 66.787-96.96 146.064-116.433 171.15-144.076 185.594l-14.04 7.336-.02 20.318c-.027 26.718-3.287 37.748-13.255 44.846-7.345 5.23-10.774 5.693-41.622 5.608-27.578-.076-34.83-.887-40.372-4.518-8.757-5.739-13.95-18.475-13.95-34.218 0-22.428 8.377-20.612-94.874-20.568-53.167.023-93.395 1.048-95.602 2.438-2.482 1.564-4.694 9.71-6.349 23.376-2.378 19.642-3.065 21.328-10.8 26.52-4.816 3.231-14.547 6.272-23.337 7.292-18.98 2.203-53.057-.708-60.086-5.133-8.765-5.517-13.71-19.332-13.748-38.408-.02-9.567-.709-19.908-1.533-22.981-.85-3.171-8.557-10.187-17.822-16.223-26.97-17.572-39.266-33.289-117.05-149.618-52.396-78.359-66.115-97.191-69.347-95.194-1.57.97-2.467 90.75-2.467 246.632v245.107l7.625 11.082c11.923 17.33 20.9 22.403 43.051 24.33 10.54.917 182.022 1.53 381.07 1.363 332.157-.28 362.53-.651 369.523-4.522zM325.08 1145.455c3.089-1.948 3.962-10.594 4.612-45.675l.802-43.272h-46.049v91.428l18.413-.038c10.127-.02 20.127-1.121 22.222-2.443zm308.615-3.233c.776-3.143 1.084-23.428.684-45.08l-.727-39.364-19.4-.737c-28.047-1.065-27.584-1.889-27.584 49.172v41.724h22.808c21.543 0 22.887-.318 24.22-5.715zm-77.504-75.548c0-19.769.245-20.581 9.185-30.476l9.184-10.166h32.555c35.786 0 41.004 1.167 51.299 11.476 5.17 5.177 6.984 9.504 6.984 16.657 0 21.519 11.827 14.98 39.314-21.735 38.607-51.566 143.543-211.038 143.543-218.142 0-2.623-3.831-6.096-9.524-8.634-8.7-3.879-36.871-4.321-325.714-5.116-374.157-1.03-444.445.841-444.445 11.83 0 3.641 24.068 41.784 81.48 129.135 84.068 127.904 97.13 141.97 102.348 110.21.829-5.045 4.268-12.602 7.644-16.792l6.136-7.62 36.852-.868 36.851-.868 9.6 8.798c9.017 8.262 9.664 9.861 10.643 26.265.574 9.607 1.96 18.447 3.08 19.645 4.734 5.057 23.598 6.205 106.001 6.451l86.984.26zm-251.8-298.782 15.61-1.631v-24.854c0-31.95-.786-32.836-29.163-32.836h-21.181l-.966 28.572c-.531 15.714-.565 29.428-.075 30.476 1.093 2.336 15.022 2.442 35.774.273zm262.062-35.78c1.813-47.72 2.681-49.006 37.535-55.624l5.892-1.118-.813-39.152c-.577-27.813-1.768-40.107-4.112-42.447-2.622-2.617-31.09-3.295-138.413-3.295-142.576 0-148.273.429-154.257 11.61-1.344 2.51-2.443 20.046-2.443 38.969v34.404l6.35 1.318c3.492.725 9.152 1.898 12.577 2.606 3.426.709 9.426 4.035 13.334 7.393l7.104 6.105.819 38.349.818 38.349 107.118-.663 107.118-.662zm83.707 6.936V708.57h-50.794v60.953h50.794zm384.127-392.79c30.182-1.055 47.619-2.63 47.619-4.303 0-3.139-263.23-265.765-266.375-265.765-4.446 0-5.316 21.914-5.343 134.508l-.028 115.459 10.687 10.89 10.688 10.89 77.566-.008c42.662-.005 98.995-.757 125.186-1.672zM8.114 1128.888c.052-4.19.621-5.596 1.265-3.125.644 2.47.602 5.9-.094 7.619-.696 1.72-1.223-.303-1.17-4.493zM786.667 13.447c3.143-.606 8.285-.606 11.428 0 3.143.605.572 1.1-5.714 1.1-6.286 0-8.857-.495-5.714-1.1z" transform="matrix(.9642 0 0 .83655 .273 -6.132)"/><path style="fill:#0d0d18;stroke-width:2.53968" d="M58.413 1409.36c-24.96-13.74-48.528-41.642-47.962-56.78.281-7.535.358-7.476 2.123 1.603 3.733 19.206 22.945 40.27 49.198 53.938 9.53 4.962 15.816 9.001 13.968 8.976-1.847-.025-9.645-3.507-17.327-7.736zm535.873 5.256c309.74-.792 503.53-2.208 506.666-3.702 10.386-4.948 26.518-16.99 31.728-23.685 3.58-4.601 4.515-5.118 2.795-1.545-3.493 7.257-18.491 20.145-30.683 26.364-9.91 5.055-13.864 5.09-511.04 4.473l-501.054-.623zm545.221-39.378c1.144-2.794 2.372-233.103 2.728-511.798l.647-506.719-60.605-62.17c-33.333-34.194-109.813-110.456-169.956-169.472L802.971 17.778H170.345l-17.236 15.561-17.236 15.562 17.166-16.831 17.166-16.832H805.08l170.179 169.524 170.18 169.524-.112 506.666c-.098 450.728-.54 507.368-4.005 513.016-2.142 3.492-2.959 4.064-1.815 1.27zM8.777 1236.825c0-56.571.335-79.714.744-51.428.408 28.286.408 74.571 0 102.857-.409 28.286-.743 5.143-.743-51.429zm2.53-314.92c0-50.984.339-71.841.753-46.35.414 25.493.414 67.207 0 92.699-.414 25.492-.753 4.635-.753-46.35zm1.592-96.658c-.11-2.177 1.577-6.177 3.749-8.889 3.886-4.85 3.912-4.848 1.613.15-1.285 2.794-2.972 6.794-3.75 8.889-1.22 3.29-1.439 3.27-1.612-.15zm9.298-18.898c6.835-12.817 38.657-37.77 42.837-33.59.577.577-3.608 3.15-9.301 5.717-5.693 2.567-16.177 11.032-23.298 18.81-7.12 7.778-11.727 11.857-10.238 9.063zM80 772.287c2.794-1.323 15.075-2.487 27.293-2.585l22.213-.178.653-354.92.652-354.921.626 356.19.626 356.19-10.793.018c-5.937.01-18.794.602-28.572 1.316-12.22.891-16.19.544-12.698-1.11zm52.063-716.264c0-1.314 1.13-3.088 2.511-3.942 1.44-.89 1.865.13.998 2.39-1.688 4.4-3.509 5.205-3.509 1.552z" transform="matrix(.9642 0 0 .83655 .273 -6.132)"/></svg>