<svg height="60" viewBox="0 0 60 60" width="60" xmlns="http://www.w3.org/2000/svg"><g id="Page-1" fill="none" fill-rule="evenodd"><g id="013---Checklist-Clock" fill-rule="nonzero"><path id="Shape" d="m29 5v4c0 .55228475-.4477153 1-1 1h-16c-.5522847 0-1-.44771525-1-1v-4c0-.55228475.4477153-1 1-1h2c.5522847 0 1-.44771525 1-1-.0028231-.53059053.2101411-1.0395388.59-1.41.3704612-.3798589.8794095-.59282307 1.41-.59h6c1.1032019.0032948 1.9967052.89679813 2 2 0 .55228475.4477153 1 1 1h2c.5522847 0 1 .44771525 1 1z" fill="#7f8e94"/><path id="Shape" d="m28 4h-2c-.5522847 0-1-.44771525-1-1-.0032948-1.10320187-.8967981-1.9967052-2-2h-3c1.1032019.0032948 1.9967052.89679813 2 2 0 .55228475.4477153 1 1 1h2c.5522847 0 1 .44771525 1 1v4c0 .55228475-.4477153 1-1 1h3c.5522847 0 1-.44771525 1-1v-4c0-.55228475-.4477153-1-1-1z" fill="#545c60"/><path id="Shape" d="m39 8v17.27c-5.9882821 1.0693021-10.9476087 5.2591824-13.0020439 10.9847589-2.0544351 5.7255765-.8903041 12.1126584 3.0520439 16.7452411h-25.05c-1.65685425 0-3-1.3431458-3-3v-42c0-1.65685425 1.34314575-3 3-3h7v4c0 .55228475.4477153 1 1 1h16c.5522847 0 1-.44771525 1-1v-4h7c1.6568542 0 3 1.34314575 3 3z" fill="#a0522d"/><path id="Shape" d="m36 5h-3c1.6568542 0 3 1.34314575 3 3v17.27c-5.9882821 1.0693021-10.9476087 5.2591824-13.0020439 10.9847589-2.0544351 5.7255765-.8903041 12.1126584 3.0520439 16.7452411h3c-3.942348-4.6325827-5.106479-11.0196646-3.0520439-16.7452411 2.0544352-5.7255765 7.0137618-9.9154568 13.0020439-10.9847589v-17.27c0-1.65685425-1.3431458-3-3-3z" fill="#783e22"/><path id="Shape" d="m35 10v16.51c-4.109164 1.8554242-7.3125281 5.2678049-8.9048625 9.4858967-1.5923343 4.2180919-1.443095 8.8960841.4148625 13.0041033h-20.51c-.55228475 0-1-.4477153-1-1v-38c0-.55228475.44771525-1 1-1h5c0 .55228475.4477153 1 1 1h16c.5522847 0 1-.44771525 1-1h5c.5522847 0 1 .44771525 1 1z" fill="#f5f5f5"/><path id="Shape" d="m34 9h-3c.5522847 0 1 .44771525 1 1v16.51c-4.109164 1.8554242-7.3125281 5.2678049-8.9048625 9.4858967-1.5923343 4.2180919-1.443095 8.8960841.4148625 13.0041033h3c-1.8579575-4.1080192-2.0071968-8.7860114-.4148625-13.0041033 1.5923344-4.2180918 4.7956985-7.6304725 8.9048625-9.4858967v-16.51c0-.55228475-.4477153-1-1-1z" fill="#cfd8dc"/><path id="Shape" d="m59 42c.003467 7.1282669-4.4425804 13.5009434-11.1338173 15.9584929-6.6912369 2.4575494-14.2050696.4774833-18.8161827-4.9584929-1.0364034-1.202925-1.8920532-2.5504051-2.54-4-2.1597017-4.7751477-1.995212-10.2796881.4457685-14.9173557 2.4409806-4.6376676 6.8853312-7.8895547 12.0442315-8.8126443.9896696-.1813291 1.9938573-.271706 3-.27 9.3888407 0 17 7.6111593 17 17z" fill="#ffdc00"/><path id="Shape" d="m42 25c-.523 0-1.044.025-1.558.073 8.7705232.7425098 15.5217793 8.0603483 15.5566257 16.8621767s-6.6582566 16.172893-15.4226257 16.9848233c.472.04.943.08 1.424.08 9.3888407 0 17-7.6111593 17-17s-7.6111593-17-17-17z" fill="#fec108"/><circle id="Oval" cx="42" cy="42" fill="#02a9f4" r="13"/><path id="Shape" d="m42 29c-.501392.0024492-1.0022248.0338348-1.5.094 6.5542288.7579006 11.49961 6.3080967 11.49961 12.906s-4.9453812 12.1480994-11.49961 12.906c4.8032899.5803558 9.531498-1.55476 12.272292-5.5417958 2.740794-3.9870359 3.0406816-9.1662963.7783729-13.44302s-6.7124919-6.9432834-11.5506649-6.9211842z" fill="#0377bc"/><path id="Shape" d="m11 21c-.2651948-.0000566-.5195073-.1054506-.707-.293l-2-2c-.37897221-.3923789-.37355237-1.0160848.01218142-1.4018186.3857338-.3857338 1.00943969-.3911536 1.40181858-.0121814l1.138 1.137 3.323-4.985c.306518-.4595009.9274991-.583518 1.387-.277s.583518.9274991.277 1.387l-4 6c-.1648955.250626-.4336016.4139788-.732.445-.0333031.0020074-.0666969.0020074-.1 0z" fill="#a4c400"/><path id="Shape" d="m11 29c-.2651948-.0000566-.5195073-.1054506-.707-.293l-2-2c-.37897221-.3923789-.37355237-1.0160848.01218142-1.4018186.3857338-.3857338 1.00943969-.3911536 1.40181858-.0121814l1.138 1.137 3.323-4.985c.306518-.4595009.9274991-.583518 1.387-.277s.583518.9274991.277 1.387l-4 6c-.1648955.250626-.4336016.4139788-.732.445-.0333031.0020074-.0666969.0020074-.1 0z" fill="#a4c400"/><path id="Shape" d="m11 37c-.2651948-.0000566-.5195073-.1054506-.707-.293l-2-2c-.37897221-.3923789-.37355237-1.0160848.01218142-1.4018186.3857338-.3857338 1.00943969-.3911536 1.40181858-.0121814l1.138 1.137 3.323-4.985c.306518-.4595009.9274991-.583518 1.387-.277s.583518.9274991.277 1.387l-4 6c-.1661646.2489813-.4351274.4104324-.733.44-.0328711.0036351-.0659299.0053048-.099.005z" fill="#a4c400"/><path id="Shape" d="m11 45c-.2651948-.0000566-.5195073-.1054506-.707-.293l-2-2c-.37897221-.3923789-.37355237-1.0160848.01218142-1.4018186.3857338-.3857338 1.00943969-.3911536 1.40181858-.0121814l1.138 1.137 3.323-4.985c.306518-.4595009.9274991-.583518 1.387-.277s.583518.9274991.277 1.387l-4 6c-.1648955.250626-.4336016.4139788-.732.445-.0333031.0020074-.0666969.0020074-.1 0z" fill="#a4c400"/><g fill="#000"><circle id="Oval" cx="18" cy="6" r="1"/><circle id="Oval" cx="22" cy="6" r="1"/><path id="Shape" d="m20 15h10c.5522847 0 1-.4477153 1-1s-.4477153-1-1-1h-10c-.5522847 0-1 .4477153-1 1s.4477153 1 1 1z"/><path id="Shape" d="m20 19h5c.5522847 0 1-.4477153 1-1s-.4477153-1-1-1h-5c-.5522847 0-1 .4477153-1 1s.4477153 1 1 1z"/><path id="Shape" d="m20 24h10c.5522847 0 1-.4477153 1-1s-.4477153-1-1-1h-10c-.5522847 0-1 .4477153-1 1s.4477153 1 1 1z"/><path id="Shape" d="m20 28h5c.5522847 0 1-.4477153 1-1s-.4477153-1-1-1h-5c-.5522847 0-1 .4477153-1 1s.4477153 1 1 1z"/><path id="Shape" d="m20 32h4c.5522847 0 1-.4477153 1-1s-.4477153-1-1-1h-4c-.5522847 0-1 .4477153-1 1s.4477153 1 1 1z"/><path id="Shape" d="m20 36h2c.5522847 0 1-.4477153 1-1s-.4477153-1-1-1h-2c-.5522847 0-1 .4477153-1 1s.4477153 1 1 1z"/><path id="Shape" d="m20 41h1c.5522847 0 1-.4477153 1-1s-.4477153-1-1-1h-1c-.5522847 0-1 .4477153-1 1s.4477153 1 1 1z"/><path id="Shape" d="m20 45h1c.5522847 0 1-.4477153 1-1s-.4477153-1-1-1h-1c-.5522847 0-1 .4477153-1 1s.4477153 1 1 1z"/><path id="Shape" d="m42 24c-.6683339.0023784-1.3360232.0417721-2 .118v-16.118c0-2.209139-1.790861-4-4-4h-6.278c-.3544126-.61675126-1.0106732-.997855-1.722-1h-2c0-1.65685425-1.3431458-3-3-3h-6c-1.6568542 0-3 1.34314575-3 3h-2c-.7113268.002145-1.3675874.38324874-1.722 1h-6.278c-2.209139 0-4 1.790861-4 4v42c0 2.209139 1.790861 4 4 4h24.622c5.5184248 6.1512798 14.518131 7.7512372 21.8185471 3.8788762s11.0232311-12.2207276 9.0254516-20.2394639c-1.9977794-8.0187364-9.2021481-13.6447161-17.4659987-13.6394123zm-4-16v16.464c-.6776059.1558501-1.3454318.351523-2 .586v-15.05c0-1.1045695-.8954305-2-2-2h-4v-2h6c1.1045695 0 2 .8954305 2 2zm-26-3h2c1.1045695 0 2-.8954305 2-2 0-.55228475.4477153-1 1-1h6c.5522847 0 1 .44771525 1 1 0 1.1045695.8954305 2 2 2h2v4h-16zm16 6c.7113268-.002145 1.3675874-.3832487 1.722-1h4.278v15.9c-8.169511 4.0185829-12.0211047 13.529222-8.95 22.1h-19.05v-38h4.278c.3544126.6167513 1.0106732.997855 1.722 1zm-24 41c-1.1045695 0-2-.8954305-2-2v-42c0-1.1045695.8954305-2 2-2h6v2h-4c-1.1045695 0-2 .8954305-2 2v38c0 1.1045695.8954305 2 2 2h19.9c.338976.6902159.7214111 1.358225 1.145 2zm38 6c-8.836556 0-16-7.163444-16-16s7.163444-16 16-16 16 7.163444 16 16c-.0104696 8.8322157-7.1677843 15.9895304-16 16z"/><path id="Shape" d="m42 28c-7.7319865 0-14 6.2680135-14 14s6.2680135 14 14 14 14-6.2680135 14-14c-.0274269-7.7205974-6.2794026-13.9725731-14-14zm6.84 23.847-.474-.821c-.2780058-.4742136-.886647-.6351286-1.3626943-.3602745-.4760473.274854-.640996.8824145-.3693057 1.3602745l.472.818c-1.2911819.6119775-2.6820704.9862911-4.106 1.105v-.949c0-.5522847-.4477153-1-1-1s-1 .4477153-1 1v.949c-1.4236157-.117134-2.8144904-.4897502-4.106-1.1l.472-.818c.1814844-.3095704.1831833-.6926495.0044519-1.0038174-.1787315-.311168-.5104885-.5027136-.8693336-.5019247s-.6897567.1937913-.8671183.5057421l-.474.821c-1.1715156-.8175238-2.1894762-1.8354844-3.007-3.007l.821-.474c.4742136-.2780058.6351286-.886647.3602745-1.3626943-.274854-.4760473-.8824145-.640996-1.3602745-.3693057l-.818.472c-.6125559-1.2927328-.9868834-2.6853664-1.105-4.111h.949c.5522847 0 1-.4477153 1-1s-.4477153-1-1-1h-.949c.1187089-1.4239296.4930225-2.8148181 1.105-4.106l.818.472c.47786.2716903 1.0854205.1067416 1.3602745-.3693057.2748541-.4760473.1139391-1.0846885-.3602745-1.3626943l-.821-.474c.8175238-1.1715156 1.8354844-2.1894762 3.007-3.007l.474.821c.1773616.3119508.5082732.5049532.8671183.5057421s.6906021-.1907567.8693336-.5019247c.1787314-.3111679.1770325-.694247-.0044519-1.0038174l-.472-.818c1.2911819-.6119775 2.6820704-.9862911 4.106-1.105v.949c0 .5522847.4477153 1 1 1s1-.4477153 1-1v-.949c1.4239296.1187089 2.8148181.4930225 4.106 1.105l-.472.818c-.1814844.3095704-.1831833.6926495-.0044519 1.0038174.1787315.311168.5104885.5027136.8693336.5019247s.6897567-.1937913.8671183-.5057421l.474-.821c1.1715156.8175238 2.1894762 1.8354844 3.007 3.007l-.821.474c-.3119508.1773616-.5049532.5082732-.5057421.8671183s.1907567.6906021.5019247.8693336c.3111679.1787314.694247.1770325 1.0038174-.0044519l.818-.472c.6119775 1.2911819.9862911 2.6820704 1.105 4.106h-.949c-.5522847 0-1 .4477153-1 1s.4477153 1 1 1h.949c-.117134 1.4236157-.4897502 2.8144904-1.1 4.106l-.818-.472c-.47786-.2716903-1.0854205-.1067416-1.3602745.3693057-.2748541.4760473-.1139391 1.0846885.3602745 1.3626943l.821.474c-.8190147 1.1719465-1.8386944 2.1899335-3.012 3.007z"/><path id="Shape" d="m43.144 41.73 1.8-5.414c.1128959-.3394023.0361471-.7132523-.201336-.9807242-.237483-.2674719-.599621-.3879304-.95-.316-.350379.0719305-.6357681.3253219-.748664.6647242l-2 6c-.1195324.3593148-.0258526.7553247.242 1.023l3 3c.3923789.3789722 1.0160848.3735524 1.4018186-.0121814s.3911536-1.0094397.0121814-1.4018186z"/></g></g></g></svg>