<svg width="1196.191" height="1429.841" xmlns="http://www.w3.org/2000/svg"><path style="fill:#fcdcc4;stroke-width:2.53968" d="M757.509 1354.43c2.47-.643 5.9-.601 7.619.094 1.72.696-.303 1.223-4.493 1.171-4.19-.052-5.597-.62-3.126-1.265zm15.338-.94c-7.93-3-12.84-11.856-14.692-26.506-2.737-21.629-3.704-23.91-11.94-28.17-5.936-3.07-17.55-4.43-45.043-5.274-48.844-1.5-48.474-1.406-48.474-12.319v-8.84h132.064l.298 9.524c1.261 40.248 1.107 56.857-.478 51.428-1.394-4.775-1.916-3.08-2.107 6.835-.28 14.653-1.532 16.383-9.628 13.321zm361.756-166.756c4.54-.563 11.968-.563 16.508 0 4.54.564.826 1.025-8.254 1.025s-12.793-.461-8.254-1.025zm-290.84-23.56c0-4.888.524-6.888 1.162-4.444.64 2.445.64 6.445 0 8.89-.638 2.443-1.161.443-1.161-4.445zm-279.953-82.228c0-.528 2-2.528 4.444-4.445 4.028-3.159 4.118-3.069.959.96-3.318 4.23-5.403 5.575-5.403 3.485zm553.326-49.2c-3.159-4.028-3.069-4.118.96-.959 4.23 3.318 5.575 5.403 3.485 5.403-.527 0-2.527-2-4.444-4.444zm-416.184-26.99c0-.528 2-2.528 4.445-4.445 4.028-3.16 4.118-3.07.959.959-3.318 4.23-5.404 5.576-5.404 3.485zm-116.142-16.04c2.471-.644 5.9-.601 7.62.094 1.719.696-.303 1.223-4.493 1.171-4.19-.052-5.598-.62-3.127-1.265zm51.38-3.32c-.863-1.396-.359-2.539 1.12-2.539 1.48 0 2.69 1.143 2.69 2.54s-.504 2.54-1.12 2.54c-.616 0-1.826-1.143-2.69-2.54zm-92.698-5.079c0-1.561-.857-2.32-1.905-1.686-1.047.634-3.378-.441-5.18-2.39-4.078-4.412-1.162-4.415 6.793-.005 3.912 2.168 5.036 3.99 3.175 5.14-1.586.98-2.883.503-2.883-1.058zm-19.289-15.873-4.838-5.714 5.714 4.838c5.37 4.547 6.87 6.59 4.838 6.59-.481 0-3.053-2.57-5.714-5.714zm143.734.785c0-1.314 1.13-3.088 2.51-3.941 1.44-.89 1.866.13.998 2.39-1.688 4.4-3.508 5.204-3.508 1.551zM518.296 950.9c.122-2.958.723-3.56 1.534-1.534.734 1.833.644 4.024-.2 4.868-.844.844-1.444-.656-1.334-3.333zm-350.677-23.915c4.969-3.211 10.159-3.211 10.159 0 0 1.397-3.143 2.522-6.984 2.5-5.443-.03-6.144-.581-3.175-2.5zm348.724-11.428c.015-8.381.488-11.504 1.053-6.94.565 4.566.554 11.423-.026 15.239-.58 3.816-1.042.082-1.027-8.3zm30.372-53.824c2.471-.644 5.9-.601 7.62.094 1.719.696-.303 1.223-4.494 1.171-4.19-.052-5.597-.62-3.126-1.265zm91.429 0c2.47-.644 5.9-.601 7.619.094 1.72.696-.303 1.223-4.493 1.171-4.19-.052-5.597-.62-3.126-1.265zm-111.16-3.32c.863-1.396 2.074-2.539 2.69-2.539.616 0 1.12 1.143 1.12 2.54s-1.21 2.54-2.69 2.54-1.983-1.143-1.12-2.54zm135.397.806c1.833-.734 4.024-.644 4.868.2.844.844-.656 1.444-3.334 1.334-2.958-.122-3.56-.724-1.534-1.535zm-76.486-41.72c-2.52-1.466-12.415-2.289-21.989-1.828-9.573.46-16.962.125-16.419-.746.946-1.517-22.17-5.968-28.757-5.537-1.746.114-3.174-.93-3.174-2.322 0-1.39-1.774-1.848-3.942-1.017-2.26.868-3.28.442-2.39-.998.854-1.38.519-2.51-.744-2.51s-9.616-4.802-18.562-10.67c-8.947-5.87-17.024-10.475-17.95-10.234-2.916.76-32.817-32.656-41.308-46.164-20.83-33.134-25.738-66.066-27.856-186.9l-1.224-69.842 41.115-16.392c68.397-27.27 115.766-53.854 139.921-78.525l12.457-12.724 14.21 12.747c27.997 25.114 64.455 46.613 114.527 67.536 42.216 17.641 55.87 22.027 58.957 18.94 2.034-2.034 1.822-3.994-.78-7.2-3.112-3.834-3.081-4.104.235-2.086 4.291 2.612 11.334 4.326 19.44 4.732 3.01.15 4.942 1.13 4.295 2.179-.648 1.047.713 1.904 3.024 1.904 3.864 0 4.078 8.106 2.664 100.953-1.702 111.832-1.93 117.485-4.66 115.798-1.048-.648-1.906.89-1.908 3.417 0 2.527-3.335 11.64-7.41 20.253-4.074 8.612-6.644 16.422-5.712 17.355.933.932.477 1.314-1.014.849-3.49-1.09-26.71 27.236-24.418 29.787.952 1.06.493 1.222-1.02.361-1.514-.86-8.085 3.473-14.604 9.63-6.518 6.158-11.851 10.726-11.851 10.152 0-.573-8.677 3.638-19.282 9.358-10.605 5.72-27.183 12.905-36.838 15.967-9.656 3.061-16.94 6.183-16.186 6.936.754.754-1.696.784-5.444.068-4.677-.894-6.257-.4-5.036 1.576 1.094 1.77.438 2.364-1.704 1.542-1.916-.735-16.891.42-33.278 2.569-16.387 2.148-30.021 3.87-30.299 3.828-.278-.042-2.566-1.276-5.086-2.742zm40.707-64.05c1.53-.945 4.598-1.021 6.82-.169 2.268.87 4.038.252 4.038-1.411 0-1.629.99-2.35 2.2-1.602 3.412 2.108 30.816-13.684 30.816-17.758 0-1.99 1.21-3.62 2.69-3.62s1.983-1.142 1.12-2.539c-.864-1.397-.603-2.54.58-2.54 1.181 0 2.32-2.285 2.531-5.079.375-4.982-1.183-5.08-81.56-5.08h-81.941l1.12 7.633c1.038 7.072 10.308 18.896 15.008 19.14 1.122.06 5.944 2.187 10.715 4.729 16.011 8.528 28.928 10.932 56.251 10.47 14.757-.25 28.083-1.229 29.612-2.174zm-16.937-88.126c10.796-5.779 13.29-16.41 11.867-50.575-1.843-44.213-11.152-68.715-26.108-68.715-7.29 0-10.29 3.895-16.18 21.014-12.2 35.465-12.164 86.331.07 96.446 5.983 4.947 22.65 5.951 30.35 1.83zm-140.346-82.639c3.128-2.19 4.92-5.224 3.982-6.741-.994-1.608-.529-2.032 1.116-1.015 3.692 2.282 9.5-7.01 13.236-21.173 2.514-9.53 2.275-13.68-1.51-26.183-5.691-18.795-15.425-27.863-28.717-26.75-5.045.421-9.172 2.1-9.172 3.73 0 1.629-1.04 3.915-2.312 5.079-1.343 1.23-1.546.786-.485-1.059 1.005-1.746.747-3.174-.573-3.174-5.66 0-11.868 19.264-11.868 36.825 0 20.524 5.753 34.946 16.207 40.627 8.688 4.722 13.17 4.685 20.096-.166zm278.644-4.424c23.616-23.616 13.862-77.942-13.995-77.942-7.982 0-18.48 6.969-16.158 10.725.954 1.544.536 2.036-.95 1.118-4.326-2.674-10.463 9.462-12.171 24.069-1.228 10.494-.927 12.74 1.312 9.803 2.365-3.103 2.603-2.743 1.283 1.944-2.485 8.826 3.184 22.362 12.96 30.945 11.284 9.908 17.293 9.765 27.719-.662zM461.898 782.857c-3.224-4.111-3.104-4.165 1.594-.718 2.794 2.049 5.556 4.049 6.138 4.444.582.395-.135.719-1.594.719s-4.22-2-6.138-4.445zm-16.184-11.269-7.619-7.804 9.524 6.98c5.238 3.84 9.524 7.418 9.524 7.95 0 2.73-4.616-.148-11.429-7.126zm-41.904-42.7c-2.29-1.478-2.603-2.477-.785-2.5 1.663-.02 3.73 1.104 4.594 2.5 1.949 3.154 1.07 3.154-3.81 0zm-7.62-12.698c-2.288-1.479-2.602-2.477-.784-2.5 1.663-.02 3.73 1.104 4.594 2.5 1.949 3.154 1.07 3.154-3.81 0zm-11.265-24.652c-1.378-3.62-1.086-3.911 1.422-1.422 1.736 1.723 2.516 3.772 1.734 4.554-.782.782-2.202-.627-3.156-3.132zm-3.383-33.76c0-4.89.522-6.89 1.161-4.445.639 2.445.639 6.445 0 8.89-.639 2.444-1.161.444-1.161-4.445zm-64.969-1.189c-.787-2.05-.338-4.403.998-5.229 1.336-.826 2.429.852 2.429 3.728 0 6.132-1.412 6.751-3.427 1.501zm557.16-2.522c-3.58-4.314-1.012-63.986 2.857-66.378 1.255-.775 5.806 2.365 10.115 6.978 7.315 7.83 7.715 9.233 6.027 21.146-.994 7.017-1.939 14.675-2.1 17.016-.16 2.342-1.338 3.612-2.617 2.822-1.278-.79-1.83.048-1.224 1.863.605 1.816-1.511 6.119-4.703 9.562-3.191 3.444-5.185 7.26-4.43 8.482 2.227 3.602-.584 2.535-3.925-1.49zm-563.892-6.448c-2.289-1.48-2.602-2.477-.785-2.5 1.664-.021 3.732 1.103 4.595 2.5 1.949 3.153 1.07 3.153-3.81 0zm-6.035-14.066c-2.45-6.387-1.728-8.035 1.266-2.886 1.482 2.549 2.16 5.17 1.506 5.823-.654.654-1.901-.668-2.772-2.937zm75.576-43.077c.005-16.762.416-23.288.914-14.503.497 8.784.493 22.499-.01 30.476s-.91.79-.905-15.973zm-81.744 20.318c.052-4.19.621-5.598 1.265-3.127.644 2.471.601 5.9-.094 7.62-.696 1.719-1.223-.303-1.17-4.493zm2.045-12.388c0-.527 2-2.527 4.444-4.444 4.028-3.16 4.118-3.07.959.959-3.318 4.23-5.403 5.575-5.403 3.485zm137.142-151.572c0-1.479 1.143-1.983 2.54-1.12 1.397.864 2.54 2.074 2.54 2.69 0 .616-1.143 1.12-2.54 1.12s-2.54-1.21-2.54-2.69zm12.699-5.08c0-1.478 1.143-1.982 2.54-1.12 1.396.864 2.54 2.075 2.54 2.69 0 .616-1.144 1.12-2.54 1.12-1.397 0-2.54-1.21-2.54-2.69zm35.555-12.548c2.096-1.354 4.953-2.462 6.35-2.462 1.396 0 .825 1.108-1.27 2.462-2.095 1.354-4.953 2.462-6.35 2.462-1.396 0-.825-1.108 1.27-2.462zm168.744-23.919c-2.71-1.981-4.356-4.12-3.66-4.752.696-.632 3.466.989 6.154 3.602 5.784 5.622 4.458 6.233-2.494 1.15zm-90.206-17.652c6.875-7.462 8.232-8.192 6.413-3.453-.682 1.776-3.788 4.783-6.904 6.683-5.403 3.294-5.38 3.144.491-3.23zm-11.87-125.259c2.444-.638 6.444-.638 8.888 0 2.444.64.444 1.162-4.444 1.162-4.89 0-6.89-.523-4.445-1.162zm81.269 0c2.444-.638 6.444-.638 8.889 0 2.444.64.444 1.162-4.445 1.162s-6.889-.523-4.444-1.162zm49.682-2.524c1.834-.733 4.024-.643 4.868.2.844.845-.656 1.445-3.333 1.335-2.959-.122-3.56-.724-1.535-1.535zm-115.657-38.9c0-6.285.495-8.857 1.1-5.714.606 3.143.606 8.286 0 11.429-.605 3.143-1.1.571-1.1-5.715zm55.181-.15c0-5.67 1.029-9.672 2.286-8.895 1.257.776 2.286 5.415 2.286 10.308s-1.029 8.896-2.286 8.896c-1.257 0-2.286-4.639-2.286-10.308zm-111.054-43.024c0-6.286.495-8.857 1.1-5.714.606 3.142.606 8.285 0 11.428-.605 3.143-1.1.572-1.1-5.714zm166.927-.15c0-5.67 1.029-9.673 2.286-8.896 1.257.777 2.286 5.416 2.286 10.309 0 4.892-1.029 8.896-2.286 8.896-1.257 0-2.286-4.64-2.286-10.31zm-111.054-43.025c0-6.286.495-8.857 1.1-5.714.606 3.143.606 8.286 0 11.428-.605 3.143-1.1.572-1.1-5.714zm55.181 0c0-5.587.987-10.159 2.194-10.159 1.206 0 2.193 4.572 2.193 10.16 0 5.586-.987 10.158-2.193 10.158-1.207 0-2.194-4.572-2.194-10.159zM520.635 73.651c5.003-3.234 10.887-3.234 8.889 0-.863 1.397-4.074 2.522-7.134 2.5-4.524-.031-4.852-.499-1.755-2.5zm146.667.857c1.746-.704 4.603-.704 6.349 0 1.746.705.317 1.281-3.175 1.281s-4.92-.576-3.174-1.28z" transform="matrix(1 0 0 .89376 0 -21.028)"/><path style="fill:#fbcbb7;stroke-width:2.53968" d="M652.698 1324.093v-32.097l42.541 1.228c32.66.943 44.417 2.198 50.614 5.403 8.926 4.616 9.82 6.636 12.2 27.591.933 8.204 3.739 17.134 6.48 20.618l4.833 6.146-11.704 1.604c-6.437.883-32.688 1.605-58.334 1.605h-46.63zm132.704-9.807c.029-5.588.549-7.574 1.156-4.415.608 3.159.585 7.73-.051 10.159-.636 2.428-1.133-.157-1.105-5.744zM579.716 987.772c-14.92-1.94-46.642-13.839-48.504-18.193-.469-1.095-2.183-1.23-3.81-.299-1.627.931-2.098.745-1.047-.413 1.05-1.158.081-4.127-2.154-6.597-4.054-4.478-8.261-47.995-8.535-88.267l-.11-16.156 9.523 1.854c29.863 5.812 120.577 5.665 144.08-.233l6.397-1.606-.086 46.625c-.076 40.768-.703 47.9-4.994 56.783-2.699 5.587-4.963 9.016-5.032 7.619-.069-1.397-1.208-.825-2.533 1.27-1.324 2.095-3.307 3.857-4.406 3.916-1.098.058-5.653 2.058-10.123 4.443-10.623 5.67-35.33 12.044-45.106 11.636-4.246-.177-14.848-1.249-23.56-2.382zm-11.515-123.275c-.844-.844-3.034-.934-4.868-.2-2.026.81-1.424 1.412 1.535 1.534 2.677.11 4.177-.49 3.333-1.334zm66.032 0c-.844-.844-3.035-.934-4.868-.2-2.026.81-1.424 1.412 1.535 1.534 2.677.11 4.177-.49 3.333-1.334zM470.67 786.472c-44.324-27.19-75.69-65.221-85.193-103.297-3.56-14.266-5.795-78.274-5.795-165.998v-45.362l54.697-20.943c54.295-20.789 120.47-52.132 131.228-62.155 3.085-2.874 6.332-5.225 7.215-5.225.884 0 6.279-3.998 11.987-8.885 10.116-8.658 10.545-8.776 16.847-4.647 3.557 2.33 8.711 6.328 11.455 8.885 2.744 2.556 6.392 4.647 8.108 4.647 1.715 0 3.5.995 3.965 2.211 1.234 3.223 26.031 18.59 46.561 28.853 9.778 4.889 37.028 16.66 60.555 26.158 46.05 18.59 55.734 24.189 50.7 29.31-2.372 2.415-6.505 1.82-19.047-2.743-69.284-25.205-120.621-52.902-154.671-83.445l-14.21-12.747-12.457 12.724c-24.155 24.671-71.524 51.255-139.921 78.525L401.58 478.73l1.224 69.841c2.642 150.724 8.886 174.138 59.768 224.127 12.44 12.223 22.308 22.135 21.928 22.028-.38-.107-6.603-3.82-13.829-8.254zm101.44-31.407c2.472-.643 5.9-.601 7.62.095 1.72.695-.302 1.222-4.493 1.17-4.19-.051-5.597-.62-3.126-1.264zm13.92.078c1.747-.704 4.604-.704 6.35 0 1.746.705.317 1.281-3.175 1.281s-4.92-.576-3.174-1.28zm33.652-.857c0-1.397 1.781-2.54 3.959-2.54s3.253 1.143 2.39 2.54-2.645 2.54-3.96 2.54c-1.314 0-2.39-1.143-2.39-2.54zm-100.918-39.918c3.86-.584 9.575-.568 12.699.035 3.123.602-.035 1.08-7.02 1.06-6.984-.02-9.54-.511-5.679-1.095zm60.549-50.876c-12.234-10.115-12.27-60.981-.07-96.446 5.89-17.12 8.89-21.014 16.18-21.014 14.956 0 24.265 24.502 26.108 68.715 1.424 34.166-1.07 44.796-11.867 50.575-7.702 4.121-24.368 3.117-30.351-1.83zm-271.857-27.368c-10.79-22.837-10.17-35.4 2.153-43.68 4.762-3.198 9.06-5.415 9.55-4.925 2.107 2.107.947 61.009-1.245 63.2-1.532 1.533-5.365-3.817-10.458-14.595zm178.257-93.902c0-3.492 1-6.349 2.223-6.349 1.222 0 2.222 2.857 2.222 6.35 0 3.491-1 6.348-2.222 6.348-1.223 0-2.223-2.857-2.223-6.349zm218.944-1.439c-.921-1.49-1.13-3.253-.464-3.919.666-.665 1.887.554 2.714 2.709 1.717 4.475.254 5.262-2.25 1.21z" transform="matrix(1 0 0 .89376 0 -21.028)"/><path style="fill:#b1b5d6;stroke-width:2.53968" d="M678.908 1400.002c36.066-.398 94.351-.398 129.524 0 35.172.399 5.663.724-65.575.723-71.238 0-100.015-.326-63.95-.723zm-544.94-2.51c7.334-.512 19.334-.512 26.667 0 7.333.514 1.333.934-13.333.934-14.667 0-20.667-.42-13.334-.933zm989.207.122c2.444-.638 6.444-.638 8.889 0 2.444.64.444 1.162-4.445 1.162s-6.889-.523-4.444-1.162zM39.26 1373.8c-2.734-4.422.38-5.359 3.863-1.162 2.003 2.414 2.196 3.87.511 3.87-1.485 0-3.454-1.218-4.374-2.708zm862.326-14.874c2.78-1.994-4.424-2.522-26.666-1.956l-30.476.777v-28.08c0-15.443-.504-52.079-1.12-81.412-.614-29.333-.773-67.738-.35-85.344.833-34.815-.936-49.123-5.721-46.254-1.948 1.168-1.866.418.238-2.18 2.608-3.222 2.512-4.536-.514-7.048-4.98-4.132-11.821-5.023-52.85-6.877-19.207-.869-34.922-2.63-34.922-3.913 0-1.284 1.193-1.597 2.651-.696 1.458.9 4.316.257 6.35-1.431 2.034-1.688 3.698-2.218 3.698-1.178s1.714.47 3.81-1.27c2.095-1.738 3.809-2.31 3.809-1.27 0 1.041 1.714.47 3.81-1.27 2.095-1.738 3.809-2.31 3.809-1.269 0 1.04 1.534.619 3.408-.937 1.875-1.556 4.16-2.077 5.08-1.157.919.919 1.67.27 1.67-1.442s1.144-2.407 2.54-1.543c1.397.863 2.54.291 2.54-1.27 0-1.562 1.143-2.133 2.54-1.27s2.54.36 2.54-1.12 2.353-2.69 5.229-2.69 4.53-1.13 3.677-2.51c-.853-1.381-.063-1.963 1.755-1.294 1.819.669 7.878-2.905 13.465-7.941 5.588-5.037 7.873-7.651 5.08-5.81-2.794 1.84-.562-1.457 4.96-7.327 9.94-10.569 16.591-15.376 7.738-5.594-2.528 2.794-3.944 5.08-3.147 5.08 2.216 0 16.699-18.905 17.595-22.967.435-1.968 2.285-5.182 4.11-7.142 1.827-1.96 2.726-5.115 1.997-7.014-.728-1.898-.508-3.284.489-3.079.997.205 3.528-.302 5.623-1.126 6.815-2.683 22.554-3.412 21.048-.975-.823 1.332 1.948 1.851 6.393 1.199 4.316-.634 7.303-.274 6.64.8-1.594 2.578 15.373 5.69 21.826 4.003 2.779-.726 4.486-.404 3.793.716-1.972 3.192 6.871 5.584 9.804 2.652 3.592-3.592 6.821-3.298 6.051.552-.397 1.987 2.946 3.47 8.942 3.966 5.268.435 8.915 1.863 8.105 3.174-.834 1.348 3.437 2.383 9.833 2.383 7.566 0 11.778 1.226 12.729 3.706.92 2.398-9.505 14.717-29.57 34.94-18.824 18.972-34.395 37.21-39.66 46.453-4.769 8.37-10.452 18.076-12.629 21.568-2.177 3.492-3.704 7.206-3.394 8.254.31 1.048-.292 1.77-1.34 1.604-5.325-.84-8.36.615-6.741 3.233 1.016 1.645.706 2.249-.706 1.376-3.34-2.064-14.008 5.522-12.102 8.605.818 1.324 2.728 1.641 4.244.704 1.516-.937 2.044-.55 1.173.86-.871 1.409 1.515 5.3 5.303 8.646l6.888 6.083-5.061-6.349-5.061-6.35 5.654 4.785c3.11 2.63 5.118 5.651 4.463 6.712-.656 1.061 9.37 11.998 22.282 24.304 12.91 12.306 21.76 21.484 19.664 20.395-2.095-1.088-1.188.332 2.016 3.156 3.205 2.825 5.876 5.743 5.937 6.485.424 5.144 3.143 11.624 4.878 11.624 2.609 0 1.781 28.078-.954 32.381-1.11 1.746-1.311 4.317-.448 5.714.863 1.397.169 2.54-1.543 2.54s-2.406.707-1.541 1.572c.865.865-.153 3.298-2.263 5.407-2.109 2.11-3.21 5.461-2.447 7.449.879 2.29.31 2.948-1.556 1.795-1.983-1.225-2.397-.397-1.27 2.54 1.127 2.937.713 3.765-1.27 2.54-1.982-1.226-2.396-.398-1.27 2.54.92 2.396.703 3.758-.483 3.025-2.218-1.37-12.256 18.464-11.12 21.97.35 1.075-.574 1.956-2.054 1.956-1.479 0-1.983 1.142-1.12 2.54.864 1.396.383 2.539-1.068 2.539-2.608 0-12.279 16.737-12.437 21.524-.045 1.362-1.596 2.877-3.447 3.368-2.241.594-2.093-.02.444-1.84zm-789.158-1.955c2.471-.644 5.9-.601 7.62.094 1.719.696-.303 1.223-4.493 1.171-4.19-.052-5.598-.62-3.127-1.265zm158.682-.143c42.254-.391 111.397-.391 153.65 0 42.255.39 7.683.71-76.824.71-84.508 0-119.08-.32-76.826-.71zm324.224-42.541c.003-25.143.383-35.085.845-22.094.462 12.991.46 33.563-.005 45.714-.465 12.152-.843 1.523-.84-23.62zm158.186 42.547 33.52-.788.93-13.26.93-13.261.47 14.603.47 14.603-34.92-.554-34.92-.555zm332.987.162c1.833-.733 4.024-.643 4.868.2.844.844-.656 1.445-3.334 1.334-2.958-.121-3.56-.723-1.534-1.534zm27.079-64.297.064-64.762 25.396-.133 25.397-.133-24.719.857-24.72.856-.741 64.039-.742 64.038.064-64.761zm-124.9 61.603c10.89-.478 28.033-.475 38.096.01 10.063.48 1.154.87-19.799.867-20.952 0-29.186-.397-18.296-.874zm-909.462-27.317c.052-4.19.621-5.597 1.265-3.126.644 2.47.602 5.9-.094 7.619-.696 1.72-1.222-.302-1.17-4.493zm-55.967-8.889c0-3.492.577-4.92 1.281-3.174.705 1.746.705 4.603 0 6.349-.704 1.746-1.28.317-1.28-3.175zm764.536-31.746-.487-15.238-53.97.195-53.972.194 54.603-1.464c30.032-.806 54.947-1.311 55.367-1.124.42.187.355 7.616-.145 16.508l-.91 16.167-.486-15.238zm-575.096-15.828c5.937-.534 15.651-.534 21.588 0 5.936.535 1.08.973-10.794.973-11.873 0-16.73-.438-10.794-.973zm217.299-.04c20.688-.428 53.831-.427 73.65 0 19.82.428 2.893.778-37.615.777-40.508 0-56.724-.352-36.035-.78zm574.798-15.05c.858-6.224.65-6.503-1.564-2.098-2.174 4.325-2.462 4.399-1.94.5.338-2.517 1.757-4.722 3.153-4.898 3.47-.437 4.87 8.164 1.824 11.21-1.59 1.59-2.112-.08-1.473-4.715zm-819.36-14.328c-.02-2.537 1.145-6.822 2.59-9.524 2.316-4.326 5.501-4.913 26.668-4.913h24.037v-40.485c0-28.205.903-41.043 2.976-42.324 1.636-1.011 13.35-1.856 26.032-1.877 12.68-.02 19.345-.475 14.81-1.01-10.548-1.245-11.507-5.022-10.397-40.928.726-23.469 1.711-29.089 6.153-35.103 5.87-7.95 31.653-21.763 49.38-26.455 11.081-2.933 11.775-2.778 19.326 4.316 15.2 14.282 22.177 20.017 20.06 16.49-1.462-2.437-1.199-2.985.833-1.73 1.635 1.011 2.395 2.775 1.687 3.92-1.637 2.648 15.757 16.068 18.572 14.328 1.155-.714 6.292 1.55 11.414 5.03 5.122 3.481 9.313 5.676 9.313 4.878s2.571-.028 5.714 1.711c3.143 1.74 7.143 2.872 8.89 2.518 1.745-.354 3.174.671 3.174 2.279 0 1.607 1.773 2.242 3.941 1.41 2.536-.973 3.307-.486 2.161 1.368-1.251 2.025.407 2.384 5.582 1.206 4.815-1.095 6.045-.89 3.554.596-2.095 1.25-18.667 2.884-36.826 3.634-37.286 1.538-43.818 2.609-49.291 8.082-3.178 3.178-3.23 3.86-.291 3.86 2.687 0 2.512.785-.71 3.175-4.528 3.36-9.167 27.298-5.29 27.307 1.237 0 2.33 19.432 2.427 43.175l.179 43.169h-54.96v-83.81H241.27v83.81h-25.397c-22.48 0-25.401.51-25.436 4.444-.021 2.445-1.146 6.16-2.5 8.254-2.086 3.228-2.468 3.105-2.501-.801zm164.294-30.31c-.605-3.143-1.1-.571-1.1 5.715 0 6.285.495 8.857 1.1 5.714.605-3.143.605-8.286 0-11.429zm109.954-3.998c0-1.151 12.571-2.038 27.936-1.97 15.365.067 27.937 1.01 27.937 2.093 0 1.084-12.572 1.97-27.937 1.97-15.365 0-27.936-.941-27.936-2.093zm111.746.104c0-1.095 36.571-1.99 81.27-1.99 44.698 0 81.27.895 81.27 1.99 0 1.094-36.572 1.99-81.27 1.99-44.699 0-81.27-.896-81.27-1.99zm400.946-17.693c-3.16-4.028-3.07-4.118.958-.959 4.23 3.318 5.576 5.403 3.486 5.403-.527 0-2.527-2-4.444-4.444zm140.956-32.381c.01-15.365.424-21.323.93-13.24.505 8.082.5 20.654-.01 27.936-.512 7.282-.925.67-.92-14.696zm-178.011-6.423c-11.479-11.134-19.479-20.207-17.778-20.163 4.341.113 10.725 5.464 12.653 10.605.894 2.384 6.36 7.324 12.146 10.977 5.786 3.652 9.838 7.322 9.005 8.156-.834.833.378 3.608 2.693 6.166 9.56 10.563.843 3.233-18.72-15.741zm-855.898 2.614c0-6.286.495-8.858 1.1-5.715.606 3.143.606 8.286 0 11.429-.605 3.143-1.1.571-1.1-5.715zm-56.164-5.08c0-3.492.577-4.92 1.281-3.175.705 1.747.705 4.604 0 6.35-.704 1.746-1.28.317-1.28-3.175zm611.663-5.212c75.106-2.811 154.92-2.742 154.92.133 0 1.658-35.039 2.38-100.952 2.082-86.343-.39-94.153-.711-53.968-2.215zm203.375-8.968c.122-2.958.723-3.56 1.534-1.534.734 1.833.644 4.024-.2 4.868-.844.844-1.444-.656-1.334-3.334zM24.127 1120c.863-1.397 2.074-2.54 2.69-2.54.616 0 1.12 1.143 1.12 2.54s-1.21 2.54-2.69 2.54-1.983-1.143-1.12-2.54zm490.751-23.172c1.723-1.736 3.772-2.516 4.554-1.734.782.782-.627 2.202-3.132 3.155-3.62 1.379-3.911 1.087-1.422-1.421zm11.84 1.033c3.92-1.004 4.155-1.687 1.27-3.681-2.547-1.76-1.936-1.997 2.17-.842 3.284.924 5.715.488 5.715-1.024 0-1.447 1.567-2.03 3.482-1.294 1.915.734 5.058-.159 6.984-1.985 1.926-1.826 4.93-3.435 6.677-3.575 7.372-.59 8.474-1.144 7.002-3.526-.866-1.401.074-1.887 2.126-1.1 2.023.777 5.225-.665 7.116-3.203 4.749-6.374 14.162-13.66 11.11-8.599-1.205 2 1.785.603 6.645-3.104l8.837-6.74 9.333 6.341c5.133 3.488 9.985 6.028 10.78 5.645.797-.384 3.959 1.696 7.027 4.621 7.886 7.518 16.618 11.73 19.993 9.644 1.897-1.172 2.17-.632.8 1.584-1.51 2.443-.92 2.92 2.148 1.742 2.327-.893 4.226-.394 4.226 1.11 0 1.503 1.773 2.051 3.941 1.22 2.556-.981 3.309-.49 2.143 1.398-1.224 1.98-.046 2.452 3.68 1.477 3.015-.788 4.894-.483 4.176.678-.717 1.16.71 2.636 3.172 3.278 2.461.642-29.24 1.167-70.446 1.167s-72.754-.554-70.107-1.232zm-423.86-23.575c5.455-5.588 10.49-10.159 11.189-10.159.698 0-3.194 4.571-8.65 10.159-5.456 5.587-10.491 10.159-11.19 10.159-.698 0 3.194-4.572 8.65-10.16zm985.236-.635-7.459-8.254 8.254 7.46c4.54 4.102 8.254 7.816 8.254 8.253 0 1.962-2.096.235-9.049-7.46zm-16.54-13.968-6.157-6.985 6.984 6.157c6.528 5.755 8.149 7.812 6.157 7.812-.455 0-3.598-3.143-6.984-6.984zm-950.92-.635c2.53-2.794 5.17-5.08 5.868-5.08.698 0-.8 2.286-3.327 5.08-2.529 2.793-5.169 5.079-5.867 5.079-.698 0 .799-2.286 3.327-5.08zm341.112-4.275c1.833-.734 4.024-.643 4.868.2.844.844-.656 1.445-3.334 1.334-2.958-.122-3.56-.723-1.534-1.534zm38.095 0c1.834-.734 4.024-.643 4.868.2.844.844-.656 1.445-3.333 1.334-2.959-.122-3.56-.723-1.535-1.534zm190.477 0c1.833-.734 4.023-.643 4.867.2.844.844-.656 1.445-3.333 1.334-2.959-.122-3.56-.723-1.534-1.534zm40.634 0c1.834-.734 4.024-.643 4.868.2.844.844-.656 1.445-3.333 1.334-2.959-.122-3.56-.723-1.535-1.534zm-318.254-17.63c-4.566-3.886-5.5-5.43-2.33-3.856 4.655 2.312 13.387 10.672 10.895 10.431-.52-.05-4.374-3.009-8.565-6.575zm130.794-.43c0-1.342 1.846-3.972 4.103-5.845 3.549-2.946 3.977-2.76 3.174 1.383-.956 4.937-7.277 8.812-7.277 4.462zm568.565-4.967c-3.159-4.028-3.07-4.118.959-.959 4.23 3.318 5.576 5.403 3.486 5.403-.528 0-2.528-2-4.445-4.444zm-610.893-22.11c0-2.034.952-3.11 2.116-2.39 1.164.72 2.117 2.383 2.117 3.698 0 1.314-.953 2.39-2.117 2.39-1.164 0-2.116-1.665-2.116-3.698zm-14.815-9.001c-.863-1.397-.36-2.54 1.12-2.54s2.69 1.143 2.69 2.54-.504 2.54-1.12 2.54c-.616 0-1.826-1.143-2.69-2.54zm324.01-4.021c.122-2.959.724-3.56 1.535-1.535.733 1.834.643 4.024-.2 4.868-.845.844-1.445-.656-1.335-3.333zm-330.683-5.503c-3.159-4.028-3.07-4.118.959-.959 2.444 1.917 4.444 3.917 4.444 4.445 0 2.09-2.085.745-5.403-3.486zM158.447 961.27c.004-18.159.41-25.254.899-15.768.49 9.487.486 24.344-.008 33.016-.494 8.672-.895.91-.89-17.248zm426.35 29.923c3.86-.583 9.575-.568 12.698.035 3.124.603-.035 1.08-7.019 1.061-6.984-.02-9.54-.512-5.68-1.096zm130.124-3.256c2.528-2.794 5.168-5.08 5.866-5.08.699 0-.798 2.286-3.327 5.08-2.528 2.793-5.168 5.079-5.866 5.079-.699 0 .798-2.286 3.327-5.08zm-39.894-86.352c-.408-26.542.116-48.256 1.164-48.254 1.047.002 1.904 21.717 1.904 48.256 0 26.54-.523 48.254-1.163 48.254s-1.497-21.715-1.905-48.256zM179.84 927.788c1.834-.734 4.024-.643 4.868.2.844.844-.656 1.444-3.333 1.334-2.959-.122-3.56-.723-1.535-1.534zm5.556-6.034c0-1.48 1.143-1.983 2.54-1.12 1.396.863 2.54 2.074 2.54 2.69 0 .615-1.144 1.12-2.54 1.12-1.397 0-2.54-1.21-2.54-2.69zM158.22 873.65c0-7.683.476-10.826 1.058-6.984.582 3.841.582 10.127 0 13.968-.582 3.841-1.058.698-1.058-6.984zm423.366-10.013c0-1.316-4.857-2.745-10.793-3.174-5.937-.43 5.777-.781 26.031-.781 20.254 0 32.254.362 26.667.804-5.587.443-11.244 1.871-12.571 3.175-3.16 3.103-29.334 3.082-29.334-.023zM171.43 843.175c.863-1.397 2.712-2.54 4.109-2.54 1.397 0 1.833 1.143.97 2.54-.863 1.396-2.713 2.54-4.11 2.54-1.396 0-1.833-1.144-.97-2.54zm12.12-17.778c0-6.286.495-8.857 1.1-5.714.606 3.142.606 8.285 0 11.428-.605 3.143-1.1.572-1.1-5.714zm410.102-4.222c1.746-.704 4.603-.704 6.35 0 1.745.705.317 1.281-3.176 1.281-3.492 0-4.92-.576-3.174-1.28zm-428.572-21.308c-2.73-1.86-.93-2.113 6.35-.894 12.598 2.11 14.626 3.579 4.867 3.528-4.074-.022-9.121-1.207-11.217-2.634zm-6.564-48.121c0-25.841.377-36.413.838-23.492.46 12.92.46 34.063 0 46.984-.461 12.92-.838 2.35-.838-23.492zm264.223 1.905-10.04-10.794 10.794 10.04c10.038 9.336 11.96 11.547 10.04 11.547-.416 0-5.273-4.857-10.794-10.793zm353.135-6.984c2.528-2.794 5.168-5.08 5.867-5.08.698 0-.799 2.286-3.327 5.08-2.528 2.793-5.168 5.079-5.867 5.079-.698 0 .799-2.286 3.327-5.08zm34.78-74.921c.053-4.19.622-5.597 1.266-3.126.644 2.47.601 5.9-.094 7.619-.696 1.72-1.223-.302-1.171-4.493zM379.003 650.16c0-4.89.523-6.89 1.161-4.445.64 2.445.64 6.445 0 8.89-.638 2.444-1.161.444-1.161-4.445zm487.607-1.327c-.274-3.322.626-6.736 2.001-7.586 1.387-.857 2.501 1.283 2.501 4.803 0 8.268-3.85 10.648-4.502 2.783zM813.84 556.19c0-48.19.342-67.904.76-43.809.417 24.095.417 63.524 0 87.619-.418 24.095-.76 4.381-.76-43.81zm-492.986 50.794c0-10.476.448-14.762.996-9.524.548 5.238.548 13.81 0 19.048-.548 5.238-.996.952-.996-9.524zm573.315 11.217c.122-2.959.724-3.56 1.534-1.534.734 1.833.644 4.023-.2 4.867-.844.844-1.444-.656-1.334-3.333zm-22.245-13.757c0-9.079.461-12.793 1.024-8.254.564 4.54.564 11.969 0 16.508-.563 4.54-1.024.826-1.024-8.254zm22.245 3.598c.122-2.958.724-3.56 1.534-1.534.734 1.833.644 4.024-.2 4.868-.844.844-1.444-.656-1.334-3.334zm-175.763-33.439c-3.159-4.028-3.069-4.118.96-.959 4.23 3.318 5.575 5.404 3.485 5.404-.528 0-2.528-2-4.445-4.445zm-283.92-24.973c.122-2.959.724-3.56 1.535-1.535.733 1.834.643 4.024-.2 4.868-.845.844-1.445-.656-1.335-3.333zM1032 533.333c0-11.873.437-16.73.972-10.793.534 5.936.534 15.65 0 21.587-.535 5.937-.972 1.08-.972-10.794zm-597.513 3.598c.122-2.958.724-3.56 1.535-1.534.733 1.833.643 4.024-.2 4.868-.845.843-1.445-.657-1.335-3.334zm-217.59-39.153c0-21.651.389-30.508.865-19.683.476 10.826.476 28.54 0 39.365-.476 10.826-.866 1.969-.866-19.682zm255.161 10.793c-3.159-4.028-3.07-4.117.959-.958 2.444 1.917 4.444 3.917 4.444 4.444 0 2.09-2.085.745-5.403-3.486zm-311.365-31.11c0-6.286.495-8.858 1.1-5.715.606 3.143.606 8.286 0 11.429-.605 3.142-1.1.571-1.1-5.715zm869.15-42.148c0-4.755.856-8.646 1.904-8.646s1.905 3.36 1.905 7.469c0 4.108-.857 7.999-1.905 8.646-1.048.648-1.905-2.713-1.905-7.469zm-810.738-6.107c0-6.285.496-8.857 1.101-5.714.605 3.143.605 8.286 0 11.429-.605 3.142-1.1.571-1.1-5.715zm-57.834-2.54c.863-1.396 2.073-2.539 2.69-2.539.615 0 1.12 1.143 1.12 2.54s-1.21 2.54-2.69 2.54-1.983-1.144-1.12-2.54zm-1.07-9.1c.122-2.958.724-3.56 1.535-1.534.734 1.833.643 4.024-.2 4.867-.845.844-1.445-.656-1.334-3.333zm867.312 1.822c-1.094-1.77-1.303-3.904-.465-4.742 2.273-2.273 4.752 1.07 3.524 4.753-.86 2.58-1.459 2.578-3.059-.01zM571.43 380.952c0-1.396 1.21-2.54 2.69-2.54 1.478 0 1.982 1.144 1.12 2.54-.864 1.397-2.074 2.54-2.69 2.54-.616 0-1.12-1.143-1.12-2.54zm44.295-1.189c-2.712-2.05-3.72-3.765-2.241-3.81 1.479-.044 4.908 1.598 7.619 3.649 2.711 2.05 3.72 3.765 2.24 3.81-1.478.044-4.907-1.598-7.618-3.649zm-263.182-62.4c-3.753-1.055-7.468-1.464-8.254-.91-.787.554-.915.301-.286-.561 1.456-1.994-21.305-47.664-24.324-48.807-1.237-.469-1.603-1.897-.814-3.175.79-1.277.158-2.323-1.404-2.323-1.561 0-2.133-1.143-1.27-2.54.864-1.396.292-2.54-1.27-2.54-1.561 0-2.196-1.039-1.41-2.31 2.015-3.262-1.198-10.645-3.906-8.971-1.234.763-1.492-.574-.572-2.971 1.127-2.937.713-3.765-1.27-2.54-1.982 1.226-2.397.398-1.27-2.54 1.127-2.936.713-3.764-1.27-2.54-1.982 1.226-2.396.398-1.27-2.539 1.128-2.937.714-3.765-1.27-2.54-1.921 1.189-2.417.453-1.429-2.122 2.057-5.36 6.707-4.997 31.624 2.46 67.408 20.177 138.817 30.356 233.472 33.28 103.08 3.185 201.449-7.527 286.152-31.161 17.403-4.856 33.338-8.474 35.41-8.04 2.91.61.844 6.76-9.078 27.027-7.066 14.43-12.088 27.464-11.161 28.964 1.075 1.74.468 1.974-1.68.647-2.462-1.522-2.915-.912-1.69 2.279 1.126 2.937.712 3.765-1.27 2.54-1.983-1.226-2.397-.398-1.27 2.54 1.127 2.936.713 3.764-1.27 2.539-1.983-1.225-2.397-.397-1.27 2.54 1.127 2.937.713 3.765-1.27 2.54-1.96-1.212-2.405-.42-1.332 2.377.885 2.307.713 3.923-.383 3.59-1.096-.332-4.769 2.428-8.162 6.134-4.292 4.687-9.608 7.146-17.467 8.08-8.063.958-10.244.604-7.619-1.237 2.674-1.876 1.39-2.185-4.702-1.134-5.87 1.012-7.85.586-6.607-1.425 1.213-1.963-.37-2.46-5.014-1.572-3.733.714-7.427.262-8.21-1.005-.783-1.266-3.613-1.607-6.289-.758-2.924.928-4.865.345-4.865-1.462 0-1.757-2.112-2.455-5.077-1.68-2.792.73-5.774.2-6.626-1.18-.853-1.378-4.282-1.82-7.622-.982-3.753.942-6.072.414-6.072-1.382 0-1.874-2.705-2.364-7.62-1.382-4.77.955-7.618.48-7.618-1.27 0-1.749-2.848-2.224-7.62-1.27-4.793.96-7.618.482-7.618-1.286 0-1.813-3.606-2.327-10.16-1.448-5.715.767-9.543.366-8.75-.916.8-1.297-4.947-1.756-13.333-1.066-10.867.895-13.74.502-10.932-1.493 2.78-1.975-1.343-2.37-15.238-1.462-10.476.685-16.78.382-14.008-.672 2.772-1.055-25.228-1.577-62.222-1.159-68.762.777-96.532 2.015-111.904 4.99-8.459 1.637-17.311 2.977-30.279 4.584-3.492.432-6.92 1.112-7.619 1.51-1.713.977-15.186 2.589-22.096 2.643-3.074.026-6.253 1.12-7.066 2.434-.812 1.314-3.169 1.74-5.237.947-2.069-.794-5.28-.183-7.137 1.358-1.856 1.541-4.1 2.078-4.985 1.192-.886-.885-3.207-.284-5.16 1.336-1.951 1.62-5.292 2.277-7.423 1.459-2.13-.818-4.598-.316-5.482 1.115-.885 1.431-3.17 2.002-5.08 1.27-1.909-.733-4.237-.093-5.173 1.422-.936 1.515-2.816 2.066-4.178 1.224-1.361-.841-3.854-.45-5.539.868-1.684 1.319-6.133 1.536-9.886.481zm237.3-75.373c3.84-.581 10.126-.581 13.968 0 3.84.582.698 1.058-6.985 1.058-7.682 0-10.825-.476-6.984-1.058zm-19.888-4.147c-.723-1.884-.91-11.313-.417-20.952l.897-17.526.497 19.506c.46 18.022.932 19.59 6.212 20.607l5.714 1.1-5.794.346c-3.186.19-6.385-1.196-7.109-3.08zm44.014 1.745c1.746-.705 4.603-.705 6.35 0 1.746.704.317 1.28-3.175 1.28s-4.92-.576-3.175-1.28zm-100.441-59.985c-.615-23.796-1.062-23.47 31.775-23.272l23.397.14.848-20.457.848-20.458.517 22.222.517 22.222h-55.66l-.865 19.683-.866 19.682zm114.768-22.237c7.78-2.329 46.569-1.444 49.133 1.12.833.833-11.534 1.416-27.48 1.296-20.573-.155-26.863-.857-21.653-2.416zm-437.819-56.738c0-.527 2-2.527 4.445-4.444 4.028-3.159 4.118-3.07.959.959-3.318 4.23-5.404 5.576-5.404 3.485zM467.985 76.97c2.47-.644 5.9-.601 7.619.094 1.72.696-.302 1.223-4.493 1.171-4.19-.052-5.597-.62-3.126-1.265zm251.38.01c2.445-.64 6.445-.64 8.889 0 2.444.638.444 1.161-4.444 1.161-4.89 0-6.89-.523-4.445-1.161zm-232.38-2.471c1.745-.705 4.602-.705 6.348 0 1.746.704.318 1.28-3.174 1.28s-4.92-.576-3.175-1.28zm27.936-2.54c1.746-.705 4.603-.705 6.349 0 1.746.704.317 1.28-3.175 1.28s-4.92-.576-3.174-1.28zm152.38 0c1.747-.705 4.604-.705 6.35 0 1.746.704.317 1.28-3.175 1.28s-4.92-.576-3.174-1.28zM554.287 69.36c2.444-.64 6.444-.64 8.889 0 2.444.638.444 1.161-4.445 1.161s-6.889-.523-4.444-1.161zm25.397-.117c6.635-.523 17.492-.523 24.127 0 6.635.524 1.206.952-12.064.952s-18.698-.428-12.063-.952zm46.984.185c1.746-.704 4.603-.704 6.349 0 1.746.705.317 1.281-3.175 1.281s-4.92-.576-3.174-1.28zM433.81 38.9c1.833-.734 4.023-.643 4.867.2.844.844-.656 1.445-3.333 1.334-2.959-.121-3.56-.723-1.534-1.534zm322.54 0c1.833-.734 4.023-.643 4.867.2.844.844-.656 1.445-3.333 1.334-2.959-.121-3.56-.723-1.535-1.534zm-27.461-3.344c-3.097-2.002-2.769-2.47 1.755-2.501 3.06-.022 6.27 1.104 7.134 2.5 1.998 3.234-3.886 3.234-8.889 0zm-264.762-1.682c1.746-.705 4.603-.705 6.35 0 1.745.704.317 1.28-3.175 1.28s-4.921-.576-3.175-1.28zm243.968-.053c1.834-.734 4.024-.644 4.868.2.844.844-.656 1.444-3.333 1.334-2.959-.122-3.56-.724-1.535-1.534zm-200.158-3.345c-2.9-1.873-1.872-2.471 4.294-2.5 4.457-.022 8.81 1.103 9.674 2.5 2.012 3.255-8.932 3.255-13.968 0zm163.81 0c.862-1.397 5.216-2.522 9.673-2.5 6.166.029 7.193.627 4.294 2.5-5.036 3.255-15.98 3.255-13.968 0zm-86.985-1.867c6.635-.523 17.492-.523 24.127 0 6.635.524 1.206.952-12.064.952s-18.698-.428-12.063-.952z" transform="matrix(1 0 0 .89376 0 -21.028)"/><path style="fill:#fc7d85;stroke-width:2.53968" d="M788.115 1315.556c0-9.08.46-12.794 1.024-8.254.563 4.54.563 11.968 0 16.508-.564 4.54-1.024.825-1.024-8.254zM603.81 991.334c1.746-.705 4.603-.705 6.349 0 1.746.704.317 1.28-3.175 1.28s-4.92-.576-3.174-1.28zm-75.556-18.862c-5.47-4.475-5.577-4.817-.776-2.47 3.065 1.498 6.275 3.86 7.134 5.25 2.292 3.709.752 3.035-6.358-2.78zm130.622 3.043c1.812-2.932 11.6-8.845 11.6-7.008 0 .587-2.998 3.032-6.662 5.433-3.664 2.4-5.886 3.11-4.938 1.575zm-95.543-111.218c1.834-.734 4.024-.644 4.868.2.844.844-.656 1.444-3.333 1.334-2.959-.122-3.56-.724-1.535-1.534zm66.032 0c1.833-.734 4.024-.644 4.868.2.844.844-.656 1.444-3.333 1.334-2.96-.122-3.56-.724-1.535-1.534zm-75.867-114.78c-19.22-7.522-28.024-13.805-33.043-23.58l-4.775-9.3 20.89-1.64c11.49-.903 47.907-1.289 80.928-.858l60.038.782-5.143 10.925c-9.071 19.266-36.283 28.55-83.018 28.321-17.062-.083-27.744-1.468-35.877-4.65z" transform="matrix(1 0 0 .89376 0 -21.028)"/><path style="fill:#5163d5;stroke-width:2.53968" d="M189.841 1397.48c10.127-.483 26.699-.483 36.826 0 10.127.481 1.841.876-18.413.876s-28.54-.394-18.413-.877zm910.477.066c3.84-.582 10.127-.582 13.968 0 3.841.582.698 1.058-6.984 1.058-7.683 0-10.826-.476-6.984-1.058zm-812.51-38.18c57.025-.381 149.597-.38 205.715 0 56.118.382 9.461.693-103.682.693s-159.057-.312-102.032-.693zm463.388.029c7.38-.515 18.81-.51 25.397.013 6.588.521.55.942-13.418.936-13.969-.01-19.359-.433-11.979-.948zm134.8-.392c3.151-1.997 13.052-1.016 13.052 1.294 0 .535-3.715.956-8.254.934-5.612-.026-7.148-.74-4.798-2.228zm181.335.757c1.817-1.817 42.775-1.612 44.61.223.707.708-9.38 1.287-22.417 1.287s-23.024-.68-22.193-1.51zM23.352 1306.667c.052-4.19.621-5.598 1.265-3.127.644 2.472.602 5.9-.094 7.62-.696 1.719-1.223-.303-1.17-4.493zm818.243-31.746c0-16.064.413-22.635.917-14.604.504 8.032.504 21.175 0 29.207s-.917 1.46-.917-14.603zm-380.171-6.98c24.005-.417 64.005-.417 88.888 0 24.884.416 5.244.758-43.645.759-48.89 0-69.249-.34-45.243-.757zm292.294.037c5.973-.536 15.116-.529 20.317.018 5.202.546.314.985-10.86.976-11.175-.01-15.43-.456-9.457-.992zm196.324-12.317c.122-2.958.724-3.56 1.534-1.534.734 1.833.644 4.024-.2 4.868-.844.844-1.444-.656-1.334-3.334zm-761.61-9.947c.051-4.19.62-5.597 1.265-3.126.643 2.471.601 5.9-.095 7.619-.695 1.72-1.222-.302-1.17-4.493zm266.171-23.552c-22.903-17.594-22.728-17.184-26.339-61.78l-1.151-14.222 42.316-1.649c23.275-.907 77.746-2.064 121.047-2.572 49.02-.574 63.396-.3 38.095.728-31.365 1.275-17.591 1.774 60.38 2.19l101.016.54-.698 41.27-.697 41.27-162.54.526-162.54.527zm60.417-35.495-.734-22.223-27.302-.72-27.301-.721v45.886h56.07zm-31.81 17.86c3.86-.584 9.574-.568 12.698.034 3.124.603-.035 1.08-7.02 1.061-6.983-.02-9.539-.512-5.678-1.096zm250.222-17.86-.734-22.223-80.634-.67-80.635-.67v45.785h162.738zm-99.146 17.796c10.127-.482 26.698-.482 36.825 0 10.127.482 1.841.877-18.413.877-20.253 0-28.54-.394-18.412-.877zm-282.86-24.78c.005-15.366.424-21.324.93-13.241.505 8.083.5 20.654-.01 27.936-.512 7.283-.925.67-.92-14.696zm775.558 4.476c7.334-.513 19.334-.513 26.667 0 7.333.513 1.333.933-13.333.933-14.667 0-20.667-.42-13.334-.933zM23.446 1160.635c0-4.889.523-6.889 1.162-4.444.639 2.444.639 6.444 0 8.888-.639 2.445-1.162.445-1.162-4.444zm815.05-17.778c0-3.492.577-4.92 1.281-3.174.705 1.746.705 4.603 0 6.349-.704 1.746-1.28.317-1.28-3.175zm-759.365-5.08c0-3.491.577-4.92 1.281-3.174.705 1.746.705 4.603 0 6.35-.704 1.745-1.28.317-1.28-3.175zm176.742 3.398c1.746-.704 4.603-.704 6.35 0 1.745.705.317 1.281-3.175 1.281s-4.921-.576-3.175-1.28zm17.778-.11c3.143-.606 8.286-.606 11.428 0 3.143.605.572 1.1-5.714 1.1-6.286 0-8.857-.495-5.714-1.1zm514.334-40.603c2.471-.644 5.9-.601 7.619.094 1.72.696-.302 1.223-4.493 1.17-4.19-.051-5.597-.62-3.126-1.264zm-416.026-33.964c-.92-1.49-1.13-3.254-.464-3.92.666-.665 1.888.554 2.715 2.71 1.717 4.474.253 5.262-2.25 1.21zm452.168-4.91c2.528-2.794 5.168-5.08 5.867-5.08.698 0-.799 2.286-3.327 5.08-2.528 2.793-5.168 5.079-5.867 5.079-.698 0 .799-2.286 3.327-5.08zm-459.787-2.71c-.92-1.49-1.13-3.253-.464-3.918.666-.666 1.888.553 2.715 2.708 1.717 4.475.253 5.263-2.25 1.21zm361.533-82.835c1.833-.734 4.024-.644 4.868.2.844.844-.656 1.444-3.334 1.334-2.958-.122-3.56-.723-1.534-1.534zm-136.032-116.91c3.842-.582 10.127-.582 13.969 0 3.84.582.698 1.058-6.985 1.058-7.682 0-10.825-.476-6.984-1.058zm-7.57-38.036c2.47-.644 5.9-.601 7.619.094 1.72.696-.303 1.223-4.493 1.171-4.19-.052-5.597-.62-3.126-1.265zm22.857 0c2.47-.644 5.9-.601 7.619.094 1.72.696-.302 1.223-4.493 1.171-4.19-.052-5.597-.62-3.126-1.265zm-432.906-22.832c1.834-.733 4.024-.643 4.868.2.844.844-.656 1.445-3.333 1.334-2.959-.122-3.56-.723-1.535-1.534zM813.194 648.89c.051-4.19.62-5.597 1.264-3.126.644 2.47.602 5.9-.094 7.619-.695 1.72-1.222-.303-1.17-4.493zm218.878-67.302c0-16.063.412-22.635.916-14.603.504 8.032.504 21.175 0 29.206-.504 8.032-.916 1.46-.916-14.603zM482.94 540.952c0-3.492.576-4.92 1.28-3.174.705 1.746.705 4.603 0 6.349-.704 1.746-1.28.317-1.28-3.175zm-322.215-41.904c.02-6.984.513-9.54 1.096-5.68.584 3.86.569 9.575-.034 12.699-.603 3.123-1.08-.035-1.062-7.02zm55.642-45.715c.052-4.19.621-5.597 1.265-3.126.644 2.471.602 5.9-.094 7.62-.696 1.719-1.223-.303-1.17-4.494zm812.793-1.27c0-4.888.522-6.888 1.161-4.444.639 2.445.639 6.445 0 8.889-.639 2.444-1.161.444-1.161-4.444zm-455.193-74.648c0-.55 1.774-1.68 3.942-2.511 2.26-.867 3.28-.442 2.39.998-1.492 2.413-6.332 3.57-6.332 1.513zm-50.793-86.325c0-.536 2.287-1.572 5.083-2.303 2.795-.731 4.442-.293 3.66.974-1.368 2.211-8.743 3.333-8.743 1.329zm60.317-51.502c1.746-.705 4.603-.705 6.35 0 1.745.704.317 1.28-3.175 1.28s-4.92-.576-3.175-1.28zm20.318 0c1.746-.705 4.603-.705 6.349 0 1.746.704.317 1.28-3.175 1.28s-4.92-.576-3.174-1.28zm-74.828-40.833c8.082-.505 20.654-.5 27.936.01 7.283.512.67.926-14.696.92-15.365-.006-21.323-.424-13.24-.93zm106.666 0c8.083-.505 20.655-.5 27.937.01 7.282.512.669.926-14.696.92-15.365-.006-21.323-.424-13.24-.93zm-59.14-84.47c8.498-2.72 33.032-2.72 39.365 0 3.27 1.406-3.97 2.157-20.317 2.109-16.407-.048-23.15-.795-19.048-2.108zm118.889-39.83c1.833-.733 4.024-.643 4.868.201.844.844-.656 1.444-3.334 1.334-2.958-.122-3.56-.724-1.534-1.534zm-17.778-2.54c1.833-.733 4.024-.643 4.868.201.844.844-.656 1.445-3.333 1.334-2.96-.122-3.56-.723-1.535-1.534zM542.857 69.43c1.746-.704 4.603-.704 6.35 0 1.745.705.317 1.281-3.175 1.281s-4.92-.576-3.175-1.28zm73.651 0c1.746-.704 4.603-.704 6.35 0 1.745.705.317 1.281-3.175 1.281s-4.921-.576-3.175-1.28zm20.317 0c1.746-.704 4.604-.704 6.35 0 1.746.705.317 1.281-3.175 1.281s-4.92-.576-3.175-1.28zm63.651-35.608c1.834-.734 4.024-.644 4.868.2.844.844-.656 1.444-3.333 1.334-2.959-.122-3.56-.724-1.535-1.534zm-177.301-1.779c0-.535 2.822-1.513 6.272-2.173 3.45-.66 5.668-.221 4.93.974-1.301 2.104-11.202 3.164-11.202 1.2zm139.047-.708c1.746-.705 4.603-.705 6.35 0 1.746.704.317 1.28-3.175 1.28s-4.92-.576-3.175-1.28z" transform="matrix(1 0 0 .89376 0 -21.028)"/><path style="fill:#2e3045;stroke-width:2.53968" d="M272.524 1397.467c16.492-.443 42.777-.441 58.413 0 15.635.445 2.142.808-29.985.806-32.127 0-44.92-.366-28.428-.809zm782.172.018c8.083-.505 20.654-.5 27.936.01 7.283.512.67.925-14.695.92-15.365-.01-21.324-.424-13.241-.93zm-970.203-2.42c2.47-.643 5.9-.6 7.619.095 1.72.695-.302 1.222-4.493 1.17-4.19-.052-5.597-.62-3.126-1.264zm1062.967.026c1.834-.734 4.024-.644 4.868.2.844.844-.656 1.444-3.333 1.334-2.959-.122-3.56-.724-1.535-1.534zM48.216 1381.515c-6.15-4.681-6.164-4.766-.557-3.33 3.164.812 6.422 2.557 7.238 3.878 2.793 4.518-.366 4.26-6.681-.548zm104.877-22.115c6.677-.525 16.962-.519 22.857.015 5.894.533.431.962-12.14.954-12.572-.01-17.395-.443-10.717-.968zm505.955-.395-10.159-1.545-.695-43.81-.695-43.809 17.203.48 17.203.48-14.603.917-14.604.916v83.557l32.381.188c17.81.103 37.524 1.103 43.81 2.222 13.82 2.459-53.752 2.85-69.841.404zm204.444-.275c-2.691-1.739.664-2.462 11.429-2.462 10.764 0 14.12.723 11.428 2.462-2.095 1.354-7.238 2.462-11.428 2.462s-9.334-1.108-11.429-2.462zm109.207.71c-18.734-3.362-3.73-4.42 50.281-3.545 39.767.643 56.747 1.67 50.036 3.028-10.508 2.125-89.095 2.53-100.317.516zm-131.104-28.646c0-16.064.413-22.635.917-14.603.504 8.031.504 21.174 0 29.206s-.917 1.46-.917-14.603zm-818.56 12.213c.099-1.828 1.161-5.61 2.362-8.404 1.949-4.535 2.202-4.347 2.361 1.755.098 3.759-.964 7.54-2.361 8.404-1.397.863-2.46.074-2.361-1.755zm.583-55.388c0-7.682.476-10.825 1.058-6.984.582 3.841.582 10.127 0 13.968-.582 3.842-1.058.699-1.058-6.984zm53.56-44.444c.004-18.16.408-25.254.898-15.768.49 9.487.487 24.344-.008 33.016-.494 8.672-.895.91-.89-17.248zm142.505 26.666c-15.366-.844 23.492-1.593 86.349-1.664 62.857-.071 107.428.722 99.047 1.762-17.781 2.206-144.7 2.14-185.396-.098zm778.613-1.481c.122-2.959.724-3.56 1.534-1.535.734 1.834.644 4.024-.2 4.868-.844.844-1.444-.656-1.334-3.333zm-285.28-.378c5.936-.535 15.65-.535 21.587 0 5.937.534 1.08.972-10.793.972s-16.73-.438-10.794-.972zm-525.714-4.063c-1.048-2.558-1.833-8.273-1.744-12.698.157-7.852.22-7.896 2.656-1.795 1.373 3.438 2.158 9.153 1.744 12.699-.643 5.516-1.027 5.775-2.656 1.794zm816.073-8.258c.122-2.958.724-3.56 1.535-1.534.733 1.833.643 4.024-.2 4.868-.845.844-1.445-.656-1.335-3.334zm-53.333-7.619c.122-2.958.724-3.56 1.534-1.534.734 1.833.644 4.024-.2 4.868-.844.844-1.444-.656-1.334-3.334zm-654.4-60.74c-.003-23.746.38-33.802.849-22.347.47 11.455.472 30.884.005 43.174-.467 12.291-.851 2.919-.854-20.827zm107.734-.635c.546-23.397 1.396-42.974 1.89-43.505.493-.53 34.938-1.268 76.545-1.64 60.814-.542 67.93-.294 36.284 1.264-21.65 1.066-50.997 2.09-65.213 2.275l-25.848.336 1.19 14.603c3.292 40.362 3.673 41.94 12.06 50.023 4.427 4.265 11.46 10.263 15.628 13.328l7.58 5.573-30.555.141-30.554.141zm508.37 5.714c-10.406-10.476-18.349-19.048-17.65-19.048.698 0 9.784 8.572 20.19 19.048 10.406 10.476 18.349 19.048 17.65 19.048-.698 0-9.784-8.572-20.19-19.048zm-398.233-6.898-.497-19.597-27.302-.816-27.301-.817 27.381-.539c21.02-.414 27.687.257 28.696 2.887.723 1.885.911 11.313.418 20.953l-.897 17.525zm218.413-.05-.497-19.647-80.635-.708-80.635-.707 80.714-.598c65.81-.488 80.958.035 82.03 2.828.723 1.885.911 11.314.418 20.953l-.898 17.526zm245.528 11.393c-3.16-4.028-3.07-4.118.959-.96 4.23 3.319 5.576 5.404 3.485 5.404-.527 0-2.527-2-4.444-4.444zm-953.836-15.873c0-7.683.476-10.826 1.058-6.984.582 3.84.582 10.127 0 13.968-.582 3.841-1.058.698-1.058-6.984zm938.73-1.905-6.157-6.984 6.984 6.157c6.527 5.754 8.148 7.811 6.157 7.811-.455 0-3.598-3.143-6.984-6.984zm-123.612-22.222c.028-5.588.548-7.574 1.156-4.415.607 3.159.584 7.73-.052 10.159-.635 2.428-1.132-.157-1.104-5.744zm43.778 3.768c-.877-1.42-2.659-1.924-3.96-1.12-1.3.804-2.363-.32-2.363-2.498 0-2.178.478-3.96 1.062-3.96.584 0 3.155-.785 5.714-1.745 3.9-1.463 4.149-1.125 1.538 2.092-2.387 2.942-2.417 4.535-.127 6.825 1.643 1.643 2.255 2.987 1.36 2.987-.896 0-2.346-1.162-3.224-2.581zM24.55 1133.545c-2.634-2.635-1.99-11.005.847-11.005 1.397 0 2.54 2.857 2.54 6.349 0 6.649-.587 7.456-3.387 4.656zm54.581-5.926c0-3.492.577-4.92 1.281-3.174.705 1.746.705 4.603 0 6.349-.704 1.746-1.28.317-1.28-3.175zm274.085 1.058c.122-2.958.724-3.56 1.535-1.534.733 1.833.643 4.024-.2 4.868-.845.844-1.445-.656-1.334-3.334zm4.604-21.606c3.34-2.737 6.693-4.357 7.45-3.6 2.03 2.03-3.898 7.24-9.054 7.955-3.518.489-3.177-.438 1.604-4.355zm472.605 1.44c-4.898-5.903-1.913-6.533 5.169-1.092 4.704 3.615 5.259 4.863 2.177 4.906-2.273.03-5.579-1.686-7.346-3.815zm-428.415-8.174c9.487-.49 24.344-.487 33.016.01 8.672.494.91.895-17.248.89-18.159-.01-25.254-.409-15.768-.899zm162.435-.013c17.809-.437 46.952-.437 64.761 0 17.81.436 3.239.793-32.38.793-35.62 0-50.191-.357-32.382-.793zm189.206.038c5.936-.535 15.65-.535 21.587 0 5.937.534 1.08.972-10.793.972s-16.73-.438-10.794-.972zm45.873.124c1.833-.733 4.024-.643 4.868.2.844.845-.656 1.445-3.334 1.335-2.958-.122-3.56-.724-1.534-1.535zm7.154-27.412c.817-2.127 3.036-3.868 4.933-3.868 1.897 0 4.724-2.384 6.283-5.297 1.56-2.913 3.497-4.635 4.307-3.825 1.77 1.77-6.413 11.189-12.592 14.495-3.444 1.844-4.089 1.512-2.93-1.505zm-429.141-3.434c-2.312-2.554-4.166-5.697-4.12-6.984.047-1.287 2.191.183 4.765 3.267 2.574 3.083 5.278 5.007 6.01 4.275.732-.732 2.084-.112 3.005 1.378 2.842 4.598-5.207 2.985-9.66-1.936zm227.55-4.45-8.247-6.5-7.626 5.43c-4.195 2.988-7.627 4.343-7.627 3.011 0-1.331 3.053-4.42 6.784-6.865 6.464-4.235 7.176-4.234 15.09.028 4.567 2.46 8.907 6.043 9.644 7.962 1.756 4.577 1.606 4.52-8.018-3.065zm101.615-7.966c3.86-.584 9.574-.568 12.698.034 3.124.603-.035 1.08-7.019 1.062-6.984-.02-9.54-.513-5.68-1.096zm-639.4-13.415c5.455-5.587 10.49-10.159 11.19-10.159.698 0-3.195 4.572-8.65 10.16-5.457 5.586-10.492 10.158-11.19 10.158-.699 0 3.194-4.572 8.65-10.159zm289.282 4.445-4.838-5.715 5.714 4.838c5.37 4.547 6.87 6.59 4.838 6.59-.482 0-3.053-2.57-5.714-5.713zm765.764-6.35-6.157-6.984 6.984 6.157c6.527 5.755 8.149 7.812 6.157 7.812-.455 0-3.598-3.143-6.984-6.985zm-722.508-13.968-7.459-8.254 8.254 7.46c7.694 6.952 9.421 9.048 7.46 9.048-.438 0-4.152-3.714-8.255-8.254zm392.541-.635c3.28-3.492 6.536-6.349 7.235-6.349.698 0-1.415 2.857-4.695 6.35-3.28 3.491-6.536 6.348-7.235 6.348-.698 0 1.414-2.857 4.695-6.349zm-296.792-19.894c-2.12-2.555-1.912-3.386.848-3.386 2.011 0 3.129.855 2.483 1.9-.646 1.044.262 2.478 2.017 3.185 1.987.801 2.11 1.362.326 1.487-1.575.11-4.128-1.323-5.674-3.186zm193.697.461c-1.09-1.764-.707-2.253.96-1.223 1.526.943 3.954-.309 5.394-2.782 1.44-2.474 2.659-3.355 2.708-1.959.05 1.397 3.036-.888 6.636-5.079l6.547-7.619-5.466 8.26c-6.608 9.984-14.149 14.659-16.78 10.402zm170.232.653c.944-1.529 4.077-4.043 6.962-5.586 3.757-2.011 4.757-2.02 3.526-.027-.944 1.528-4.077 4.042-6.962 5.586-3.757 2.01-4.757 2.018-3.526.027zm172.8-207.252c0-106.158.314-149.217.697-95.684.383 53.532.383 140.389 0 193.015-.383 52.627-.697 8.828-.696-97.33zM456.668 976.043c1.833-.734 4.024-.644 4.867.2.844.844-.656 1.444-3.333 1.334-2.958-.122-3.56-.723-1.534-1.534zm57.487-11.661c-.683-1.78-.93-27.78-.55-57.778l.692-54.54 1.265 57.78c.695 31.778.943 57.778.55 57.777-.393 0-1.274-1.459-1.957-3.24zm-327.064-46.71c-.931-.931-1.693-8.3-1.693-16.375v-14.682l-13.333-1.054c-7.334-.58-.762-.925 14.603-.767l27.936.285v-44.175l-11.428 1.26c-6.286.692-14.572 1.746-18.413 2.341-7.92 1.227-8.646-.031-3.175-5.503 2.437-2.436 3.81-8.704 3.81-17.388 0-7.469.659-15.296 1.464-17.395.989-2.576-.455-4.192-4.445-4.978-3.25-.64 2.268-.577 12.262.14l18.17 1.303.277-108.913c.152-59.903 1.537-123.538 3.078-141.411 1.54-17.874 2.345-51.365 1.788-74.425-.556-23.06-.184-39.864.828-37.344 1.011 2.521 1.745-4.56 1.63-15.734-.172-16.576 1.299-24.76 7.983-44.444 4.506-13.27 12.592-32.361 17.967-42.425 10.365-19.402 25.358-41.12 28.502-41.286 1.037-.054 8.719 13.33 17.07 29.742 16.971 33.35 19.12 36.537 27.733 41.126 7.398 3.942 15.375 2.813 63.48-8.985 74.273-18.217 169.197-30.632 169.197-22.13 0 5.166-28.051 25.117-53.975 38.389-24.638 12.613-163.184 69.148-169.004 68.964-1.679-.053-9.338-5.185-17.021-11.404l-13.968-11.306-.678 63.136-.678 63.136-14.608 7.786c-18.003 9.595-32.44 23.69-36.326 35.466-1.675 5.075-2.43 16.783-1.76 27.247 1.682 26.196 12.172 47.398 35.203 71.15l18.005 18.57-.849 69.427c-.805 65.856-1.142 70.022-6.536 80.967-10.906 22.13-37.679 41.095-73.387 51.986-11.55 3.523-21.692 7.528-22.54 8.9-1.788 2.893-4.747 3.224-7.169.803zm761.107-20.018c-25.708-13.312-48.479-36.495-44.93-45.742.772-2.012.061-3.658-1.579-3.658-1.783 0-2.362-1.957-1.438-4.866.85-2.676.325-5.619-1.166-6.54-1.49-.921-2.607-5.303-2.483-9.738.125-4.434-.588-33.247-1.583-64.028l-1.81-55.966 15.575-14.856c19.037-18.158 29.907-34.66 36.247-55.03 12.235-39.312.867-66.256-35.789-84.831l-12.476-6.323-.763-60.767c-.42-33.423-1.575-61.578-2.567-62.567-.992-.989-7.436 2.918-14.32 8.682-6.885 5.765-13.798 10.48-15.362 10.48-5.908 0-127.36-49.34-158.991-64.59C669.419 360.275 640 340.422 640 333.61c0-3.705 2.665-3.979 23.492-2.415 32.463 2.438 102.564 14.768 146.667 25.798 45.944 11.491 60.667 12.24 69.99 3.56 3.7-3.447 13.522-19.789 21.826-36.316 17.272-34.375 15.75-34.075 33.954-6.691 24.3 36.55 35.809 71.589 39.503 120.258 3.197 42.128 2.174 457.502-1.145 464.42-2.996 6.245-6.336 5.66-26.09-4.569zm-407.88-40.923c1.747-.705 4.604-.705 6.35 0 1.746.704.317 1.28-3.175 1.28s-4.92-.576-3.174-1.28zm106.667 0c1.746-.705 4.603-.705 6.35 0 1.745.704.317 1.28-3.175 1.28s-4.92-.576-3.175-1.28zm-73.492-35.609c1.833-.733 4.024-.643 4.868.2.844.845-.656 1.445-3.333 1.335-2.96-.122-3.56-.724-1.535-1.535zm43.175 0c1.833-.733 4.024-.643 4.867.2.844.845-.656 1.445-3.333 1.335-2.958-.122-3.56-.724-1.534-1.535zm-56.032-2.487c1.746-.704 4.603-.704 6.35 0 1.745.705.317 1.281-3.175 1.281s-4.921-.576-3.175-1.28zm69.841-.068c2.445-.639 6.445-.639 8.89 0 2.444.639.444 1.161-4.445 1.161-4.89 0-6.89-.522-4.445-1.161zM446.66 775.238c-3.159-4.028-3.069-4.118.96-.959 2.444 1.917 4.444 3.917 4.444 4.445 0 2.09-2.086.745-5.404-3.486zm294.927 3.486c0-.528 2-2.528 4.445-4.445 4.028-3.159 4.118-3.069.959.96-3.318 4.23-5.404 5.575-5.404 3.485zm-333.022-39.041c-3.16-4.029-3.07-4.118.959-.96 2.444 1.918 4.444 3.918 4.444 4.445 0 2.09-2.085.745-5.403-3.485zm-29.751-71.746c0-3.493.576-4.921 1.28-3.175.705 1.746.705 4.603 0 6.35-.704 1.745-1.28.317-1.28-3.175zm434.285-7.62c0-3.492.577-4.92 1.281-3.174.705 1.746.705 4.603 0 6.35-.704 1.745-1.28.317-1.28-3.176zm-490.267-44.444c.132-20.423.99-30.594 2.247-26.667 2.92 9.114 2.92 51.357 0 55.873-1.653 2.558-2.391-7.036-2.247-29.206zm542.458 21.566c-1.814-6.938.91-46.087 3.534-50.772 1.254-2.24 2.165 7.905 2.21 24.612.071 26.232-2.574 38.28-5.744 26.16zm-418.63-60.296c-3.159-4.028-3.069-4.118.96-.959 2.444 1.917 4.444 3.917 4.444 4.444 0 2.09-2.086.745-5.404-3.485zm20.642.946c0-.528 2-2.528 4.444-4.445 4.028-3.159 4.118-3.069.959.96-3.318 4.23-5.403 5.575-5.403 3.485zm274.285 0c0-.528 2-2.528 4.445-4.445 4.028-3.159 4.118-3.069.959.96-3.318 4.23-5.404 5.575-5.404 3.485zm13.34-35.867c.027-5.587.548-7.574 1.155-4.415.607 3.16.584 7.731-.051 10.16-.636 2.427-1.133-.158-1.105-5.745zM160.87 529.524c.009-11.175.455-15.43.992-9.457.536 5.974.529 15.116-.017 20.318-.546 5.2-.985.313-.975-10.861zm868.427-58.413c.02-6.984.512-9.54 1.096-5.68.584 3.861.568 9.576-.035 12.7-.603 3.123-1.08-.036-1.061-7.02zM161.88 442.54c-.669-5.238-.223-10.61.992-11.937 1.28-1.398 2.207 2.606 2.207 9.524 0 14.355-1.528 15.507-3.2 2.413zm866.892-7.196c.122-2.959.724-3.56 1.534-1.534.734 1.833.644 4.023-.2 4.867-.844.844-1.444-.656-1.334-3.333zM603.955 370.11c-6.455-4.882-7.198-4.936-13.244-.975-8.866 5.81-11.785 5.173-4.044-.882 3.492-2.732 8.063-4.966 10.158-4.966 4.332 0 17.08 9.095 15.2 10.846-.677.631-4.309-1.18-8.07-4.023zm119.378-72.163c1.834-.734 4.024-.644 4.868.2.844.844-.656 1.444-3.333 1.334-2.959-.122-3.56-.724-1.535-1.534zm-243.81-2.54c1.834-.734 4.025-.643 4.869.2.844.844-.657 1.445-3.334 1.334-2.958-.122-3.56-.723-1.534-1.534zm218.89-.805c-3.08-1.99-2.716-2.47 1.905-2.5 3.142-.02 5.714 1.103 5.714 2.5 0 3.182-2.695 3.182-7.62 0zm-206.35-1.792c3.143-.606 8.286-.606 11.43 0 3.142.605.57 1.1-5.715 1.1-6.286 0-8.857-.495-5.714-1.1zm183.016.057c1.834-.733 4.024-.643 4.868.2.844.845-.656 1.445-3.333 1.335-2.959-.122-3.56-.724-1.535-1.535zm-143.015-3.344c.863-1.397 3.72-2.54 6.349-2.54s5.486 1.143 6.349 2.54c.918 1.486-1.717 2.54-6.35 2.54-4.632 0-7.267-1.054-6.348-2.54zm100.529 1.614c.582-.51 7.344-1.68 15.026-2.6 9.736-1.166 12.814-.897 10.159.887-3.419 2.298-27.745 3.952-25.185 1.713zm309.83-46.27c.122-2.959.723-3.56 1.534-1.535.734 1.834.644 4.024-.2 4.868-.844.844-1.444-.656-1.334-3.333zm-348.772-5.28c1.746-.705 4.603-.705 6.35 0 1.745.704.317 1.28-3.176 1.28-3.492 0-4.92-.576-3.174-1.28zm26.919-21.175c0-11.873.437-16.73.972-10.794.535 5.937.535 15.65 0 21.587-.535 5.937-.972 1.08-.972-10.793zm55.856-39.365c.01-11.175.456-15.43.992-9.457.537 5.973.53 15.116-.017 20.317-.545 5.202-.984.314-.975-10.86zm-55.842-40.635c-.008-12.572.422-18.035.954-12.14.533 5.894.54 16.18.016 22.857-.526 6.677-.962 1.854-.97-10.717zm-77.568 17.312c1.833-.733 4.024-.643 4.868.2.844.845-.656 1.445-3.334 1.335-2.958-.122-3.56-.724-1.534-1.535zm106.667 0c1.833-.733 4.023-.643 4.867.2.844.845-.656 1.445-3.333 1.335-2.959-.122-3.56-.724-1.534-1.535zm351.353-49.058c0-3.492.577-4.921 1.281-3.175.704 1.746.704 4.603 0 6.35-.705 1.745-1.281.317-1.281-3.175zM398.254 84.614c1.833-.733 4.024-.643 4.868.2.844.845-.656 1.445-3.334 1.335-2.958-.122-3.56-.724-1.534-1.535zm35.556-5.079c1.833-.734 4.023-.643 4.867.2.844.844-.656 1.445-3.333 1.334-2.959-.122-3.56-.723-1.534-1.534zm43.174-5.08c1.834-.733 4.024-.643 4.868.201.844.844-.656 1.444-3.333 1.334-2.959-.122-3.56-.724-1.535-1.534zm236.19 0c1.834-.733 4.025-.643 4.868.201.844.844-.656 1.444-3.333 1.334-2.959-.122-3.56-.724-1.534-1.534zm-210.793-2.54c1.833-.733 4.024-.643 4.868.201.844.844-.656 1.445-3.334 1.334-2.958-.122-3.56-.723-1.534-1.534zm182.857 0c1.833-.733 4.024-.643 4.868.201.844.844-.656 1.445-3.333 1.334-2.959-.122-3.56-.723-1.535-1.534zm-152.54-2.486c1.746-.704 4.604-.704 6.35 0 1.746.705.317 1.281-3.175 1.281s-4.92-.576-3.175-1.28zm115.604-.078c2.471-.644 5.9-.601 7.62.094 1.719.696-.303 1.223-4.493 1.171-4.19-.052-5.598-.62-3.127-1.265zM784.286 43.98c1.833-.733 4.024-.643 4.868.2.843.845-.657 1.445-3.334 1.335-2.958-.122-3.56-.724-1.534-1.535zm-17.778-2.54c1.833-.733 4.024-.643 4.868.201.844.844-.656 1.444-3.334 1.334-2.958-.122-3.56-.724-1.534-1.534zM443.968 38.9c1.834-.734 4.024-.643 4.868.2.844.844-.656 1.445-3.333 1.334-2.959-.121-3.56-.723-1.535-1.534zm302.223 0c1.833-.734 4.023-.643 4.867.2.844.844-.656 1.445-3.333 1.334-2.959-.121-3.56-.723-1.534-1.534zm-279.366-2.54c1.834-.733 4.024-.643 4.868.2.844.845-.656 1.445-3.333 1.335-2.959-.122-3.56-.724-1.535-1.535zm256.508 0c1.834-.733 4.024-.643 4.868.2.844.845-.656 1.445-3.333 1.335-2.959-.122-3.56-.724-1.535-1.535zm-242.65-2.564c2.471-.644 5.9-.602 7.62.094 1.719.695-.303 1.222-4.493 1.17-4.19-.051-5.598-.62-3.127-1.264zm13.92.078c1.746-.705 4.603-.705 6.35 0 1.745.704.317 1.28-3.175 1.28s-4.92-.576-3.175-1.28zm198.254-.053c1.834-.734 4.024-.644 4.868.2.844.844-.656 1.444-3.333 1.334-2.959-.122-3.56-.724-1.535-1.534zm-158.254-3.345c.864-1.397 6.36-2.46 12.214-2.361 8.274.139 9.513.664 5.564 2.361-7.182 3.086-19.685 3.086-17.778 0zm106.667 0c-3.949-1.697-2.71-2.222 5.564-2.361 5.854-.098 11.35.964 12.214 2.361 1.907 3.086-10.596 3.086-17.778 0z" transform="matrix(1 0 0 .89376 0 -21.028)"/><path style="fill:#030305;stroke-width:2.53968" d="M219.683 1396.915c-136.08-1.324-139.987-1.5-151.49-6.818-14.227-6.576-29.864-21.663-36.122-34.85-11.686-24.626-11.126-215.15.743-253.208 13.834-44.354 51.617-79.856 108.034-101.513l17.882-6.864.711-32.07.71-32.068h13.755c12.506 0 14.054-.633 17.07-6.984 2.718-5.72 7.457-8.368 26.171-14.624 38.177-12.763 62.082-29.682 72.863-51.57 5.616-11.4 5.899-14.833 6.712-81.33l.85-69.428-18.006-18.568c-23.03-23.752-33.521-44.955-35.202-71.151-.672-10.464.084-22.172 1.759-27.247 3.886-11.776 18.323-25.87 36.326-35.466l14.608-7.786.678-63.136.678-63.136 13.968 11.307c7.683 6.218 15.342 11.35 17.021 11.403 5.82.185 144.366-56.35 169.004-68.964 25.924-13.272 53.975-33.223 53.975-38.39 0-8.5-94.924 3.915-169.197 22.13-48.105 11.799-56.082 12.928-63.48 8.986-8.614-4.59-10.762-7.775-27.733-41.126-8.351-16.412-16.033-29.796-17.07-29.742-1.037.055-5.675 5.25-10.306 11.544-22.054 29.971-42.155 80.256-46.2 115.574-1.214 10.604-2.886 90.604-3.714 177.777-.829 87.174-2.154 168.036-2.945 179.693l-1.439 21.195-20.704-1.694c-11.387-.932-22.704-2.261-25.149-2.953-4.146-1.175-4.439-8.615-4.364-110.93.106-144.624 3.452-251.218 8.676-276.367 9.82-47.271 29.542-90.468 59.375-130.05 15.288-20.281 20.758-29.554 20.758-35.184 0-4.378-10.991-31.14-25.718-62.619-35.794-76.513-36.008-77.262-24.228-84.905 20.654-13.4 147.225-43.173 228.267-53.693 82.191-10.67 206.483-13.788 277.552-6.964 102.368 9.83 239.2 37.695 282.54 57.536 19.852 9.09 19.866 9.022-19.129 91.465-12.553 26.54-23.571 51.755-24.485 56.033-1.478 6.924.73 10.974 20.07 36.826 23.323 31.176 40.02 62.531 50.63 95.078 15.65 48.005 14.808 30.263 16.032 338.1l1.123 282.226 20.736 8.094c58.834 22.965 92.081 54.72 107.113 102.305 5.267 16.673 6.322 25.078 6.322 50.358v30.345h-50.228l-1.061-36.19c-1.343-45.823-5.03-55.476-30.289-79.304-29.282-27.623-39.665-31.354-147.402-52.966-42.428-8.51-69.153-12.775-71.574-11.42-2.124 1.189-6.818 8.618-10.431 16.51-13.666 29.85-54.117 60.34-95.132 71.707-10.303 2.855-19.277 5.734-19.94 6.399-2.502 2.501 11.978 3.87 48.213 4.556 48.636.921 47.184-.315 50.32 42.857 1.26 17.326 2.324 72.191 2.367 121.923l.078 90.42 19.43 1.643c10.688.904 25.26 1.625 32.382 1.603l12.95-.04 16.209-30.06c42.138-78.143 41.437-87.295-10.89-142.199-32.804-34.42-32.453-33.233-13.187-44.524 20.512-12.02 21.09-11.866 43.61 11.632 28.535 29.777 46.911 52.454 52.089 64.279 12.378 28.27 8.572 55.724-14.214 102.537-11.546 23.722-15.306 33.784-13.148 35.184 1.663 1.079 35.88 2.325 76.039 2.77l73.016.81v-132.413h50.793v77.18c0 71.985-.324 77.578-4.815 83.125-4.76 5.877-5.604 5.968-71.746 7.683-75.859 1.967-657.973 1.78-869.47-.279zm377.142-82.63v-46.983H190.476v-38.096h50.794v-83.809h53.333v83.809h58.413l.11-46.349c.191-79.808-.286-79.082 52.652-80.046 54.095-.984 55.542-1.837 22.018-12.97-42.04-13.961-78.22-42.523-90.48-71.428-2.667-6.286-6.507-12.695-8.534-14.243-2.784-2.124-20.019.465-70.361 10.57-114.33 22.95-119.398 24.782-150.104 54.268-27.77 26.666-27.298 24.96-29.898 108.006-1.226 39.182-1.345 93.235-.264 120.119 2.464 61.276 1.176 59.25 39.218 61.676 14.365.915 128.12 1.844 252.786 2.063l226.666.398zm193.016 0v-46.983h-28.8c-15.84 0-47.867.752-71.17 1.67l-42.368 1.672.693 43.408.693 43.408 10.159 1.545c5.587.85 37.301 1.706 70.476 1.905l60.317.36zm0-129.72v-44.64l-191.535.831c-105.345.457-192.076 1.403-192.737 2.101-.66.699-1.647 20.413-2.193 43.81l-.993 42.54h387.459zm-330.158.197v-19.048h53.333v38.096h-53.333zm111.746 0v-19.048h160v38.096h-160zm99.047-84.872c15.203-1.99 15.072-2.103-12.382-10.535-10.64-3.267-27.034-11.172-37.948-18.297-10.568-6.899-20.688-13.109-22.488-13.8-1.8-.69-8.724 2.717-15.386 7.573-15.105 11.01-33.332 20.147-51.478 25.809-21.835 6.812-22.41 7.403-8.89 9.147 17.556 2.264 131.472 2.343 148.572.103zm63.492-43.513c22.132-3.53 45.617-14.836 58.923-28.366 12.434-12.644 21.132-27.88 19.036-33.343-1.523-3.968-21.831-9.25-61.022-15.87l-23.78-4.018-12.85 12.32c-15.075 14.455-39.102 29.26-59.785 36.84-18.839 6.906-18.223 10.943 3.32 21.774 23.846 11.988 47.276 15.269 76.158 10.663zm-203.174-7.205c11.795-6.126 22.857-14.98 22.857-18.296 0-1.04-7.244-4.301-16.099-7.248-19.506-6.49-51.89-27.272-62.435-40.066l-7.705-9.347-38.769 6.974c-21.323 3.836-41.36 8.672-44.526 10.746-5.578 3.655-5.627 4.025-1.573 11.95 11.155 21.806 31.767 39.678 55.551 48.167 10.305 3.678 19.16 4.393 46.984 3.793 30.124-.648 35.674-1.459 45.715-6.673zm117.775-64.996c8.06-4.077 18-11.225 22.09-15.883l7.436-8.47V853.411l-15.873 1.866c-20.986 2.467-110.349 2.393-132.063-.11l-17.143-1.975v111.212l9.58 6.34c13.39 8.862 30.934 17.66 39.944 20.032 4.19 1.103 21.964 1.738 39.497 1.41 29.571-.552 32.939-1.132 46.532-8.01zm325.718-81.954c3.319-6.917 4.342-422.291 1.145-464.419-3.694-48.67-15.204-83.707-39.503-120.258-18.204-27.384-16.682-27.684-33.954 6.691-8.304 16.527-18.126 32.87-21.827 36.316-9.322 8.68-24.045 7.931-69.99-3.56-44.102-11.03-114.203-23.36-146.666-25.798-20.827-1.564-23.492-1.29-23.492 2.415 0 6.812 29.419 26.666 64.762 43.706 31.632 15.25 153.083 64.59 158.99 64.59 1.565 0 8.478-4.716 15.362-10.48 6.885-5.765 13.33-9.672 14.321-8.683.992.99 2.147 29.144 2.567 62.567l.763 60.767 12.476 6.323c36.656 18.575 48.024 45.52 35.789 84.83-6.306 20.262-17.196 36.86-35.867 54.669l-15.195 14.493.125 34.741c.213 59.317 3.7 102.289 9.325 114.941 6.737 15.151 23.32 30.603 44.584 41.54 19.97 10.273 23.289 10.855 26.285 4.61zM634.102 820.15c24.64-3.358 68.164-17.612 88.513-28.988 41.694-23.31 71.258-55.895 85.48-94.221 5.354-14.426 5.62-19.37 6.553-121.95l.973-106.914-55.43-22.263c-74.473-29.911-108.108-46.14-136.788-65.997-13.22-9.153-25.231-16.641-26.693-16.641-1.462 0-13.595 7.467-26.963 16.594-30.937 21.123-57.162 33.815-130.798 63.302l-59.266 23.733-.665 99.83c-.394 59.059.378 105.577 1.889 113.9 8 44.074 50.415 92.344 102.949 117.159 45.628 21.553 98.689 29.484 150.246 22.456zM447.74 575.873c-16.14-17.704-12.736-61.89 5.378-69.822 9.523-4.17 17.586-.089 23.707 11.997 10.193 20.123 6.432 46.455-8.288 58.034-8.912 7.01-14.266 6.956-20.797-.209zm277.957 2.961c-2.455-1.43-6.952-7.394-9.994-13.256-7.378-14.216-7.33-32.586.122-46.95 14.404-27.766 38.46-13.008 38.46 23.594 0 16.598-4.737 29.44-12.994 35.224-6.805 4.766-9.398 4.997-15.594 1.388zm-401.954 79.579c2.825-7.188 4.726-49.604 2.8-62.453-1.551-10.34-2.551-11.833-7.928-11.833-3.385 0-9.753 3.216-14.151 7.146-7.196 6.43-7.985 8.56-7.871 21.254.09 10.065 2.09 18.025 6.977 27.775 7.062 14.089 13.275 22.555 16.552 22.555 1.03 0 2.66-2 3.621-4.444zm558.334-5.08c10.05-14.553 14.431-27.115 14.431-41.383 0-10.955-1.156-14.132-7.424-20.4-8.848-8.848-19.379-9.917-21.823-2.214-2.227 7.015-2.346 67.12-.14 70.689 3.215 5.202 8.319 2.92 14.956-6.692zM370.37 317.582c139.025-35.4 287.923-36.712 435.14-3.835 22.409 5.005 40.968 8.745 41.242 8.311 6.114-9.664 15.47-28.188 53.145-105.217 24.675-50.451 44.864-92.99 44.864-94.529 0-3.598-41.068-16.274-79.358-24.494C748.35 72.688 601.699 62.339 504.127 72.32c-86.526 8.852-121.014 13.848-176.783 25.61-25.779 5.437-77.527 20.015-80.464 22.668-1.811 1.636 98.443 201.94 101.073 201.94 1.62 0 11.709-2.23 22.418-4.957zm201.058-99.17v-20.317H515.556V160H571.429v-43.175h48.254V160H675.556v38.095H619.683V238.73h-48.254zM186.032 884.456 160 883.632l.039-14.514c.021-7.983 1.025-16.071 2.23-17.974 4.365-6.89 47.678-11.067 49.715-4.795 1.652 5.087 2.921 40.054 1.432 39.465-.744-.295-13.067-.906-27.384-1.36z" transform="matrix(1 0 0 .89376 0 -21.028)"/></svg>