<svg width="64" height="64" xmlns="http://www.w3.org/2000/svg"><path style="fill:#e3ae4a" d="M9.685 61.352c-1.284-1.284-.797-47.84.515-49.152.66-.66 3.027-1.2 5.26-1.2 2.976 0 4.392-.534 5.308-2 .687-1.1 2.073-2 3.08-2 1.007 0 2.344-1.125 2.97-2.5 1.666-3.656 8.698-3.656 10.364 0 .626 1.375 1.963 2.5 2.97 2.5 1.007 0 2.393.9 3.08 2 .922 1.476 2.332 2 5.386 2 6.447 0 6.45.01 6.15 26.625C54.5 61.5 54.5 61.5 32.435 61.769c-12.135.147-22.373-.04-22.75-.417z" transform="translate(.547 -.365)"/><path style="fill:#00edcf" d="M9.685 61.352c-1.284-1.284-.797-47.84.515-49.152.66-.66 3.027-1.2 5.26-1.2 2.976 0 4.392-.534 5.308-2 .687-1.1 2.145-2 3.24-2C25.104 7 26 6.582 26 6.071 26 1.741 35.328.43 37.182 4.5c.626 1.375 1.963 2.5 2.97 2.5 1.007 0 2.393.9 3.08 2 .922 1.476 2.332 2 5.386 2 6.447 0 6.45.01 6.15 26.625C54.5 61.5 54.5 61.5 32.435 61.769c-12.135.147-22.373-.04-22.75-.417zm16.17-16.933c4.814 1.423 7.39 1.736 9.645 1.17C39.207 44.66 38.529 43 34.441 43c-3.817 0-3.936-1.91-.132-2.122 1.205-.067-.452-.508-3.683-.98-7.187-1.049-12.517 1.568-10.577 5.193.948 1.771 1.194 1.809 2.604.399.857-.857 2.298-1.339 3.202-1.071zM43 14.582C43 9.282 42.462 9 32.372 9c-9.954 0-12.855 1.693-11.035 6.436C22.503 18.474 43 17.666 43 14.582z" transform="translate(.547 -.365)"/><path style="fill:#00aae8" d="M9.685 61.352c-1.284-1.284-.797-47.84.515-49.152.66-.66 3.027-1.2 5.26-1.2 2.976 0 4.392-.534 5.308-2 .687-1.1 2.145-2 3.24-2C25.104 7 26 6.582 26 6.071 26 1.741 35.328.43 37.182 4.5c.626 1.375 1.963 2.5 2.97 2.5 1.007 0 2.393.9 3.08 2 .922 1.476 2.332 2 5.386 2 6.447 0 6.45.01 6.15 26.625C54.5 61.5 54.5 61.5 32.435 61.769c-12.135.147-22.373-.04-22.75-.417zM52.5 36.5c0-23 0-23-4-23.17-3.51-.148-3.633-.086-1 .51 3 .68 3 .68 3 22.17 0 21.49 0 21.49-18.5 21.49s-18.5 0-18.5-21.49 0-21.49 3-22.17c2.633-.596 2.51-.658-1-.51-3.655.155-7 37.715-4.044 45.417.39 1.013 4.906 1.236 20.77 1.024C52.5 59.5 52.5 59.5 52.5 36.5zm-26.645 7.919c4.814 1.423 7.39 1.736 9.645 1.17C39.207 44.66 38.529 43 34.441 43c-3.817 0-3.936-1.91-.132-2.122 1.205-.067-.452-.508-3.683-.98-7.187-1.049-12.517 1.568-10.577 5.193.948 1.771 1.194 1.809 2.604.399.857-.857 2.298-1.339 3.202-1.071zm11.57-12.337c3.265-3.607 1.726-6.55-3.425-6.55-3.943 0-4.54.286-4.83 2.316C28.789 30.518 31.523 34 34 34c.93 0 2.47-.863 3.425-1.918zM43 14.582C43 9.282 42.462 9 32.372 9c-9.954 0-12.855 1.693-11.035 6.436C22.503 18.474 43 17.666 43 14.582zM34.5 5c-.8-1.294-4.2-1.294-5 0-.362.585.676 1 2.5 1 1.824 0 2.862-.415 2.5-1z" transform="translate(.547 -.365)"/><path style="fill:#01c0b5" d="M9.685 61.352c-1.284-1.284-.797-47.84.515-49.152.66-.66 3.027-1.2 5.26-1.2 2.976 0 4.392-.534 5.308-2 .687-1.1 2.145-2 3.24-2C25.104 7 26 6.582 26 6.071 26 1.741 35.328.43 37.182 4.5c.626 1.375 1.963 2.5 2.97 2.5 1.007 0 2.393.9 3.08 2 .922 1.476 2.332 2 5.386 2 6.447 0 6.45.01 6.15 26.625C54.5 61.5 54.5 61.5 32.435 61.769c-12.135.147-22.373-.04-22.75-.417zM52.5 36.5c0-23 0-23-4-23.17-3.51-.148-3.633-.086-1 .51 3 .68 3 .68 3 22.17 0 21.49 0 21.49-18.5 21.49s-18.5 0-18.5-21.49 0-21.49 3-22.17c2.633-.596 2.51-.658-1-.51-3.655.155-7 37.715-4.044 45.417.39 1.013 4.906 1.236 20.77 1.024C52.5 59.5 52.5 59.5 52.5 36.5zM48 36c0-16.222-.22-19-1.5-19-.825 0-1.5.45-1.5 1 0 .613-4.814 1-12.441 1-7.215 0-12.7-.42-13.059-1-2.77-4.483-3.5-.73-3.5 18 0 19 0 19 16 19s16 0 16-19zM18.407 46.43c-3.842-7.194 10.07-12.507 19.483-7.442.764.412 2.508.168 3.874-.54 6.895-3.578 6.676 1.227-.273 6.014-5.32 3.664-5.716 3.77-11.512 3.115-4.926-.557-6.11-.4-6.598.872-.984 2.564-2.952 1.764-4.974-2.02zm7.448-2.011c4.814 1.423 7.39 1.736 9.645 1.17C39.207 44.66 38.529 43 34.441 43c-3.817 0-3.936-1.91-.132-2.122 1.205-.067-.452-.508-3.683-.98-7.187-1.049-12.517 1.568-10.577 5.193.948 1.771 1.194 1.809 2.604.399.857-.857 2.298-1.339 3.202-1.071zm3.068-10.342C23.085 28.239 25.486 23 34 23c8.6 0 10.985 5.41 4.894 11.099-3.923 3.665-6.29 3.66-9.97-.022zm8.502-1.995c3.265-3.607 1.726-6.55-3.425-6.55-3.943 0-4.54.286-4.83 2.316C28.789 30.518 31.523 34 34 34c.93 0 2.47-.863 3.425-1.918zM43 14.582C43 9.282 42.462 9 32.372 9c-9.954 0-12.855 1.693-11.035 6.436C22.503 18.474 43 17.666 43 14.582zM34.5 5c-.8-1.294-4.2-1.294-5 0-.362.585.676 1 2.5 1 1.824 0 2.862-.415 2.5-1z" transform="translate(.547 -.365)"/><path style="fill:#02909a" d="M9.685 61.352c-1.284-1.284-.797-47.84.515-49.152.66-.66 3.027-1.2 5.26-1.2 2.976 0 4.392-.534 5.308-2 .687-1.1 2.145-2 3.24-2C25.104 7 26 6.582 26 6.071 26 1.741 35.328.43 37.182 4.5c.626 1.375 1.963 2.5 2.97 2.5 1.007 0 2.393.9 3.08 2 .922 1.476 2.332 2 5.386 2 6.447 0 6.45.01 6.15 26.625C54.5 61.5 54.5 61.5 32.435 61.769c-12.135.147-22.373-.04-22.75-.417zM52.768 36.75C52.5 13.5 52.5 13.5 48.5 13.311c-3.118-.147-3.449-.027-1.5.545 2.5.733 2.5.733 2.77 22.438C50.039 58 50.039 58 32 58c-18.039 0-18.039 0-17.77-21.706.27-21.705.27-21.705 2.77-22.438 1.949-.572 1.618-.692-1.5-.545-4 .189-4 .189-4.268 23.439C10.963 60 10.963 60 32 60s21.037 0 20.768-23.25zM48 36c0-16.222-.22-19-1.5-19-.825 0-1.5.45-1.5 1 0 .613-4.814 1-12.441 1-7.215 0-12.7-.42-13.059-1-2.77-4.483-3.5-.73-3.5 18 0 19 0 19 16 19s16 0 16-19zM18.407 46.43c-3.842-7.194 10.07-12.507 19.483-7.442.764.412 2.508.168 3.874-.54 6.895-3.578 6.676 1.227-.273 6.014-5.32 3.664-5.716 3.77-11.512 3.115-4.926-.557-6.11-.4-6.598.872-.984 2.564-2.952 1.764-4.974-2.02zm7.448-2.011c4.814 1.423 7.39 1.736 9.645 1.17C39.207 44.66 38.529 43 34.441 43c-3.817 0-3.936-1.91-.132-2.122 1.205-.067-.452-.508-3.683-.98-7.187-1.049-12.517 1.568-10.577 5.193.948 1.771 1.194 1.809 2.604.399.857-.857 2.298-1.339 3.202-1.071zm3.068-10.342C23.085 28.239 25.486 23 34 23c8.6 0 10.985 5.41 4.894 11.099-3.923 3.665-6.29 3.66-9.97-.022zm7.164-.359c2.672-2.051 4.194-5.675 2.992-7.123-1.537-1.851-9.788-1.797-10.504.069-.874 2.278 3.057 8.272 5.425 8.272.275 0 1.214-.548 2.087-1.218zM43 14.582C43 9.282 42.462 9 32.372 9c-9.954 0-12.855 1.693-11.035 6.436C22.503 18.474 43 17.666 43 14.582zM35 5c0-.55-1.35-1-3-1s-3 .45-3 1 1.35 1 3 1 3-.45 3-1z" transform="translate(.547 -.365)"/><path style="fill:#046393" d="M10.2 60.8c-1.703-1.703-1.703-46.897 0-48.6.66-.66 3.027-1.2 5.26-1.2 2.976 0 4.392-.534 5.308-2 .687-1.1 2.093-2 3.125-2 1.033 0 2.614-1.125 3.515-2.5 2.217-3.384 6.752-3.384 9.413 0C37.903 5.875 39.507 7 40.385 7c.88 0 2.16.9 2.847 2 .916 1.466 2.332 2 5.309 2 2.232 0 4.599.54 5.259 1.2 1.703 1.703 1.703 46.897 0 48.6-1.697 1.697-41.903 1.697-43.6 0zm41.218-.407C56.145 58.579 53.282 13 48.441 13c-2.785 0-4.319.39-3.941 1 .34.55 1.716 1 3.059 1C50 15 50 15 50 36s0 21-18 21-18 0-18-21 0-21 2.441-21c1.343 0 2.72-.45 3.059-1 .378-.61-1.156-1-3.941-1-4.55 0-7.734 45.552-3.309 47.338 1.804.727 37.285.778 39.168.055zM48 36c0-18.73-.73-22.483-3.5-18-.818 1.324-24.182 1.324-25 0-2.77-4.483-3.5-.73-3.5 18 0 19 0 19 16 19s16 0 16-19zM19.172 47.242c-2.932-4.118-2.784-4.809 1.669-7.755 3.935-2.604 13.652-2.79 16.797-.321.684.536 2.156.43 3.686-.268 2.597-1.183 5.676-.679 5.676.929C47 41.322 36.18 48 33.759 48c-1.25 0-3.785-.434-5.634-.964-2.89-.829-3.603-.667-5.071 1.146-1.71 2.11-1.71 2.11-3.882-.94zm6.683-2.823c4.814 1.423 7.39 1.736 9.645 1.17C39.207 44.66 38.529 43 34.441 43c-3.817 0-3.936-1.91-.132-2.122 1.205-.067-.452-.508-3.683-.98-7.187-1.049-12.517 1.568-10.577 5.193.948 1.771 1.194 1.809 2.604.399.857-.857 2.298-1.339 3.202-1.071zm5.255-8.815c-7.94-4.4-6.235-12.458 2.621-12.384 9.223.077 11.213 7.428 3.28 12.115-3.314 1.957-2.891 1.938-5.9.27zm6.435-3.059c4.513-4.512 2.89-7.398-4.045-7.193-6.093.18-7.298 2.94-3.112 7.127 3.136 3.136 4.079 3.145 7.157.066zM43 14.582C43 9.282 42.462 9 32.372 9c-9.954 0-12.855 1.693-11.035 6.436C22.503 18.474 43 17.666 43 14.582zm-7-8.547C36 4.17 32.134 2.858 30 4c-3.19 1.707-2.329 3 2 3 2.2 0 4-.434 4-.965z" transform="translate(.547 -.365)"/><path style="fill:#0e4971" d="M10.2 60.8C9.337 59.937 9 53.216 9 36.871 9 11.416 9.11 11 15.83 11c2.606 0 4.056-.587 4.938-2 .687-1.1 2.093-2 3.125-2 1.033 0 2.614-1.125 3.515-2.5 2.243-3.423 6.941-3.423 9.184 0 .9 1.375 2.482 2.5 3.515 2.5 1.032 0 2.438.9 3.125 2 .882 1.413 2.332 2 4.937 2C54.89 11 55 11.416 55 36.871c0 16.345-.337 23.066-1.2 23.929-1.697 1.697-41.903 1.697-43.6 0zm42.568-24.05C53.036 13 53.036 13 48.518 13 46.033 13 44 13.45 44 14s1.35 1 3 1c3 0 3 0 3 21s0 21-18 21-18 0-18-21 0-21 3-21c1.65 0 3-.45 3-1s-2.025-1-4.5-1C11 13 11 13 11 36.333 11 64.23 8.25 61.096 32.437 60.77 52.5 60.5 52.5 60.5 52.768 36.75zm-3.996-.523c.284-20.137-.579-23.947-4.277-18.89-1.8 2.462-23.19 2.462-24.99 0-3.6-4.922-4.505-1.21-4.505 18.465 0 22.595-2.001 20.303 17.44 19.972C48.5 55.5 48.5 55.5 48.773 36.227zm-29.575 10.63c-4.275-6.726 2.624-10.39 15.13-8.034 4.27.804 6.306.799 7.618-.02 2.515-1.571 5.699-.284 4.09 1.654-4.214 5.079-11.074 7.877-16.333 6.664-4.812-1.111-5.247-1.05-6.757.952-1.614 2.14-1.614 2.14-3.748-1.217zm6.658-2.438c4.814 1.423 7.39 1.736 9.645 1.17C39.207 44.66 38.529 43 34.441 43c-3.817 0-3.936-1.91-.132-2.122 1.205-.067-.452-.508-3.683-.98-7.187-1.049-12.517 1.568-10.577 5.193.948 1.771 1.194 1.809 2.604.399.857-.857 2.298-1.339 3.202-1.071zm4.222-10.008c-6.05-5.09-3.914-11.176 3.923-11.176 5.564 0 7 1.087 7 5.299C41 31.638 36.567 37 34 37c-.466 0-2.231-1.165-3.923-2.589zm7.535-1.932c4.36-4.36 3.004-6.979-3.612-6.979s-7.972 2.619-3.612 6.979c3.148 3.148 4.076 3.148 7.224 0zM43 14.582C43 9.282 42.462 9 32.372 9c-9.954 0-12.855 1.693-11.035 6.436C22.503 18.474 43 17.666 43 14.582zm-7-8.547C36 4.17 32.134 2.858 30 4c-3.19 1.707-2.329 3 2 3 2.2 0 4-.434 4-.965z" transform="translate(.547 -.365)"/><path style="fill:#073762" d="M9.982 59.967c-1.184-2.212-1.012-46.276.185-47.47.367-.366 2.617-.914 5-1.219 2.383-.304 5.138-1.392 6.122-2.416S23.96 7 25.039 7C26.128 7 27 6.323 27 5.479c0-2.422 4.512-4.023 7.5-2.661 1.375.627 2.5 1.824 2.5 2.66C37 6.324 37.872 7 38.961 7c1.079 0 2.766.838 3.75 1.862s3.739 2.112 6.122 2.416c2.383.305 4.633.853 5 1.22 1.197 1.193 1.369 45.257.185 47.469-1.692 3.161-42.344 3.161-44.036 0zM52.768 36.75C53.036 13 53.036 13 48.518 13 46.033 13 44 13.45 44 14s1.35 1 3 1c3 0 3 0 3 21s0 21-18 21-18 0-18-21 0-21 3-21c1.65 0 3-.45 3-1s-2.025-1-4.5-1C11 13 11 13 11 36.333 11 64.23 8.25 61.096 32.437 60.77 52.5 60.5 52.5 60.5 52.768 36.75zM49 36c0-20 0-20-2.5-20-1.375 0-2.5.45-2.5 1 0 .611-4.667 1-12 1s-12-.389-12-1c0-.55-1.125-1-2.5-1C15 16 15 16 15 36s0 20 17 20 17 0 17-20zM19.167 46.856c-2.165-3.356-2.165-3.356.85-6.106 3.295-3.006 4.423-3.152 13.824-1.793 4.365.631 7.1.571 8.777-.193 4.807-2.19 4.97.738.222 3.978-7.637 5.212-8.313 5.42-13.445 4.127-4.363-1.098-4.765-1.03-6.36 1.086-1.704 2.258-1.704 2.258-3.868-1.099zm3.375-.925c.43-.695 2.866-.832 6.973-.392 5.978.64 17.314-4.044 15.113-6.244-.282-.282-1.846.436-3.475 1.596-1.773 1.262-4.305 2.049-6.307 1.96-3.026-.136-3.083-.19-.596-.567 4.803-.728 2.976-2.027-3.883-2.761-7.315-.784-12.298 1.888-10.8 5.79.737 1.923 2.006 2.186 2.975.618zm6.913-12.386c-2.623-2.622-3.35-7.874-1.267-9.161 1.712-1.058 9.005-1.167 11.062-.166C43.544 26.308 39.225 36 34 36c-1.15 0-3.195-1.105-4.545-2.455zm8.453-.947c4.1-4.364 2.595-7.098-3.908-7.098-5.01 0-5.53.209-5.832 2.348C27.788 30.528 31.436 35 34 35c.908 0 2.667-1.081 3.908-2.402zM43 13.7c0-5.373-16.382-8.918-20.8-4.5-4.98 4.98-1.436 7.8 9.8 7.8 11 0 11 0 11-3.3zm-7.226-7.879c-.734-2.202-3.64-3.396-5.464-2.244C27.01 5.657 27.673 7 32 7c2.754 0 4.033-.4 3.774-1.179z" transform="translate(.547 -.365)"/></svg>