<svg height="480pt" viewBox="0 0 480.112 480" width="480pt" xmlns="http://www.w3.org/2000/svg"><path d="m309.113281 464.054688-29.074219-80h-80l-29.109374 80h-34.914063v16h208v-16zm0 0" fill="#e0e0de"/><path d="m288.761719 408.054688-8.722657-24h-80l-8.734374 24zm0 0" fill="#d6d6d4"/><path d="m440.054688 72.054688h-400c-17.671876 0-32 14.328124-32 32v224h464v-224c0-17.671876-14.324219-32-32-32zm0 0" fill="#348fd9"/><path d="m8 328.054688v24c0 17.675781 14.328125 32 32 32h400.054688c17.675781 0 32-14.324219 32-32v-24zm0 0" fill="#e0e0de"/><path d="m48.054688 72.054688h24v256h-24zm0 0" fill="#3086cd"/><path d="m408.054688 72.054688h24v256h-24zm0 0" fill="#3086cd"/><path d="m376.054688 8.054688h-272c-17.671876 0-32 14.328124-32 32v288h336v-288c0-17.671876-14.324219-32-32-32zm0 0" fill="#5ac6d4"/><path d="m376.054688 8.054688-304 304v16h336v-288c0-17.671876-14.324219-32-32-32zm0 0" fill="#3fb7c7"/><g fill="#2a8ebd"><path d="m104.054688 32.054688h16v16h-16zm0 0"/><path d="m136.054688 32.054688h16v16h-16zm0 0"/><path d="m168.054688 32.054688h16v16h-16zm0 0"/><path d="m104.054688 64.054688h272v16h-272zm0 0"/><path d="m376.054688 192.054688h-168c-4.417969 0-8-3.582032-8-8v-72h16v64h160zm0 0"/><path d="m212.855469 166.457031-9.597657-12.800781 32-24c2.425782-1.808594 5.660157-2.101562 8.375-.761719l26.824219 13.425781 27.917969-27.921874c2.882812-2.882813 7.472656-3.136719 10.65625-.589844l34.402344 27.527344 26.933594-26.9375 11.3125 11.3125-32 32c-2.882813 2.886718-7.472657 3.140624-10.65625.59375l-34.398438-27.527344-26.9375 26.933594c-2.433594 2.4375-6.152344 3.042968-9.230469 1.503906l-27.601562-13.789063zm0 0"/><path d="m376.054688 288.054688h-168c-4.417969 0-8-3.582032-8-8v-72h16v64h160zm0 0"/><path d="m214.304688 261.054688-12.496094-10 32-40c1.421875-1.773438 3.53125-2.863282 5.804687-2.988282 2.273438-.125 4.488281.722656 6.097657 2.332032l27.921874 27.921874 26.847657-13.425781c2.25-1.125 4.898437-1.125 7.152343 0l26.824219 13.425781 27.917969-27.921874 11.3125 11.3125-32 32c-2.433594 2.4375-6.152344 3.042968-9.230469 1.503906l-28.402343-14.214844-28.421876 14.257812c-3.082031 1.535157-6.800781.929688-9.234374-1.503906l-25.679688-25.683594zm0 0"/></g><path d="m175.007812 144.320312c-3.523437-14.234374-16.289062-24.238281-30.953124-24.265624v32zm0 0" fill="#ffb531"/><path d="m144.054688 152.054688v-32c-17.671876 0-32 14.328124-32 32 0 17.675781 14.328124 32 32 32 17.675781 0 32-14.324219 32-32-.027344-2.609376-.378907-5.210938-1.046876-7.734376zm0 0" fill="#2a8ebd"/><path d="m151.792969 279.007812c14.234375-3.523437 24.238281-16.289062 24.261719-30.953124h-32zm0 0" fill="#ffb531"/><path d="m144.054688 216.054688c-17.671876 0-32 14.328124-32 32 0 17.675781 14.328124 32 32 32 2.613281-.027344 5.210937-.378907 7.738281-1.046876l-7.738281-30.953124h32c0-17.671876-14.324219-32-32-32zm0 0" fill="#2a8ebd"/><path d="m440.054688 64.054688h-8v16h8c13.257812 0 24 10.746093 24 24v216h-448v-216c0-13.253907 10.746093-24 24-24h8v-16h-8c-22.078126.027343-39.9726568 17.921874-40.0000005 40l-.0546875 224v24c.0273438 22.082031 17.917969 39.976562 40 40h148.617188l-26.160157 72h-26.402343v16h208v-16h-26.398438l-26.160156-72h148.558594c22.082031-.023438 39.976562-17.917969 40-40v-24l.058593-224c-.027343-22.101563-17.953125-40.003907-40.058593-40zm-139.460938 400h-121.152344l26.214844-72h68.800781zm139.460938-88h-400c-13.253907 0-24-10.742188-24-24v-16h448v16c0 13.257812-10.742188 24-24 24zm0 0"/><path d="m416.054688 304.054688v-264c-.023438-22.078126-17.917969-39.9726568-40-40.0000005h-272c-22.078126.0273437-39.972657 17.9218745-40 40.0000005v264h16v-264c0-13.253907 10.746093-24 24-24h272c13.257812 0 24 10.746093 24 24v264zm0 0"/><path d="m104.054688 32.054688h16v16h-16zm0 0"/><path d="m136.054688 32.054688h16v16h-16zm0 0"/><path d="m168.054688 32.054688h16v16h-16zm0 0"/><path d="m104 64.054688h272v16h-272zm0 0"/><path d="m240.855469 145.425781 27.625 13.832031c3.078125 1.535157 6.796875.929688 9.230469-1.503906l26.9375-26.9375 34.398437 27.527344c3.183594 2.546875 7.773437 2.292969 10.65625-.589844l32-32-11.3125-11.3125-26.925781 26.894532-34.402344-27.527344c-3.183594-2.546875-7.773438-2.292969-10.65625.589844l-27.917969 27.921874-26.847656-13.425781c-2.714844-1.34375-5.957031-1.050781-8.382813.761719l-19.203124 14.398438v-32h-16v72c0 4.417968 3.582031 8 8 8h168v-16h-160v-12zm0 0"/><path d="m208.054688 288.054688h168v-16h-160v-13.183594l24.664062-30.816406 25.679688 25.679687c2.433593 2.4375 6.152343 3.042969 9.234374 1.503906l28.421876-14.238281 28.425781 14.257812c3.078125 1.535157 6.796875.929688 9.230469-1.503906l32-32-11.3125-11.3125-27.917969 27.917969-26.847657-13.421875c-2.253906-1.125-4.902343-1.125-7.152343 0l-26.824219 13.382812-27.921875-27.921874c-1.605469-1.609376-3.824219-2.457032-6.097656-2.332032-2.269531.125-4.382813 1.214844-5.804688 2.988282l-17.777343 22.183593v-25.183593h-16v72c0 4.417968 3.582031 8 8 8zm0 0"/><path d="m144.054688 112.054688c-22.089844 0-40 17.910156-40 40 0 22.09375 17.910156 40 40 40 22.09375 0 40-17.90625 40-40-.023438-22.078126-17.917969-39.972657-40-40zm8 17.472656c4.902343 1.71875 9.109374 4.976562 12 9.289062l-12 2.992188zm-8 46.527344c-11.675782.023437-21.664063-8.378907-23.640626-19.886719-1.980468-11.503907 4.628907-22.761719 15.640626-26.640625v22.527344c.003906 2.464843 1.136718 4.789062 3.078124 6.304687 1.941407 1.515625 4.46875 2.050781 6.859376 1.457031l21.832031-5.457031c-1.160157 12.269531-11.445313 21.65625-23.769531 21.695313zm0 0"/><path d="m144.054688 208.054688c-22.089844 0-40 17.910156-40 40 0 22.09375 17.910156 40 40 40 22.09375 0 40-17.90625 40-40-.023438-22.078126-17.917969-39.972657-40-40zm13.242187 60-2.992187-12h12.28125c-1.71875 4.902343-4.976563 9.109374-9.289063 12zm-13.242187-28c-2.460938.003906-4.785157 1.136718-6.300782 3.078124-1.515625 1.941407-2.054687 4.46875-1.457031 6.859376l5.457031 21.832031c-11.839844-1.117188-21.0625-10.757813-21.65625-22.636719-.59375-11.875 7.621094-22.386719 19.292969-24.679688 11.667969-2.292968 23.25 4.328126 27.195313 15.546876zm0 0"/></svg>