<?xml version="1.0" encoding="iso-8859-1"?>
<!-- Generator: Adobe Illustrator 19.0.0, SVG Export Plug-In . SVG Version: 6.00 Build 0)  -->
<svg version="1.1" id="Capa_1" xmlns="http://www.w3.org/2000/svg" xmlns:xlink="http://www.w3.org/1999/xlink" x="0px" y="0px"
	 viewBox="0 0 512 512" style="enable-background:new 0 0 512 512;" xml:space="preserve">
<path style="fill:#E6E6E6;" d="M434.289,42.667L434.289,42.667c-14.14,0-25.6,11.46-25.6,25.6v401.067H84.423V68.267
	c0-14.14,11.46-25.6,25.6-25.6H434.289z"/>
<polygon style="fill:#0071BC;" points="203.889,110.933 229.489,110.933 229.489,85.333 263.622,85.333 263.622,110.933 
	289.223,110.933 289.223,145.067 263.622,145.067 263.622,170.667 229.489,170.667 229.489,145.067 203.889,145.067 "/>
<rect x="58.758" y="370.977" transform="matrix(-0.9975 0.07 -0.07 -0.9975 579.7799 772.8334)" style="fill:#B2DECF;" width="435.18" height="51.198"/>
<g>
	<polygon style="fill:#0071BC;" points="61.101,437.359 16.745,414.805 57.508,386.278 	"/>
	
		<rect x="416.75" y="359.939" transform="matrix(-0.9975 0.07 -0.07 -0.9975 893.5557 739.7608)" style="fill:#0071BC;" width="34.132" height="51.198"/>
</g>
<g>
	
		<rect x="450.752" y="357.23" transform="matrix(-0.9975 0.07 -0.07 -0.9975 969.8092 731.6709)" style="fill:#29ABE2;" width="42.665" height="51.198"/>
	<path style="fill:#29ABE2;" d="M434.289,42.667L434.289,42.667c14.14,0,25.6,11.46,25.6,25.6V102.4l0,0h-51.2l0,0V68.267
		C408.689,54.127,420.149,42.667,434.289,42.667z"/>
</g>
<path d="M203.889,153.6h17.067v17.067c0,4.71,3.823,8.533,8.533,8.533h34.133c4.71,0,8.533-3.823,8.533-8.533V153.6h17.067
	c4.71,0,8.533-3.823,8.533-8.533v-34.133c0-4.71-3.823-8.533-8.533-8.533h-17.067V85.333c0-4.71-3.823-8.533-8.533-8.533h-34.133
	c-4.71,0-8.533,3.823-8.533,8.533V102.4h-17.067c-4.71,0-8.533,3.823-8.533,8.533v34.133
	C195.356,149.777,199.179,153.6,203.889,153.6z M212.422,119.467h17.067c4.71,0,8.533-3.823,8.533-8.533V93.867h17.067v17.067
	c0,4.71,3.823,8.533,8.533,8.533h17.067v17.067h-17.067c-4.71,0-8.533,3.823-8.533,8.533v17.067h-17.067v-17.067
	c0-4.71-3.823-8.533-8.533-8.533h-17.067L212.422,119.467L212.422,119.467z"/>
<path d="M500.149,355.209c-0.29-4.659-4.292-8.201-8.951-7.91c-0.051,0-0.111,0.009-0.162,0.009l-42.53,2.987l0,0l-31.283,2.185
	V110.933h42.667c4.71,0,8.533-3.823,8.533-8.533V68.267c0-18.85-15.283-34.133-34.133-34.133H110.022
	c-18.85,0-34.133,15.283-34.133,34.133v308.173l-18.978,1.34c-1.527,0.145-2.987,0.708-4.207,1.63l-0.085-0.119l-40.73,28.527
	c-3.866,2.697-4.804,8.021-2.099,11.887c0.802,1.152,1.877,2.082,3.123,2.714l44.373,22.554l0.06-0.111
	c1.169,0.64,2.483,0.998,3.814,1.033h0.597l14.131-1.024v24.465c0,4.71,3.823,8.533,8.533,8.533h324.267
	c4.71,0,8.533-3.823,8.533-8.533v-48.427l1.869-0.137h0.119l34.057-2.398l0,0l42.556-2.987c4.702-0.333,8.243-4.412,7.91-9.114
	L500.149,355.209z M426.532,403.14l-2.389-34.039h0.597l16.427-1.152l2.389,34.039L426.532,403.14z M451.356,68.267v25.6h-34.133
	v-25.6c0-9.429,7.637-17.067,17.067-17.067S451.356,58.837,451.356,68.267z M92.956,68.267c0-9.429,7.637-17.067,17.067-17.067
	H404.9c-3.072,5.163-4.71,11.059-4.745,17.067v285.414l-307.2,21.564L92.956,68.267L92.956,68.267z M50.059,401.92l1.476,21.009
	l-18.244-9.276L50.059,401.92z M66.622,394.24l340.48-23.893l2.389,34.039l-340.48,23.893L66.622,394.24z M400.156,460.8h-307.2
	v-17.126l307.2-21.572V460.8z M460.572,400.751l-2.389-34.039l25.54-1.792l2.398,34.039L460.572,400.751z"/>
<rect x="135.622" y="196.267" width="17.067" height="17.067"/>
<rect x="169.756" y="196.267" width="204.8" height="17.067"/>
<rect x="118.556" y="230.4" width="256" height="17.067"/>
<rect x="118.556" y="264.533" width="221.867" height="17.067"/>
<rect x="118.556" y="315.733" width="59.733" height="17.067"/>
<rect x="280.689" y="315.733" width="59.733" height="17.067"/>
<rect x="195.356" y="315.733" width="17.067" height="17.067"/>
<rect x="357.489" y="315.733" width="17.067" height="17.067"/>
<path d="M434.289,477.867c0,9.429-7.637,17.067-17.067,17.067h-93.867V512h93.867c18.85,0,34.133-15.283,34.133-34.133v-25.6
	h-17.067V477.867z"/>
<rect x="289.223" y="494.933" width="17.067" height="17.067"/>
<path d="M58.822,59.733c0.026-23.552,19.115-42.641,42.667-42.667h119.467V0H101.489C68.516,0.043,41.798,26.761,41.756,59.733
	v34.133h17.067C58.822,93.867,58.822,59.733,58.822,59.733z"/>
<rect x="238.022" width="17.067" height="17.067"/>
<g>
</g>
<g>
</g>
<g>
</g>
<g>
</g>
<g>
</g>
<g>
</g>
<g>
</g>
<g>
</g>
<g>
</g>
<g>
</g>
<g>
</g>
<g>
</g>
<g>
</g>
<g>
</g>
<g>
</g>
</svg>
