<?xml version="1.0" encoding="UTF-8" standalone="no"?>
<!-- Created with Inkscape (http://www.inkscape.org/) -->

<svg
   version="1.1"
   id="svg311"
   width="356"
   height="337"
   viewBox="0 0 356 337"
   sodipodi:docname="dashboard2.svg"
   inkscape:version="1.1.1 (3bf5ae0d25, 2021-09-20)"
   xmlns:inkscape="http://www.inkscape.org/namespaces/inkscape"
   xmlns:sodipodi="http://sodipodi.sourceforge.net/DTD/sodipodi-0.dtd"
   xmlns="http://www.w3.org/2000/svg"
   xmlns:svg="http://www.w3.org/2000/svg">
  <defs
     id="defs315" />
  <sodipodi:namedview
     id="namedview313"
     pagecolor="#ffffff"
     bordercolor="#666666"
     borderopacity="1.0"
     inkscape:pageshadow="2"
     inkscape:pageopacity="0.0"
     inkscape:pagecheckerboard="0"
     showgrid="false"
     inkscape:zoom="0.77151335"
     inkscape:cx="316.90962"
     inkscape:cy="182.10962"
     inkscape:window-width="1366"
     inkscape:window-height="705"
     inkscape:window-x="-8"
     inkscape:window-y="-8"
     inkscape:window-maximized="1"
     inkscape:current-layer="g317" />
  <g
     inkscape:groupmode="layer"
     inkscape:label="Image"
     id="g317">
    <g
       id="g339">
      <path
         style="fill:#d0d0d1"
         d="m 149.25,320.25054 c 16.9125,-0.15369 44.5875,-0.15369 61.5,0 16.9125,0.1537 3.075,0.27945 -30.75,0.27945 -33.825,0 -47.6625,-0.12575 -30.75,-0.27945 z M 115.29966,312 c 0,-3.025 0.18747,-4.2625 0.41659,-2.75 0.22913,1.5125 0.22913,3.9875 0,5.5 -0.22912,1.5125 -0.41659,0.275 -0.41659,-2.75 z m 129,0 c 0,-3.025 0.18747,-4.2625 0.41659,-2.75 0.22913,1.5125 0.22913,3.9875 0,5.5 -0.22912,1.5125 -0.41659,0.275 -0.41659,-2.75 z M 29.479841,164.5 c 5.6e-5,-51.7 0.121543,-72.703416 0.26997,-46.67426 0.148427,26.02916 0.148382,68.32916 -1.02e-4,94 C 29.601226,237.49658 29.479785,216.2 29.479841,164.5 Z m 300.999999,0 c 6e-5,-51.7 0.12154,-72.703416 0.26997,-46.67426 0.14843,26.02916 0.14838,68.32916 -1e-4,94 -0.14848,25.67084 -0.26992,4.37426 -0.26987,-47.32574 z m -33.18825,80.7575 c 3.73537,-0.19293 9.58537,-0.19149 13,0.003 3.41462,0.19468 0.35841,0.35253 -6.79159,0.35078 -7.15,-0.002 -9.94379,-0.16103 -6.20841,-0.35396 z M 61.914746,140.75 C 61.867856,103.7625 61.899826,71.151607 61.985796,68.281349 62.142098,63.062698 62.142098,63.062698 49.82105,62.747571 37.5,62.432444 37.5,62.432444 49.671105,62.216222 61.842209,62 61.842209,62 61.57035,43.25 61.420827,32.9375 61.468685,30.6875 61.676702,38.25 62.054913,52 62.054913,52 94.027457,52 126,52 126,52 126,129.49432 c 0,77.49432 0,77.49432 84.25,77.75576 76.51313,0.23742 73.5745,0.28386 -32,0.50568 C 62,208 62,208 61.914746,140.75 Z M 114.4433,183.77749 C 119.3924,176.71166 115.40585,175 94,175 75.166788,175 72,175.75967 72,180.27749 72,185.49334 73.947832,186 94,186 c 18.38325,0 18.92808,-0.0592 20.4433,-2.22251 z M 114,163 c 2.40692,-2.40692 2.50067,-3.84018 0.4433,-6.77749 C 112.92808,154.05923 112.38325,154 94,154 73.947832,154 72,154.50666 72,159.72251 72,164.24033 75.166788,165 94,165 c 16.66667,0 18.14815,-0.14815 20,-2 z m 0.4433,-22.22251 C 119.3924,133.71166 115.40585,132 94,132 75.166788,132 72,132.75967 72,137.27749 72,142.49334 73.947832,143 94,143 c 18.38325,0 18.92808,-0.0592 20.4433,-2.22251 z M 114,120 c 2.40692,-2.40692 2.50067,-3.84018 0.4433,-6.77749 -2.42859,-3.46729 -38.458012,-3.46729 -40.886596,0 C 68.607599,120.28834 72.594149,122 94,122 c 16.66667,0 18.14815,-0.14815 20,-2 z m 0.4433,-22.222506 C 119.3924,90.711657 115.40585,89 94,89 c -21.405851,0 -25.392401,1.711657 -20.443296,8.777494 2.428584,3.467286 38.458006,3.467286 40.886596,0 z M 114,77 c 2.40692,-2.406924 2.50067,-3.840182 0.4433,-6.777494 -2.42859,-3.467289 -38.458012,-3.467289 -40.886596,0 C 68.607599,77.288343 72.594149,79 94,79 c 16.66667,0 18.14815,-0.148148 20,-2 z m 29.77643,114.2665 c 2.35204,-0.21124 5.95204,-0.20827 8,0.007 2.04796,0.21487 0.12357,0.38771 -4.27643,0.38408 -4.4,-0.004 -6.07561,-0.17944 -3.72357,-0.39069 z m 32.47357,0.005 c 2.0625,-0.21574 5.4375,-0.21574 7.5,0 2.0625,0.21575 0.375,0.39226 -3.75,0.39226 -4.125,0 -5.8125,-0.17651 -3.75,-0.39226 z m 32.52643,-0.005 c 2.35204,-0.21124 5.95204,-0.20827 8,0.007 2.04796,0.21487 0.12357,0.38771 -4.27643,0.38408 -4.4,-0.004 -6.07561,-0.17944 -3.72357,-0.39069 z m 64,0 c 2.35204,-0.21124 5.95204,-0.20827 8,0.007 2.04796,0.21487 0.12357,0.38771 -4.27643,0.38408 -4.4,-0.004 -6.07561,-0.17944 -3.72357,-0.39069 z M 158.34281,180.5 c 0.004,-4.4 0.17944,-6.07561 0.39069,-3.72357 0.21124,2.35204 0.20827,5.95204 -0.007,8 -0.21487,2.04796 -0.38771,0.12357 -0.38408,-4.27643 z m 43,0 c 0.004,-4.4 0.17944,-6.07561 0.39069,-3.72357 0.21124,2.35204 0.20827,5.95204 -0.007,8 -0.21487,2.04796 -0.38771,0.12357 -0.38408,-4.27643 z m 31.9934,0.5 c 0,-4.125 0.17651,-5.8125 0.39226,-3.75 0.21574,2.0625 0.21574,5.4375 0,7.5 -0.21575,2.0625 -0.39226,0.375 -0.39226,-3.75 z m 22,0 c 0,-4.125 0.17651,-5.8125 0.39226,-3.75 0.21574,2.0625 0.21574,5.4375 0,7.5 -0.21575,2.0625 -0.39226,0.375 -0.39226,-3.75 z m 32.0066,-0.5 c 0.004,-4.4 0.17944,-6.07561 0.39069,-3.72357 0.21124,2.35204 0.20827,5.95204 -0.007,8 -0.21487,2.04796 -0.38771,0.12357 -0.38408,-4.27643 z M 176.75,148.2766 c 1.7875,-0.22182 4.7125,-0.22182 6.5,0 1.7875,0.22183 0.325,0.40333 -3.25,0.40333 -3.575,0 -5.0375,-0.1815 -3.25,-0.40333 z M 233.45571,105.5 c 2.7e-4,-22 0.13226,-30.857529 0.29331,-19.683398 0.16105,11.174131 0.16083,29.174128 -4.9e-4,39.999998 -0.16132,10.82587 -0.29309,1.6834 -0.29282,-20.3166 z m 11.4344,38.20514 c 0.43978,-0.43717 4.35692,-0.65839 8.70475,-0.49159 7.90514,0.30326 7.90514,0.30326 -0.79961,0.79485 -4.7876,0.27038 -8.34492,0.13391 -7.90514,-0.30326 z M 251.25,110.25845 c 3.7125,-0.19241 9.7875,-0.19241 13.5,0 3.7125,0.19241 0.675,0.34983 -6.75,0.34983 -7.425,0 -10.4625,-0.15742 -6.75,-0.34983 z m -2.5,-9.99066 c 2.3375,-0.21053 6.1625,-0.21053 8.5,0 2.3375,0.21054 0.425,0.3828 -4.25,0.3828 -4.675,0 -6.5875,-0.17226 -4.25,-0.3828 z M 244.65134,67.25 c -0.25669,-0.4125 3.87926,-0.630756 9.19098,-0.485013 17.11325,0.469551 18.999,0.870023 4.9667,1.054765 -7.53004,0.09914 -13.901,-0.157252 -14.15768,-0.569752 z M 176.75,62.276604 c 1.7875,-0.221826 4.7125,-0.221826 6.5,0 1.7875,0.221827 0.325,0.403322 -3.25,0.403322 -3.575,0 -5.0375,-0.181495 -3.25,-0.403322 z m 127,-0.017 c 3.4375,-0.195271 9.0625,-0.195271 12.5,0 3.4375,0.195271 0.625,0.355038 -6.25,0.355038 -6.875,0 -9.6875,-0.159767 -6.25,-0.355038 z M 298.39739,38 c 0,-7.975 0.1553,-11.2375 0.34512,-7.25 0.18981,3.9875 0.18981,10.5125 0,14.5 -0.18982,3.9875 -0.34512,0.725 -0.34512,-7.25 z M 97.817316,30.250894 C 109.54184,30.09081 128.44184,30.091013 139.81732,30.251345 151.19279,30.411676 141.6,30.542654 118.5,30.542406 95.4,30.542158 86.092792,30.410978 97.817316,30.250894 Z"
         id="path353" />
      <path
         style="fill:#f5af00"
         d="M 41.556704,231.77749 C 38.781241,227.81497 39.24215,77.75785 42.038373,74.961627 57.72409,59.27591 61.493704,71.852661 61.757038,140.75 62.014076,208 62.014076,208 177.78453,208 280.94737,208 293.79702,207.83047 295.77749,206.4433 298,204.88659 298,204.88659 298,138.9433 298,71.605896 301.95646,58.956455 318,75 c 2.76209,2.762092 3.1865,152.86102 0.4433,156.77749 -2.46261,3.51586 -274.423992,3.51586 -276.886596,0 z M 203.2,189.8 c -2.17955,-2.17955 -1.57902,-17.52679 0.73426,-18.76482 12.20111,-6.52983 24.56039,5.82945 18.03056,18.03056 -1.23803,2.31328 -16.58527,2.91381 -18.76482,0.73426 z m 41.46667,-68.46667 C 238.62363,115.29029 244.56511,111 258.97695,111 c 16.36848,0 19.36441,1.1984 17.52041,7.00832 -1.09897,3.46255 -28.79957,6.35614 -31.83069,3.32501 z M 235.65499,39.171259 C 231.55967,34.645982 236.47601,28.116201 241.5,31.408043 246.05777,34.394407 244.1438,41 238.72073,41 c -0.77592,0 -2.1555,-0.822933 -3.06574,-1.828741 z"
         id="path351" />
      <path
         style="fill:#06a0c6"
         d="m 117.2,318.8 c -1.56516,-1.56516 -1.50307,-12.83469 0.0818,-14.84589 4.03472,-5.12006 1.94467,-4.95411 62.39365,-4.95411 60.35104,0 60.234,-0.01 62.89955,5.14503 1.73356,3.35234 1.88166,12.99831 0.225,14.65497 -1.73374,1.73374 -123.86626,1.73374 -125.6,0 z M 36.378302,265.56308 C 29.551754,262.592 30,269.71542 30,164.20057 30,51.253306 27.803534,63 48.923077,63 62,63 62,63 62,68 c 0,5 0,5 -9.345012,5 C 38.537425,73 40,63.658379 40,153.82874 c 0,75.83793 0.03455,77.20582 2,79.17126 3.153231,3.15323 272.84677,3.15323 276,0 1.96552,-1.96552 2,-3.33333 2,-79.34501 C 320,63.427262 321.52261,73 307.17126,73 298,73 298,73 298,68 c 0,-5 0,-5 13.07692,-5 C 332.19647,63 330,51.253306 330,164.20057 c 0,105.83285 0.4806,98.4472 -6.59857,101.40506 -4.90894,2.05109 -282.307135,2.00996 -287.023128,-0.0426 z M 275.55988,253.54896 c 3.31633,-5.06136 -1.97963,-10.46963 -7.01892,-7.16776 -2.92344,1.91552 -3.2895,5.13419 -0.88597,7.79006 2.34294,2.58892 5.98888,2.3019 7.90489,-0.6223 z m 42.88342,0.22853 C 322.92583,247.37778 318.92953,245 303.69113,245 c -15.0877,0 -19.96124,3.1499 -14.69369,9.49692 2.28867,2.75768 27.44083,2.14315 29.44586,-0.71943 z m -147.8866,-65 C 164.52469,180.16558 169.63701,170 180,170 c 9.35921,0 11,1.53302 11,10.27749 C 191,189.7906 189.7593,191 180,191 c -7.01616,0 -8.0584,-0.24529 -9.4433,-2.22251 z m 10.48929,-84.4205 c 0.27761,-5.172951 19.78586,-38.889081 22.66228,-39.167236 6.12645,-0.59244 22.16007,18.773691 20.57174,24.847471 -0.72885,2.78714 -1.35137,3.037927 -22.28001,8.97569 -10.175,2.886795 -19.0625,5.462995 -19.75,5.724895 -0.6875,0.26189 -1.2293,0.0905 -1.20401,-0.38082 z M 244.66667,78.333333 C 238.62363,72.290294 244.56511,68 258.97695,68 c 16.36848,0 19.36441,1.198397 17.52041,7.008321 -1.09897,3.462549 -28.79957,6.356134 -31.83069,3.325012 z m 12.28218,-39.384485 c -2.99142,-2.991417 -1.65836,-7.057293 2.75,-8.387606 C 264.42791,29.13415 267.61428,35.385722 264,39 c -2.54373,2.543726 -4.47025,2.52975 -7.05115,-0.05115 z"
         id="path349" />
      <path
         style="fill:#4f6e8a"
         d="m 111.75,234.25012 c 37.5375,-0.1452 98.9625,-0.1452 136.5,0 37.5375,0.14519 6.825,0.26399 -68.25,0.26399 -75.075,0 -105.7875,-0.1188 -68.25,-0.26399 z m 128.9777,-42.97185 c 1.77523,-0.22091 4.92523,-0.22454 7,-0.008 2.07476,0.21648 0.6223,0.39722 -3.2277,0.40166 -3.85,0.004 -5.54754,-0.17268 -3.7723,-0.39359 z M 84.75,175.25493 c 5.0875,-0.18149 13.4125,-0.18149 18.5,0 5.0875,0.18149 0.925,0.32999 -9.25,0.32999 -10.175,0 -14.3375,-0.1485 -9.25,-0.32999 z m 0,-11 c 5.0875,-0.18149 13.4125,-0.18149 18.5,0 5.0875,0.18149 0.925,0.32999 -9.25,0.32999 -10.175,0 -14.3375,-0.1485 -9.25,-0.32999 z M 244.37817,132.5 c 0,-6.6 0.16185,-9.4297 0.35968,-6.28822 0.35968,5.71178 0.35968,5.71178 9.06091,6.04436 8.70124,0.33259 8.70124,0.33259 0.001,0.53822 C 245.09981,133 245.09981,133 244.73899,138.75 c -0.19845,3.1625 -0.36082,0.35 -0.36082,-6.25 z M 84.75,132.25493 c 5.0875,-0.18149 13.4125,-0.18149 18.5,0 5.0875,0.18149 0.925,0.32999 -9.25,0.32999 -10.175,0 -14.3375,-0.1485 -9.25,-0.32999 z m 0,-11 c 5.0875,-0.18149 13.4125,-0.18149 18.5,0 5.0875,0.18149 0.925,0.32999 -9.25,0.32999 -10.175,0 -14.3375,-0.1485 -9.25,-0.32999 z M 244.30987,105.5 c 0.006,-3.3 0.1923,-4.52944 0.41486,-2.73209 0.22256,1.79735 0.21797,4.49735 -0.0102,6 -0.22818,1.50265 -0.41027,0.0321 -0.40466,-3.26791 z M 84.75,89.254932 c 5.0875,-0.181491 13.4125,-0.181491 18.5,0 5.0875,0.181491 0.925,0.329984 -9.25,0.329984 -10.175,0 -14.3375,-0.148493 -9.25,-0.329984 z M 244.32007,84 c 0,-3.575 0.1815,-5.0375 0.40333,-3.25 0.22182,1.7875 0.22182,4.7125 0,6.5 -0.22183,1.7875 -0.40333,0.325 -0.40333,-3.25 z M 84.75,78.254932 c 5.0875,-0.181491 13.4125,-0.181491 18.5,0 5.0875,0.181491 0.925,0.329984 -9.25,0.329984 -10.175,0 -14.3375,-0.148493 -9.25,-0.329984 z m 36,-27.00478 c 32.5875,-0.146307 85.9125,-0.146307 118.5,0 32.5875,0.146307 5.925,0.266013 -59.25,0.266013 -65.175,0 -91.8375,-0.119706 -59.25,-0.266013 z m 2.5,-31.999986 c 31.2125,-0.146674 82.2875,-0.146674 113.5,0 31.2125,0.146674 5.675,0.26668 -56.75,0.26668 -62.425,0 -87.9625,-0.120006 -56.75,-0.26668 z"
         id="path347" />
      <path
         style="fill:#c6094f"
         d="m 138.03518,189.06574 c -6.52983,-12.20111 5.82945,-24.56039 18.03056,-18.03056 2.31328,1.23803 2.91381,16.58527 0.73426,18.76482 -2.17955,2.17955 -17.52679,1.57902 -18.76482,-0.73426 z m 129,0 c -6.52983,-12.20111 5.82945,-24.56039 18.03056,-18.03056 2.31328,1.23803 2.91381,16.58527 0.73426,18.76482 -2.17955,2.17955 -17.52679,1.57902 -18.76482,-0.73426 z M 166,146.00874 C 129.9646,132.7134 127.27703,83.7733 161.65296,66.850084 c 10.28367,-5.062634 27.79814,-5.143795 36.5783,-0.1695 0.4022,0.227858 -3.53756,8.942942 -8.755,19.366852 C 183.9241,97.140069 180.51968,105 181.26721,105 c 0.70247,0 9.79921,-2.44316 20.21498,-5.429247 21.64151,-6.204382 20.15986,-6.28388 21.08633,1.131387 3.78365,30.28325 -28.09211,55.81303 -56.56852,45.3066 z M 244.19774,94.75 c 0.43267,-7.515061 19.54008,-8.627122 21.39285,-1.245075 C 266.84173,98.489852 263.9824,100 253.29275,100 c -9.39727,0 -9.39727,0 -9.09501,-5.25 z M 278.57143,39.428571 C 275.39675,36.253889 278.10274,30 282.65108,30 284.79191,30 287,33.064793 287,36.036245 c 0,4.467535 -5.24312,6.577782 -8.42857,3.392326 z"
         id="path345" />
      <path
         style="fill:#074e75"
         d="m 148.46577,296.75 c 0.80694,-3.60333 3.50168,-20.08599 3.72501,-22.78442 0.3229,-3.90159 55.29554,-3.90159 55.61844,0 0.22333,2.69843 2.91807,19.18109 3.72501,22.78442 C 212.0381,299 212.0381,299 180,299 c -32.0381,0 -32.0381,0 -31.53423,-2.25 z M 245,138 c 0,-5.82108 15.7369,-8.06911 19.4433,-2.77749 C 268.08907,140.42757 264.4695,143 253.5,143 c -8.5,0 -8.5,0 -8.5,-5 z"
         id="path343" />
      <path
         style="fill:#003159"
         d="m 153,269.5 c 0,-2.5 0,-2.5 27,-2.5 27,0 27,0 27,2.5 0,2.5 0,2.5 -27,2.5 -27,0 -27,0 -27,-2.5 z m 82.65499,-80.32874 C 229.15498,181.98884 234.68625,170 244.5,170 c 9.86595,0 15.69002,12.99312 8.67126,19.34501 -2.72036,2.46189 -15.24347,2.33767 -17.51627,-0.17375 z m -161.000002,-5 C 72.710793,182.02295 72.506543,178.89346 74.2,177.2 75.047312,176.35269 80.866667,176 94,176 c 19.55687,0 21,0.31233 21,4.54501 0,5.6614 -35.606917,8.86179 -40.345012,3.62625 z M 74.2,162.8 c -1.767189,-1.76719 -1.460321,-5.25444 0.628741,-7.14501 2.885091,-2.61097 36.131859,-2.46099 38.516269,0.17375 1.9442,2.14831 2.14845,5.2778 0.45499,6.97126 -1.69158,1.69158 -37.908416,1.69158 -39.6,0 z m 161.45499,-16.62874 c -2.66727,-2.9473 -2.50497,-79.092066 0.17375,-81.516272 2.29668,-2.078467 4.57607,-2.107325 6.59983,-0.08356 2.3772,2.377197 2.3772,79.479942 0,81.857142 -2.08791,2.08791 -4.74245,1.98707 -6.77358,-0.25731 z m -161.000002,-5 C 72.710793,139.02295 72.506543,135.89346 74.2,134.2 75.047312,133.35269 80.866667,133 94,133 c 19.55687,0 21,0.31233 21,4.54501 0,5.6614 -35.606917,8.86179 -40.345012,3.62625 z M 74.2,119.8 c -1.767189,-1.76719 -1.460321,-5.25444 0.628741,-7.14501 2.885091,-2.61097 36.131859,-2.46099 38.516269,0.17375 1.9442,2.14831 2.14845,5.2778 0.45499,6.97126 -1.69158,1.69158 -37.908416,1.69158 -39.6,0 z M 74.654988,98.171259 C 72.710793,96.022949 72.506543,92.893457 74.2,91.2 c 1.691584,-1.691584 37.90842,-1.691584 39.6,0 1.76719,1.767189 1.46032,5.254437 -0.62874,7.145012 -2.88509,2.610968 -36.131862,2.460988 -38.516272,-0.173753 z M 74.2,76.8 c -1.767189,-1.767189 -1.460321,-5.254437 0.628741,-7.145012 2.885091,-2.610972 36.131859,-2.460991 38.516269,0.173753 1.9442,2.14831 2.14845,5.277802 0.45499,6.971259 -1.69158,1.691584 -37.908416,1.691584 -39.6,0 z M 62,37.154988 c 0,-12.142832 0.224835,-14.048486 1.828741,-15.5 2.981064,-2.697827 230.071099,-2.528128 232.516269,0.173753 1.3701,1.513946 1.65499,4.182073 1.65499,15.5 C 298,51 298,51 180,51 62,51 62,51 62,37.154988 Z M 162.8,39.8 c 1.69902,-1.699024 1.48823,-6.368913 -0.37143,-8.228571 -2.44927,-2.449275 -85.888033,-2.370583 -88.599829,0.08356 -2.274233,2.058152 -2.344947,5.117129 -0.173753,7.516271 C 75.729123,41.463154 160.53868,42.061316 162.8,39.8 Z m 80.6433,-1.022506 C 245.50067,35.840182 245.40692,34.406924 243,32 c -3.77157,-3.771566 -9,-1.52251 -9,3.871429 0,5.289838 6.39517,7.257877 9.4433,2.906065 z M 264.8,39.8 c 3.07996,-3.079959 0.30781,-9.8 -4.04269,-9.8 -4.81882,0 -7.52312,6.091335 -4.18588,9.428571 1.85966,1.859659 6.52955,2.070453 8.22857,0.371429 z m 20.26574,0.164816 C 288.63844,38.052766 286.6871,30 282.65108,30 280.25422,30 277,33.15874 277,35.485275 c 0,4.455956 3.97982,6.666261 8.06574,4.479541 z"
         id="path341" />
    </g>
  </g>
</svg>
