<?xml version="1.0" encoding="UTF-8" standalone="no"?>
<!-- Created with Inkscape (http://www.inkscape.org/) -->

<svg
   version="1.1"
   id="svg606"
   width="225"
   height="225"
   viewBox="0 0 225 225"
   sodipodi:docname="pgpagrupadores2.svg"
   inkscape:version="1.1.2 (0a00cf5339, 2022-02-04, custom)"
   xmlns:inkscape="http://www.inkscape.org/namespaces/inkscape"
   xmlns:sodipodi="http://sodipodi.sourceforge.net/DTD/sodipodi-0.dtd"
   xmlns="http://www.w3.org/2000/svg"
   xmlns:svg="http://www.w3.org/2000/svg">
  <defs
     id="defs610" />
  <sodipodi:namedview
     id="namedview608"
     pagecolor="#ffffff"
     bordercolor="#666666"
     borderopacity="1.0"
     inkscape:pageshadow="2"
     inkscape:pageopacity="0.0"
     inkscape:pagecheckerboard="0"
     showgrid="false"
     inkscape:zoom="1.1533333"
     inkscape:cx="104.47977"
     inkscape:cy="153.46821"
     inkscape:window-width="1366"
     inkscape:window-height="705"
     inkscape:window-x="-8"
     inkscape:window-y="-8"
     inkscape:window-maximized="1"
     inkscape:current-layer="g1132" />
  <g
     inkscape:groupmode="layer"
     inkscape:label="Image"
     id="g612">
    <g
       id="g1132">
      <path
         style="fill:#e9daa0"
         d="M 115.66667,222.33333 C 112.04655,218.71322 115.52425,127 119.28163,127 121.84781,127 183,189.36227 183,191.97922 c 0,12.0561 -59.02339,38.66406 -67.33333,30.35411 z M 138,218.92236 c 19.73942,-4.59032 46.59853,-22.354 43.16448,-28.54748 -4.57997,-8.26022 -61.3816,-61.73585 -63.21566,-59.5141 -2.02979,2.45888 -3.16957,88.56617 -1.19882,90.56754 1.03219,1.04822 11.04272,-0.1323 21.25,-2.50596 z M 88,208.50369 C 48.054434,200.46309 17.736319,168.44631 12.040961,128.28881 9.7903037,112.41962 7.869076,113 62.651078,113 118.39549,113 111,105.81165 111,159.9947 c 0,54.80085 0.71946,53.28346 -23,48.50899 z m 19.4433,-1.7262 c 1.35267,-1.93121 1.5567,-8.09134 1.5567,-47 C 109,115 109,115 62.57258,115 5.5373985,115 9.0147349,113.27666 15.154635,138.5 c 6.077444,24.96677 25.239145,48.96314 48.115501,60.25546 18.140879,8.95478 40.655914,13.0436 44.173164,8.02203 z M 35.818575,109.25075 c 12.825216,-0.15837 33.525216,-0.1582 46,3.8e-4 C 94.293359,109.40972 83.8,109.53929 58.5,109.53908 33.2,109.53887 22.993359,109.40912 35.818575,109.25075 Z M 107,107.62244 c 0,-0.20765 0.7875,-0.99515 1.75,-1.75 1.58606,-1.24387 1.62143,-1.2085 0.37756,0.37756 C 107.82119,107.91575 107,108.44548 107,107.62244 Z M 11.194949,101.5 c 0.02038,-1.65 0.244498,-2.203936 0.498042,-1.23097 0.253543,0.97297 0.236869,2.32297 -0.03705,3 C 11.382014,103.94606 11.174569,103.15 11.194949,101.5 Z M 110.45974,60 c 0,-24.475 0.13017,-34.4875 0.28926,-22.25 0.15909,12.2375 0.15909,32.2625 0,44.5 -0.15909,12.2375 -0.28926,2.225 -0.28926,-22.25 z M 12.078947,94.416667 c 0.04798,-1.164943 0.284941,-1.4019 0.604167,-0.604167 0.288871,0.721875 0.253344,1.584375 -0.07895,1.916667 -0.332292,0.332291 -0.568641,-0.258334 -0.52522,-1.3125 z M 29,55.622445 c 0,-0.207656 0.7875,-0.995156 1.75,-1.75 C 32.336056,52.628574 32.371426,52.663944 31.127555,54.25 29.821186,55.915748 29,56.445479 29,55.622445 Z M 37.5,46 c 2.708649,-2.75 5.149816,-5 5.424816,-5 0.275,0 -1.716167,2.25 -4.424816,5 -2.708649,2.75 -5.149816,5 -5.424816,5 -0.275,0 1.716167,-2.25 4.424816,-5 z m 10,-9 c 0.995486,-1.1 2.034975,-2 2.309975,-2 0.275,0 -0.314489,0.9 -1.309975,2 -0.995486,1.1 -2.034975,2 -2.309975,2 -0.275,0 0.314489,-0.9 1.309975,-2 z M 55,31.622445 c 0,-0.207656 0.7875,-0.995156 1.75,-1.75 C 58.336056,28.628574 58.371426,28.663944 57.127555,30.25 55.821186,31.915748 55,32.445479 55,31.622445 Z M 90.8125,15.316886 c 0.721875,-0.288871 1.584375,-0.253344 1.916667,0.07895 0.332291,0.332292 -0.258334,0.568641 -1.3125,0.52522 -1.164943,-0.04798 -1.4019,-0.284941 -0.604167,-0.604167 z M 96.75,14.337719 c 0.6875,-0.277412 1.8125,-0.277412 2.5,0 0.6875,0.277413 0.125,0.504386 -1.25,0.504386 -1.375,0 -1.9375,-0.226973 -1.25,-0.504386 z"
         id="path1160" />
      <path
         style="fill:#abd7d9"
         d="m 149.24405,151.74414 c -32.48787,-32.50015 -33.62793,-33.961 -29.02154,-37.18744 2.92224,-2.04681 91.54954,-2.38465 93.57749,-0.3567 4.75567,4.75567 -3.80394,35.34081 -13.23747,47.3 -1.73539,2.2 -4.45319,5.94152 -6.03957,8.31448 -11.57096,17.30825 -8.81373,18.40863 -45.27891,-18.07034 z M 186.65712,177.75 c 2.15151,-2.3375 5.42507,-6.5 7.27458,-9.25 1.84951,-2.75 4.39225,-6.125 5.65055,-7.5 5.97022,-6.52394 13.17813,-27.01259 13.64969,-38.79953 C 213.5,115.5 213.5,115.5 167.61473,115.23982 c -60.07572,-0.34064 -58.12667,-4.26738 -17.87078,36.00423 34.17235,34.18568 31.56666,32.31464 36.91317,26.50595 z M 117.75,103.9199 c -3.28468,-1.91315 -2.59671,-96.7758312 0.72447,-99.8959195 9.27503,-8.7134336 48.68133,5.9868325 68.09802,25.4035285 21.21303,21.213028 34.82755,61.439217 24.5263,72.466731 -2.99755,3.20889 -88.14502,5.05658 -93.34879,2.02566 z m 93.57734,-4.740327 C 219.49396,85.194896 200.88125,41.932236 179.31207,24.764521 159.82461,9.2537257 126.56876,-1.6407583 119.36558,5.1262854 c -2.33723,2.1957124 -3.94877,94.9571946 -1.68894,97.2170146 2.95006,2.95007 91.83391,-0.0526 93.6507,-3.163727 z"
         id="path1158" />
      <path
         style="fill:#e59e99"
         d="m 95.75,208.33772 c 0.6875,-0.27741 1.8125,-0.27741 2.5,0 0.6875,0.27741 0.125,0.50439 -1.25,0.50439 -1.375,0 -1.9375,-0.22698 -1.25,-0.50439 z m 9.25,0.28472 c 0,-0.20765 0.7875,-0.99515 1.75,-1.75 1.58606,-1.24387 1.62143,-1.2085 0.37756,0.37756 C 105.82119,208.91575 105,209.44548 105,208.62244 Z M 38.946167,181.25 C 35.5,177.5 35.5,177.5 39.25,180.94617 42.740419,184.15378 43.459787,185 42.696167,185 c -0.167108,0 -1.854608,-1.6875 -3.75,-3.75 z m -25.86722,-50.83333 c 0.04798,-1.16495 0.284941,-1.4019 0.604167,-0.60417 0.288871,0.72187 0.253344,1.58437 -0.07895,1.91667 -0.332292,0.33229 -0.568641,-0.25834 -0.52522,-1.3125 z M 12.157895,122 c 0,-1.375 0.226973,-1.9375 0.504386,-1.25 0.277412,0.6875 0.277412,1.8125 0,2.5 -0.277413,0.6875 -0.504386,0.125 -0.504386,-1.25 z M 11.670538,107.58382 C 10.131427,103.57296 14.82383,83.759866 20.035911,72.262053 33.869214,41.74589 71.048026,15.646531 102,14.723629 c 8.13151,-0.242459 13.16373,86.069421 5.37528,92.195821 -3.43947,2.70548 -94.678448,3.33885 -95.704742,0.66437 z m 95.015012,-1.75813 c 2.86994,-2.69617 3.7673,-89.054202 0.93667,-90.140418 -3.43866,-1.319535 -20.987806,2.052262 -30.942479,5.945119 C 42.305218,35.07283 13,72.606487 13,103.19039 c 0,5.57529 87.92346,8.0485 93.68555,2.6353 z"
         id="path1156" />
      <path
         style="fill:#f89f53"
         d="m 101.5,208.2665 c 6.79652,-0.98284 6.5,1.20374 6.5,-47.93147 0,-44.355 0,-44.355 -46.220656,-44.09502 C 15.558688,116.5 15.558688,116.5 14.294086,119 c -0.789535,1.56084 -1.27014,1.90081 -1.279344,0.90499 C 12.969859,115.04882 13.4657,115 62.828741,115 109,115 109,115 109,159.82569 c 0,50.12945 0.11006,49.41619 -7.56445,49.02448 C 98.5,208.70034 98.5,208.70034 101.5,208.2665 Z m -10.25,-0.95583 c 0.9625,-0.25152 2.5375,-0.25152 3.5,0 0.9625,0.25153 0.175,0.45733 -1.75,0.45733 -1.925,0 -2.7125,-0.2058 -1.75,-0.45733 z m -5.5,-0.97295 c 0.6875,-0.27741 1.8125,-0.27741 2.5,0 0.6875,0.27741 0.125,0.50439 -1.25,0.50439 -1.375,0 -1.9375,-0.22698 -1.25,-0.50439 z m -3.9375,-1.02083 c 0.721875,-0.28887 1.584375,-0.25335 1.916667,0.0789 0.332291,0.33229 -0.258334,0.56864 -1.3125,0.52522 -1.164943,-0.048 -1.4019,-0.28494 -0.604167,-0.60416 z M 62,197.91006 c -4.125,-2.234 -8.175,-4.79052 -9,-5.68117 -1.33515,-1.44139 -1.333217,-1.49574 0.01759,-0.49456 0.834676,0.61864 5.334676,3.17397 10,5.67852 4.665324,2.50455 8.032408,4.55492 7.482408,4.55638 -0.55,10e-4 -4.375,-1.82518 -8.5,-4.05917 z M 48.872445,189.25 c -1.243871,-1.58606 -1.208501,-1.62143 0.377555,-0.37756 0.9625,0.75485 1.75,1.54235 1.75,1.75 0,0.82304 -0.821186,0.29331 -2.127555,-1.37244 z m -9.518352,-8.5 C 32.431574,173.56373 23.763596,162 25.299403,162 c 0.22959,0 2.128318,2.5875 4.219396,5.75 2.091077,3.1625 6.955838,9.0125 10.810579,13 3.854741,3.9875 6.783621,7.25 6.508621,7.25 -0.275,0 -3.642758,-3.2625 -7.483906,-7.25 z m -17.40353,-23.84691 c -1.149547,-2.25329 -1.918566,-4.26842 -1.708931,-4.47806 0.209635,-0.20963 1.360179,1.63398 2.556765,4.09691 2.725294,5.60948 1.988451,5.94073 -0.847834,0.38115 z m -3.327024,-7.44175 c -0.964979,-2.51469 -0.680311,-3.16355 0.498534,-1.13634 0.58369,1.00375 0.850598,2.03566 0.593129,2.29313 -0.257468,0.25747 -0.748717,-0.26309 -1.091663,-1.15679 z m -2.05211,-6.03277 c -0.367821,-1.46551 -0.475908,-2.85742 -0.240193,-3.09314 0.235714,-0.23571 0.729515,0.77049 1.097335,2.236 0.367821,1.46551 0.475908,2.85742 0.240193,3.09314 -0.235714,0.23571 -0.729515,-0.77049 -1.097335,-2.236 z m -1.492482,-6.0119 c 0.04798,-1.16495 0.284941,-1.4019 0.604167,-0.60417 0.288871,0.72187 0.253344,1.58437 -0.07895,1.91667 -0.332292,0.33229 -0.568641,-0.25834 -0.52522,-1.3125 z M 14.157895,133 c 0,-1.375 0.226973,-1.9375 0.504386,-1.25 0.277412,0.6875 0.277412,1.8125 0,2.5 -0.277413,0.6875 -0.504386,0.125 -0.504386,-1.25 z m -0.905712,-7.5 c 0.0111,-2.2 0.215885,-2.98225 0.455078,-1.73834 0.239193,1.24391 0.230112,3.04391 -0.02018,4 C 13.436788,128.71775 13.241084,127.7 13.252183,125.5 Z"
         id="path1154" />
      <path
         style="fill:#c9de32"
         d="m 116.45769,220.75 c -0.26375,-0.6875 -0.35722,-20.825 -0.20771,-44.75 0.27183,-43.5 0.27183,-43.5 0.51092,0.68963 0.2391,44.18964 0.2391,44.18964 3.9891,44.5819 3.75,0.39226 3.75,0.39226 -0.0314,0.56037 -2.24013,0.0996 -3.97685,-0.34139 -4.26093,-1.0819 z M 127.75,220.33772 c 0.6875,-0.27741 1.8125,-0.27741 2.5,0 0.6875,0.27741 0.125,0.50439 -1.25,0.50439 -1.375,0 -1.9375,-0.22698 -1.25,-0.50439 z m -7.01269,-4.93374 C 120.33179,214.99846 120,195.79352 120,172.72634 c 0,-39.52831 -0.10064,-41.9023 -1.75,-41.27929 -1.64657,0.62196 -1.64512,0.55506 0.0246,-1.13186 1.70303,-1.72061 3.02312,-0.54244 32.75,29.22905 34.27937,34.3308 32.5991,31.95373 26.72544,37.80855 -2.3375,2.33001 -3.0125,2.84489 -1.5,1.14418 4.25102,-4.77998 3.28062,-4.95205 -2.76019,-0.48944 -13.69457,10.11677 -48.54077,21.60817 -52.7525,17.39645 z M 161,209.57037 c 0,-0.275 0.9,-0.98167 2,-1.57037 1.1,-0.5887 2,-0.84537 2,-0.57037 0,0.275 -0.9,0.98167 -2,1.57037 -1.1,0.5887 -2,0.84537 -2,0.57037 z m 8,-4.94793 c 0,-0.20765 0.7875,-0.99515 1.75,-1.75 1.58606,-1.24387 1.62143,-1.2085 0.37756,0.37756 C 169.82119,204.91575 169,205.44548 169,204.62244 Z"
         id="path1152" />
      <path
         style="fill:#fc923b"
         d="m 97.761659,207.29274 c 1.243913,-0.23919 3.043911,-0.23011 4.000001,0.0202 0.95609,0.25029 -0.0617,0.446 -2.26166,0.4349 -2.2,-0.0111 -2.982253,-0.21589 -1.738341,-0.45508 z M 89.8125,206.31689 c 0.721875,-0.28887 1.584375,-0.25335 1.916667,0.0789 0.332291,0.33229 -0.258334,0.56864 -1.3125,0.52522 -1.164943,-0.048 -1.4019,-0.28494 -0.604167,-0.60416 z M 106,205.05902 C 106,204.47656 104.40603,204 102.45784,204 62.833162,204 17,158.91394 17,119.93517 c 0,-1.58182 -0.433306,-1.98287 -1.641444,-1.51927 -1.372472,0.52667 -1.434339,0.38034 -0.377555,-0.89301 C 16.079293,116.19953 22.255843,116 62.122445,116 108,116 108,116 108,160.44098 c 0,28.54864 -0.35761,44.662 -1,45.05902 -0.55,0.33992 -1,0.14148 -1,-0.44098 z M 49.872445,189.25 c -1.243871,-1.58606 -1.208501,-1.62143 0.377555,-0.37756 0.9625,0.75485 1.75,1.54235 1.75,1.75 0,0.82304 -0.821186,0.29331 -2.127555,-1.37244 z m -5.435354,-4.5 C 41.5,181.5 41.5,181.5 44.75,184.43709 c 1.7875,1.6154 3.25,3.0779 3.25,3.25 0,0.77256 -0.825128,0.0924 -3.562909,-2.93709 z m -8,-8 C 33.5,173.5 33.5,173.5 36.75,176.43709 39.779455,179.17487 40.459652,180 39.687091,180 c -0.1721,0 -1.6346,-1.4625 -3.25,-3.25 z M 14.157895,129 c 0,-1.375 0.226973,-1.9375 0.504386,-1.25 0.277412,0.6875 0.277412,1.8125 0,2.5 -0.277413,0.6875 -0.504386,0.125 -0.504386,-1.25 z"
         id="path1150" />
      <path
         style="fill:#56aec3"
         d="M 149.49395,150.75 C 118.5,119.5 118.5,119.5 149.75,150.49395 178.79204,179.29804 181.45009,182 180.74395,182 c -0.14083,0 -14.20333,-14.0625 -31.25,-31.25 z M 187,176.34373 c 0.825,-1.13905 4.08475,-5.67499 7.24389,-10.07985 5.94833,-8.2939 10.24802,-12.9495 7.91445,-8.56957 -0.643,1.20687 -1.58343,2.45037 -2.08983,2.76335 -0.5064,0.31297 -3.41402,4.12723 -6.46137,8.47613 -3.04735,4.34889 -6.1181,8.2612 -6.82389,8.69402 -0.84183,0.51624 -0.76727,0.0745 0.21675,-1.28408 z M 204.60846,151.25 c 5.53435,-12.69111 9.83455,-33.64387 7.27266,-35.43608 -1.13628,-0.7949 -1.1152,-0.88966 0.11888,-0.53455 3.96793,1.14179 -4.34622,39.72063 -8.56021,39.72063 -0.25665,0 0.26926,-1.6875 1.16867,-3.75 z M 121.8125,115.31689 c 0.72187,-0.28887 1.58437,-0.25335 1.91667,0.0789 0.33229,0.3323 -0.25834,0.56864 -1.3125,0.52522 -1.16495,-0.048 -1.4019,-0.28494 -0.60417,-0.60416 z M 167,98 C 122.5,97.5 122.5,97.5 122.24001,51.25 122.06326,19.807457 121.64417,5 120.931,5 c -0.57697,0 -0.75975,-0.4680768 -0.40617,-1.0401706 1.4316,-2.3163777 24.55635,1.944505 35.45976,6.5336856 30.80992,12.967715 52.32913,41.811156 56.12968,75.233853 C 213.72781,99.917141 218.64223,98.58025 167,98 Z"
         id="path1148" />
      <path
         style="fill:#539aa8"
         d="M 150.24405,150.74414 C 133.05982,133.55342 119,119.25126 119,118.96157 c 0,-0.2897 14.19404,13.66294 31.54231,31.00586 31.54232,31.53257 31.54232,31.53257 33.5,29.17179 C 185.11904,177.84078 186,177.20854 186,177.73423 186,178.65294 182.79502,182 181.91531,182 c -0.23497,0 -14.48704,-14.06514 -31.67126,-31.25586 z M 117.60699,101.41821 C 116.5707,98.717698 116.91745,10.347319 117.97525,7.5650997 121.47018,-1.6272648 121.97165,3.5093667 122.24001,51.25 122.5,97.5 122.5,97.5 166.75,97.760402 192.76511,97.913495 211,98.39917 211,98.938973 c 0,0.504994 -0.70714,1.625317 -1.57143,2.489597 -2.39633,2.39634 -90.90188,2.38635 -91.82158,-0.0104 z m 91.1397,-1.15775 C 209.07023,99.289418 199.55733,98.9645 164.82985,98.760459 120.5,98.5 120.5,98.5 119.99947,52.5 c -0.50053,-46 -0.50053,-46 -1,1 -0.27471,25.85 -0.35756,47.34211 -0.18412,47.76025 0.57729,1.39173 89.46376,0.40356 89.93134,-0.99979 z"
         id="path1146" />
      <path
         style="fill:#a9c923"
         d="m 117.2397,176.33315 c 0.20074,-34.44602 0.54383,-44.76131 1.49938,-45.07969 0.96973,-0.3231 1.29581,8.78901 1.5,41.91685 C 120.5,215.5 120.5,215.5 126.79175,215.20688 c 14.40773,-0.67122 34.18492,-7.95536 46.69806,-17.19935 6.91814,-5.11073 7.1936,-3.63523 0.42649,2.28447 -13.12084,11.47779 -36.72768,20.6674 -53.1766,20.70045 -3.76029,0.008 -3.76029,0.008 -3.5,-44.6593 z"
         id="path1144" />
      <path
         style="fill:#00d1b2"
         d="m 153.20522,146.7053 c -16.65537,-16.66208 -29.9651,-30.61208 -29.57719,-31 1.02901,-1.02901 86.61886,-0.83498 88.25309,0.20006 4.16454,2.63764 -4.85449,33.59812 -12.83923,44.07447 -1.47563,1.9361 -4.90122,6.54646 -7.61243,10.24526 -6.62438,9.03741 -4.17147,10.54671 -38.22424,-23.51979 z"
         id="path1142" />
      <path
         style="fill:#e77c1b"
         d="M 95.277198,206.80331 C 61.310665,203.52534 30.258696,178.65134 18.863946,145.59293 15.826023,136.77932 13.29519,122.27909 14.32597,119.59292 15.198322,117.31961 17,117.62229 17,120.04216 17,158.91329 62.89223,204 102.45784,204 c 2.36101,0 3.54216,0.46451 3.54216,1.39301 0,2.06687 -1.65875,2.28504 -10.722802,1.4103 z"
         id="path1140" />
      <path
         style="fill:#d93146"
         d="m 13,103.19039 c 0,-30.583903 29.305218,-68.11756 63.679741,-81.559999 9.954673,-3.892857 27.503819,-7.264654 30.942479,-5.945119 2.83063,1.086216 1.93327,87.444248 -0.93667,90.140418 C 100.92346,111.23889 13,108.76568 13,103.19039 Z"
         id="path1138" />
      <path
         style="fill:#397c8f"
         d="M 118.81535,101.26025 C 118.64191,100.84211 118.72476,79.35 118.99947,53.5 c 0.49947,-47 0.49947,-47 1,-1 0.50053,46 0.50053,46 44.83038,46.260459 34.72748,0.204041 44.24038,0.528959 43.91684,1.500001 -0.46758,1.40335 -89.35405,2.39152 -89.93134,0.99979 z"
         id="path1136" />
      <path
         style="fill:#088774"
         d="m 150.06511,149.54883 c -26.69537,-26.74819 -30.22867,-30.64683 -29.05574,-32.06012 1.49542,-1.80187 63.86107,58.7142 63.13364,61.26129 -0.9401,3.29178 -5.83661,-0.90401 -34.0779,-29.20117 z"
         id="path1134" />
    </g>
  </g>
</svg>
